<svg width="23" height="22" viewBox="0 0 23 22" fill="none" xmlns="http://www.w3.org/2000/svg">
<path d="M18.5583 11.5133L13.7859 16.0967C13.6325 16.2433 13.4408 16.3167 13.2492 16.3167C13.0575 16.3167 12.8658 16.2433 12.7125 16.0967C12.4058 15.8033 12.4058 15.345 12.7125 15.0517L16.1817 11.715H4.98835C4.56668 11.715 4.22168 11.385 4.22168 10.9817C4.22168 10.5783 4.56668 10.2483 4.98835 10.2483H16.1817L12.7125 6.91167C12.4058 6.61834 12.4058 6.16 12.7125 5.86667C13.0192 5.57333 13.4983 5.57333 13.805 5.86667L18.5775 10.45C18.865 10.7617 18.865 11.2383 18.5583 11.5133Z" fill="black"/>
</svg>
