<svg width="32" height="24" viewBox="0 0 32 24" fill="none" xmlns="http://www.w3.org/2000/svg">
<path d="M29.8586 21.5033V6.57495C29.8586 5.3207 28.8418 4.30396 27.5876 4.30396H2.271C1.01675 4.30396 0 5.3207 0 6.57495V21.5033C0 22.7576 1.01675 23.7743 2.271 23.7743H27.5875C28.8418 23.7743 29.8586 22.7576 29.8586 21.5033Z" fill="#26A6FE"/>
<path d="M27.7714 4.30396C27.0839 4.30396 27.3155 4.30396 25.7482 4.30396C27.0024 4.30396 28.0192 5.3207 28.0192 6.57495V21.5033C28.0192 22.7576 27.0024 23.7743 25.7482 23.7743H27.7714C29.0257 23.7743 30.0424 22.7575 30.0424 21.5033V6.57495C30.0425 5.3207 29.0257 4.30396 27.7714 4.30396Z" fill="#0593FC"/>
<path d="M17.8278 19.5543H3.61761C3.34886 19.5543 3.13098 19.3364 3.13098 19.0677C3.13098 18.7989 3.34886 18.5811 3.61761 18.5811H17.8278C18.0965 18.5811 18.3144 18.7989 18.3144 19.0677C18.3144 19.3365 18.0965 19.5543 17.8278 19.5543Z" fill="#C0D6F2"/>
<path d="M10.7227 21.3937H3.61761C3.34886 21.3937 3.13098 21.1758 3.13098 20.907C3.13098 20.6382 3.34886 20.4204 3.61761 20.4204H10.7227C10.9914 20.4204 11.2093 20.6383 11.2093 20.907C11.2094 21.1758 10.9915 21.3937 10.7227 21.3937Z" fill="#C0D6F2"/>
<path d="M11.7105 17.2505C11.4418 17.2505 11.2239 17.0327 11.2239 16.7639V15.5965C11.2239 15.3277 11.4418 15.1099 11.7105 15.1099C11.9793 15.1099 12.1971 15.3277 12.1971 15.5965V16.7639C12.1971 17.0327 11.9793 17.2505 11.7105 17.2505Z" fill="#E2E2E2"/>
<path d="M13.9177 17.2505C13.6489 17.2505 13.431 17.0327 13.431 16.7639V15.5965C13.431 15.3277 13.6489 15.1099 13.9177 15.1099C14.1864 15.1099 14.4043 15.3277 14.4043 15.5965V16.7639C14.4043 17.0327 14.1864 17.2505 13.9177 17.2505Z" fill="#E2E2E2"/>
<path d="M16.1248 17.2505C15.8561 17.2505 15.6382 17.0327 15.6382 16.7639V15.5965C15.6382 15.3277 15.8561 15.1099 16.1248 15.1099C16.3936 15.1099 16.6114 15.3277 16.6114 15.5965V16.7639C16.6115 17.0327 16.3936 17.2505 16.1248 17.2505Z" fill="#E2E2E2"/>
<path d="M18.3321 17.2505C18.0633 17.2505 17.8455 17.0327 17.8455 16.7639V15.5965C17.8455 15.3277 18.0633 15.1099 18.3321 15.1099C18.6008 15.1099 18.8187 15.3277 18.8187 15.5965V16.7639C18.8187 17.0327 18.6008 17.2505 18.3321 17.2505Z" fill="#E2E2E2"/>
<path d="M22.0106 17.2505C21.7418 17.2505 21.5239 17.0327 21.5239 16.7639V15.5965C21.5239 15.3277 21.7418 15.1099 22.0106 15.1099C22.2793 15.1099 22.4972 15.3277 22.4972 15.5965V16.7639C22.4972 17.0327 22.2794 17.2505 22.0106 17.2505Z" fill="#E2E2E2"/>
<path d="M24.2178 17.2505C23.9491 17.2505 23.7312 17.0327 23.7312 16.7639V15.5965C23.7312 15.3277 23.9491 15.1099 24.2178 15.1099C24.4866 15.1099 24.7045 15.3277 24.7045 15.5965V16.7639C24.7045 17.0327 24.4866 17.2505 24.2178 17.2505Z" fill="#E2E2E2"/>
<path d="M26.425 17.2505C26.1562 17.2505 25.9384 17.0327 25.9384 16.7639V15.5965C25.9384 15.3277 26.1562 15.1099 26.425 15.1099C26.6937 15.1099 26.9116 15.3277 26.9116 15.5965V16.7639C26.9116 17.0327 26.6937 17.2505 26.425 17.2505Z" fill="#E2E2E2"/>
<path d="M3.61761 17.2505C3.34886 17.2505 3.13098 17.0327 3.13098 16.7639V15.5965C3.13098 15.3277 3.34886 15.1099 3.61761 15.1099C3.88636 15.1099 4.10423 15.3277 4.10423 15.5965V16.7639C4.10423 17.0327 3.88636 17.2505 3.61761 17.2505Z" fill="#E2E2E2"/>
<path d="M5.82476 17.2505C5.55601 17.2505 5.33813 17.0327 5.33813 16.7639V15.5965C5.33813 15.3277 5.55601 15.1099 5.82476 15.1099C6.09351 15.1099 6.31138 15.3277 6.31138 15.5965V16.7639C6.31138 17.0327 6.09351 17.2505 5.82476 17.2505Z" fill="#E2E2E2"/>
<path d="M8.03191 17.2505C7.76316 17.2505 7.54529 17.0327 7.54529 16.7639V15.5965C7.54529 15.3277 7.76316 15.1099 8.03191 15.1099C8.30066 15.1099 8.51854 15.3277 8.51854 15.5965V16.7639C8.51854 17.0327 8.30066 17.2505 8.03191 17.2505Z" fill="#E2E2E2"/>
<path d="M27.5771 9.0717C30.0198 9.0717 32 7.09149 32 4.64877C32 2.20605 30.0198 0.22583 27.5771 0.22583C25.1344 0.22583 23.1542 2.20605 23.1542 4.64877C23.1542 7.09149 25.1344 9.0717 27.5771 9.0717Z" fill="#FFC344"/>
<path d="M27.5771 0.22583C27.2941 0.22583 27.0176 0.253517 26.7494 0.30433C28.7963 0.692017 30.3446 2.48908 30.3446 4.64883C30.3446 6.80858 28.7963 8.60558 26.7494 8.99327C27.0176 9.04408 27.2941 9.07177 27.5771 9.07177C30.0198 9.07177 32 7.09152 32 4.64883C32 2.20614 30.0198 0.22583 27.5771 0.22583Z" fill="#FEB137"/>
<path d="M26.6522 6.69702C26.6335 6.69702 26.6146 6.69596 26.5957 6.69371C26.448 6.67646 26.3162 6.59259 26.238 6.4659L24.8759 4.25859C24.7348 4.0299 24.8057 3.73003 25.0345 3.5889C25.2632 3.44784 25.563 3.51878 25.7042 3.74753L26.7432 5.43115L29.4315 2.74284C29.6215 2.55284 29.9297 2.55284 30.1197 2.74284C30.3097 2.93297 30.3097 3.24103 30.1197 3.43109L26.9963 6.55446C26.9045 6.64627 26.7805 6.69702 26.6522 6.69702Z" fill="#FFF0AD"/>
<path d="M9.88955 13.0058H4.34687C3.94405 13.0058 3.61755 12.6793 3.61755 12.2765V7.9007C3.61755 7.49789 3.94405 7.17139 4.34687 7.17139H9.88955C10.2924 7.17139 10.6189 7.49789 10.6189 7.9007V12.2765C10.6189 12.6793 10.2924 13.0058 9.88955 13.0058Z" fill="#FFD15B"/>
<path d="M9.88955 6.68481H4.3468C3.6763 6.68481 3.13086 7.23031 3.13086 7.90081V12.2767C3.13086 12.9472 3.6763 13.4926 4.3468 13.4926H9.88955C10.5601 13.4926 11.1055 12.9472 11.1055 12.2767V7.90081C11.1055 7.23031 10.5601 6.68481 9.88955 6.68481V6.68481ZM10.1322 7.90081V9.60206H7.60486V7.65813H9.88955C10.0234 7.65813 10.1322 7.767 10.1322 7.90081ZM4.10417 12.2766V7.90081C4.10417 7.767 4.21299 7.65813 4.3468 7.65813H6.63149V12.5193H4.3468C4.21305 12.5193 4.10417 12.4104 4.10417 12.2766V12.2766ZM9.88955 12.5193H7.60486V10.5753H10.1322V12.2766C10.1322 12.4104 10.0234 12.5193 9.88955 12.5193V12.5193Z" fill="#FEB137"/>
<path d="M26.7495 13.0059H21.8182C21.6748 13.0059 21.5586 12.8898 21.5586 12.7464V11.3189C21.5586 11.1755 21.6748 11.0593 21.8182 11.0593H26.7495C26.8928 11.0593 27.0091 11.1755 27.0091 11.3189V12.7464C27.009 12.8898 26.8928 13.0059 26.7495 13.0059Z" fill="#FD4755"/>
</svg>
