<svg width="62" height="44" viewBox="0 0 62 44" fill="none" xmlns="http://www.w3.org/2000/svg">
<path d="M60.0625 32.6562H59.0938V24.9062C59.0924 23.879 58.6837 22.8941 57.9573 22.1677C57.2309 21.4413 56.2461 21.0326 55.2188 21.0312V4.5625C55.2174 3.5352 54.8087 2.55036 54.0823 1.82395C53.3559 1.09754 52.3711 0.688846 51.3438 0.6875H10.6562C9.62895 0.688846 8.64411 1.09754 7.9177 1.82395C7.19129 2.55036 6.7826 3.5352 6.78125 4.5625V21.0312C5.75395 21.0326 4.76911 21.4413 4.0427 22.1677C3.31629 22.8941 2.9076 23.879 2.90625 24.9062V32.6562H1.9375C1.68057 32.6562 1.43417 32.7583 1.25249 32.94C1.07081 33.1217 0.96875 33.3681 0.96875 33.625V37.5C0.96875 37.7569 1.07081 38.0033 1.25249 38.185C1.43417 38.3667 1.68057 38.4688 1.9375 38.4688H2.90625V42.3438C2.90625 42.6007 3.00831 42.8471 3.18999 43.0288C3.37167 43.2104 3.61807 43.3125 3.875 43.3125H6.78125C7.00515 43.3126 7.22215 43.2351 7.39527 43.0931C7.56839 42.9511 7.68691 42.7535 7.73063 42.5339L8.54437 38.4688H53.4556L54.2694 42.5339C54.3131 42.7535 54.4316 42.9511 54.6047 43.0931C54.7779 43.2351 54.9949 43.3126 55.2188 43.3125H58.125C58.3819 43.3125 58.6283 43.2104 58.81 43.0288C58.9917 42.8471 59.0938 42.6007 59.0938 42.3438V38.4688H60.0625C60.3194 38.4688 60.5658 38.3667 60.7475 38.185C60.9292 38.0033 61.0312 37.7569 61.0312 37.5V33.625C61.0312 33.3681 60.9292 33.1217 60.7475 32.94C60.5658 32.7583 60.3194 32.6562 60.0625 32.6562ZM8.71875 4.5625C8.71942 4.04885 8.92377 3.55643 9.28697 3.19322C9.65018 2.83002 10.1426 2.62567 10.6562 2.625H51.3438C51.8574 2.62567 52.3498 2.83002 52.713 3.19322C53.0762 3.55643 53.2806 4.04885 53.2812 4.5625V21.0312H51.3438V17.1562C51.3424 16.1289 50.9337 15.1441 50.2073 14.4177C49.4809 13.6913 48.4961 13.2826 47.4688 13.2812H35.8438C34.8164 13.2826 33.8316 13.6913 33.1052 14.4177C32.3788 15.1441 31.9701 16.1289 31.9688 17.1562V21.0312H30.0312V17.1562C30.0299 16.1289 29.6212 15.1441 28.8948 14.4177C28.1684 13.6913 27.1835 13.2826 26.1562 13.2812H14.5312C13.5039 13.2826 12.5191 13.6913 11.7927 14.4177C11.0663 15.1441 10.6576 16.1289 10.6562 17.1562V21.0312H8.71875V4.5625ZM49.4062 17.1562V21.0312H33.9062V17.1562C33.9069 16.6426 34.1113 16.1502 34.4745 15.787C34.8377 15.4238 35.3301 15.2194 35.8438 15.2188H47.4688C47.9824 15.2194 48.4748 15.4238 48.838 15.787C49.2012 16.1502 49.4056 16.6426 49.4062 17.1562ZM28.0938 17.1562V21.0312H12.5938V17.1562C12.5944 16.6426 12.7988 16.1502 13.162 15.787C13.5252 15.4238 14.0176 15.2194 14.5312 15.2188H26.1562C26.6699 15.2194 27.1623 15.4238 27.5255 15.787C27.8887 16.1502 28.0931 16.6426 28.0938 17.1562ZM4.84375 24.9062C4.84442 24.3926 5.04877 23.9002 5.41197 23.537C5.77518 23.1738 6.2676 22.9694 6.78125 22.9688H55.2188C55.7324 22.9694 56.2248 23.1738 56.588 23.537C56.9512 23.9002 57.1556 24.3926 57.1562 24.9062V32.6562H4.84375V24.9062ZM5.98688 41.375H4.84375V38.4688H6.56813L5.98688 41.375ZM57.1562 41.375H56.0131L55.4319 38.4688H57.1562V41.375ZM59.0938 36.5312H2.90625V34.5938H59.0938V36.5312Z" fill="black"/>
</svg>
