<svg width="9" height="10" viewBox="0 0 9 10" fill="none" xmlns="http://www.w3.org/2000/svg">
<path d="M7.99199 6.76413C7.40862 6.29911 6.81659 6.01743 6.24039 6.48175L5.89633 6.76238C5.64459 6.96609 5.17654 7.91791 3.36691 5.97774C1.55766 4.04004 2.63432 3.73834 2.88643 3.53638L3.23238 3.2554C3.80557 2.79003 3.58925 2.20419 3.17585 1.60114L2.92638 1.23587C2.51109 0.634219 2.05887 0.239092 1.48417 0.703761L1.17365 0.956643C0.919651 1.12909 0.209667 1.68965 0.0374466 2.75456C-0.169821 4.03231 0.484013 5.49551 1.98199 7.10096C3.47808 8.70711 4.9429 9.51387 6.33046 9.49982C7.48362 9.48823 8.18003 8.91152 8.39785 8.70184L8.70951 8.44861C9.2827 7.98429 8.92657 7.51154 8.34283 7.04546L7.99199 6.76413Z" fill="#DCC3A1"/>
</svg>
