<svg width="18" height="21" viewBox="0 0 18 21" fill="none" xmlns="http://www.w3.org/2000/svg">
<path d="M18 18.5391C18 18.9921 17.6269 19.3594 17.1667 19.3594H16.3333V20.1797C16.3333 20.6327 15.9603 21 15.5 21C15.0398 21 14.6667 20.6327 14.6667 20.1797V19.3594H13.8333C13.3731 19.3594 13 18.9921 13 18.5391C13 18.086 13.3731 17.7188 13.8333 17.7188H14.6667V16.8984C14.6667 16.4454 15.0398 16.0781 15.5 16.0781C15.9603 16.0781 16.3333 16.4454 16.3333 16.8984V17.7188H17.1667C17.6269 17.7188 18 18.086 18 18.5391ZM18 5.74219V13.6172C18 14.0702 17.6269 14.4375 17.1667 14.4375C16.7064 14.4375 16.3333 14.0702 16.3333 13.6172V6.5625H14.6667V9.02344C14.6667 9.4765 14.2936 9.84375 13.8333 9.84375C13.3731 9.84375 13 9.4765 13 9.02344V6.5625H5V9.02344C5 9.4765 4.62692 9.84375 4.16667 9.84375C3.70642 9.84375 3.33333 9.4765 3.33333 9.02344V6.5625H1.66667V19.3594H10.5C10.9602 19.3594 11.3333 19.7266 11.3333 20.1797C11.3333 20.6327 10.9602 21 10.5 21H0.833333C0.373083 21 0 20.6327 0 20.1797V5.74219C0 5.28913 0.373083 4.92188 0.833333 4.92188H3.37275C3.70379 2.15426 6.10096 0 9 0C11.899 0 14.2962 2.15426 14.6272 4.92188H17.1667C17.6269 4.92188 18 5.28913 18 5.74219ZM12.9441 4.92188C12.6258 3.06202 10.9785 1.64062 9 1.64062C7.02154 1.64062 5.37421 3.06202 5.05588 4.92188H12.9441Z" fill="#7E7E7E"/>
</svg>
