<svg width="21" height="21" viewBox="0 0 21 21" fill="none" xmlns="http://www.w3.org/2000/svg">
<path d="M16.9596 8.21058V3.73821L18.9596 1.5564V9.04221H19.6263V0.678578H19.6233C19.6233 0.631669 19.618 0.584396 19.601 0.539305C19.5496 0.403305 19.4276 0.314941 19.293 0.314941H3.29297C3.2043 0.314941 3.11964 0.353123 3.0573 0.421487L0.390969 3.33021C0.330635 3.39603 0.292969 3.48694 0.292969 3.58767V17.4059C0.292969 17.6069 0.441969 17.7695 0.626302 17.7695H16.6263C16.8106 17.7695 16.9596 17.6069 16.9596 17.4059V13.0568C17.379 13.7269 17.6263 14.5349 17.6263 15.4059C17.6263 17.7117 15.9066 19.5877 13.793 19.5877C13.6086 19.5877 13.4596 19.7502 13.4596 19.9513C13.4596 20.1524 13.6086 20.3149 13.793 20.3149H14.4596C17.676 20.3149 20.293 17.46 20.293 13.9513C20.293 11.4193 18.927 9.23421 16.9596 8.21058ZM16.4883 3.22403H10.431L12.431 1.04221H18.4883L16.4883 3.22403ZM9.39064 3.33058C9.32797 3.39858 9.29297 3.49094 9.29297 3.58767V6.13312H7.95964V3.73821L10.431 1.04221H11.4883L9.39064 3.33058ZM3.43097 1.04221H9.4883L7.4883 3.22403H1.43097L3.43097 1.04221ZM0.959635 17.0422V3.95131H7.29297V6.49676C7.29297 6.69785 7.44197 6.8604 7.6263 6.8604H9.6263C9.81064 6.8604 9.95964 6.69785 9.95964 6.49676V3.95131H16.293V7.91458C15.7156 7.70512 15.1006 7.58767 14.4596 7.58767H13.9596V5.76949C13.9596 5.63312 13.89 5.5084 13.779 5.44585C13.6673 5.38331 13.534 5.39385 13.4326 5.47349L8.76597 9.10985C8.6783 9.17822 8.6263 9.2884 8.6263 9.40585C8.6263 9.5233 8.6783 9.63349 8.76597 9.70149L13.4326 13.3379C13.534 13.4171 13.6673 13.4269 13.779 13.3655C13.89 13.3033 13.9596 13.1786 13.9596 13.0422V11.228C14.849 11.2699 15.6606 11.6437 16.293 12.2386V17.0422H0.959635ZM16.9756 18.8731C17.7893 17.9844 18.293 16.7582 18.293 15.4059C18.293 12.6989 16.2743 10.4968 13.793 10.4968H13.6263C13.442 10.4968 13.293 10.6593 13.293 10.8604V12.3357L9.5333 9.40585L13.293 6.47603V7.95131C13.293 8.1524 13.442 8.31494 13.6263 8.31494H14.4596C17.3086 8.31494 19.6263 10.8433 19.6263 13.9513C19.6263 16.0637 18.556 17.908 16.9756 18.8731Z" fill="#FF2E00"/>
<path d="M1.6263 15.5877H5.6263V16.3149H1.6263V15.5877Z" fill="#FF2E00"/>
<path d="M1.6263 14.1331H5.6263V14.8604H1.6263V14.1331Z" fill="#FF2E00"/>
</svg>
