<svg width="45" height="41" viewBox="0 0 45 41" fill="none" xmlns="http://www.w3.org/2000/svg">
<path d="M41.8873 14.0901C41.3087 12.4091 41.5554 9.88573 40.0516 7.93738C38.536 5.97367 35.9001 5.41553 34.4117 4.39407C32.9389 3.38337 31.5687 1.18399 29.0914 0.42544C26.6839 -0.311732 24.2221 0.688601 22.3133 0.688601C20.4047 0.688601 17.943 -0.311973 15.5351 0.425359C13.0582 1.18374 11.687 3.38361 10.2151 4.39383C8.72834 5.41409 6.09043 5.97376 4.57511 7.93714C3.07264 9.88388 3.31678 12.413 2.73926 14.09C2.18965 15.6861 0.390625 17.6017 0.390625 20.0824C0.390625 22.5646 2.1876 24.4728 2.73926 26.0747C3.31781 27.7557 3.07118 30.2791 4.57494 32.2274C6.09043 34.1912 8.72628 34.7493 10.2149 35.7708C11.6874 36.7813 13.0578 38.9809 15.5351 39.7393C17.941 40.476 20.4067 39.4762 22.3133 39.4762C24.2172 39.4762 26.6886 40.475 29.0914 39.7394C31.5684 38.981 32.9388 36.7817 34.4114 35.771C35.8982 34.7507 38.5361 34.191 40.0514 32.2276C41.554 30.2808 41.3097 27.7519 41.8873 26.0747C42.4369 24.4786 44.2359 22.563 44.2359 20.0824C44.2359 17.6003 42.4394 15.6927 41.8873 14.0901ZM38.6279 25.0864C37.9535 27.045 38.1302 29.237 37.2773 30.3422C36.4129 31.4621 34.1419 31.9736 32.3895 33.1764C30.6564 34.3657 29.4416 36.2511 28.0288 36.6836C26.6922 37.0929 24.514 36.2618 22.3134 36.2618C20.0966 36.2618 17.9408 37.0947 16.5978 36.6836C15.1852 36.2511 13.9721 34.367 12.2371 33.1763C10.4951 31.9809 8.21119 31.4588 7.34927 30.3421C6.49908 29.2406 6.66906 27.0334 5.9988 25.0865C5.3418 23.1789 3.81604 21.5272 3.81604 20.0824C3.81604 18.6361 5.34043 16.9901 5.99863 15.0784C6.673 13.1198 6.49634 10.9277 7.34927 9.82257C8.21316 8.7034 10.4858 8.19017 12.2371 6.98839C13.9757 5.79521 15.1828 3.91435 16.5976 3.48116C17.9331 3.07232 20.1184 3.90294 22.3132 3.90294C24.534 3.90294 26.6844 3.0695 28.0287 3.48116C29.4412 3.91363 30.6553 5.79842 32.3895 6.98847C34.1313 8.1839 36.4154 8.70597 37.2773 9.82265C38.1276 10.9244 37.9567 13.1293 38.6277 15.0782V15.0783C39.2847 16.9859 40.8105 18.6375 40.8105 20.0824C40.8105 21.5287 39.2861 23.1747 38.6279 25.0864ZM30.204 14.924C30.8729 15.5517 30.8729 16.5692 30.204 17.1968L21.6314 25.2407C20.9625 25.8684 19.878 25.8683 19.2092 25.2407L14.4227 20.7494C13.7538 20.1218 13.7537 19.1042 14.4226 18.4767C15.0915 17.8491 16.176 17.849 16.8447 18.4767L20.4202 21.8316L27.7817 14.9241C28.4506 14.2965 29.5351 14.2965 30.204 14.924Z" fill="#BE7B51"/>
</svg>
