<svg width="34" height="32" viewBox="0 0 34 32" fill="none" xmlns="http://www.w3.org/2000/svg">
<path d="M10.6652 5.70713L9.25663 4.29287L5.97656 7.5858L4.68868 6.29287L3.28007 7.70713L5.97656 10.4142L10.6652 5.70713Z" fill="#FA6400"/>
<path d="M22.0469 12V6H13.8739C13.389 2.6122 10.4792 0 6.97266 0C3.12793 0 0 3.1402 0 7C0 8.90287 0.760617 10.6305 1.99219 11.8936V26H5.97656V30H10.1323C10.5435 31.1639 11.6506 32 12.9492 32C14.2478 32 15.355 31.1639 15.7662 30H24.2104C24.6216 31.1639 25.7288 32 27.0273 32C28.3259 32 29.4331 31.1639 29.8443 30H34V16.5858L29.4321 12H22.0469ZM6.97266 2C9.71889 2 11.9531 4.243 11.9531 7C11.9531 9.757 9.71889 12 6.97266 12C4.22643 12 1.99219 9.757 1.99219 7C1.99219 4.243 4.22643 2 6.97266 2ZM3.98438 13.3237C4.89062 13.757 5.90385 14 6.97266 14C10.4792 14 13.389 11.3878 13.8739 8H20.0547V24H3.98438V13.3237ZM12.9492 30C12.4 30 11.9531 29.5514 11.9531 29C11.9531 28.4486 12.4 28 12.9492 28C13.4985 28 13.9453 28.4486 13.9453 29C13.9453 29.5514 13.4985 30 12.9492 30ZM27.0273 30C26.4781 30 26.0312 29.5514 26.0312 29C26.0312 28.4486 26.4781 28 27.0273 28C27.5766 28 28.0234 28.4486 28.0234 29C28.0234 29.5514 27.5766 30 27.0273 30ZM29.8443 28C29.4331 26.8361 28.3259 26 27.0273 26C25.7288 26 24.6216 26.8361 24.2104 28H15.7662C15.355 26.8361 14.2478 26 12.9492 26C11.6506 26 10.5435 26.8361 10.1323 28H7.96875V26H22.0469V14H24.0391V22H32.0078V24H30.0156V26H32.0078V28H29.8443ZM32.0078 20H26.0312V14H28.6069L32.0078 17.4142V20Z" fill="#FA6400"/>
</svg>
