<svg width="25" height="25" viewBox="0 0 25 25" fill="none" xmlns="http://www.w3.org/2000/svg">
<path d="M11.7427 11.8709C12.5653 11.0484 12.5653 9.71024 11.7427 8.88792C10.9202 8.06541 9.58176 8.06559 8.75933 8.88792C7.93672 9.71024 7.93672 11.0484 8.75933 11.8709C9.58176 12.6932 10.9201 12.6934 11.7427 11.8709ZM9.75372 9.88218C10.028 9.60807 10.4741 9.60807 10.7483 9.88218C11.0224 10.1563 11.0224 10.6023 10.7483 10.8764C10.4741 11.1506 10.028 11.1507 9.75372 10.8764C9.47958 10.6023 9.47958 10.1563 9.75372 9.88218Z" fill="#FF2E00"/>
<path d="M19.6983 11.8709C20.5207 11.0484 20.5207 9.71024 19.6983 8.88792C18.8738 8.06358 17.5394 8.06339 16.715 8.88792C15.8923 9.71024 15.8923 11.0484 16.715 11.8709C17.5394 12.6952 18.8738 12.6952 19.6983 11.8709ZM17.7093 9.88218C17.9842 9.60752 18.429 9.60734 18.7037 9.88218C18.9781 10.1563 18.9781 10.6023 18.7037 10.8764C18.429 11.1513 17.9842 11.1513 17.7093 10.8764C17.4352 10.6023 17.4352 10.1563 17.7093 9.88218Z" fill="#FF2E00"/>
<path d="M14.5337 15.4889C14.6099 15.8701 14.9807 16.1166 15.3611 16.0404C15.742 15.9644 15.989 15.594 15.9129 15.2131L13.9239 5.26975C13.8477 4.88908 13.4773 4.64207 13.0965 4.71824C12.7156 4.79441 12.4688 5.16483 12.545 5.54551L14.5337 15.4889Z" fill="#FF2E00"/>
<path d="M8.86555 23.6968C9.68981 24.5209 11.0243 24.5211 11.8489 23.6968L12.8433 22.7023C13.1178 22.428 13.1178 21.9825 12.8433 21.708C12.5684 21.4332 12.5684 20.9886 12.8433 20.7136C13.1181 20.4389 13.5628 20.4388 13.8377 20.7136C14.1122 20.9881 14.5575 20.9883 14.8322 20.7136L23.676 11.8709C24.4986 11.0484 24.4986 9.71024 23.676 8.88792L15.7206 0.933266C14.8961 0.108925 13.5617 0.108742 12.7371 0.933266L3.89326 9.77598C3.76141 9.908 3.68724 10.0867 3.68724 10.2731C3.68724 10.4597 3.76141 10.6384 3.89326 10.7704C4.16795 11.0451 4.16814 11.4898 3.89326 11.7647C3.61912 12.0388 3.17302 12.0388 2.89869 11.7647C2.62419 11.4902 2.179 11.4902 1.90431 11.7647L0.909926 12.7589C0.0873162 13.5815 0.0873162 14.9196 0.909926 15.7421L8.86555 23.6968ZM1.90431 13.7534L2.48684 13.1711C3.06003 13.4441 3.73174 13.4438 4.30493 13.1708L4.88765 13.7534C5.16234 14.0281 5.60752 14.0281 5.88221 13.7534C6.15672 13.4787 6.15672 13.0336 5.88221 12.7591L5.30023 12.1772C5.57456 11.6045 5.57383 10.9284 5.30042 10.3577L13.7316 1.92753C14.0065 1.65287 14.4511 1.65287 14.726 1.92753L22.6818 9.88236C22.956 10.1565 22.956 10.6025 22.6818 10.8766L14.2506 19.3066C13.68 19.0336 13.0039 19.0325 12.4307 19.3068L11.8489 18.7251C11.5744 18.4504 11.129 18.4504 10.8545 18.7251C10.5798 18.9997 10.5798 19.4449 10.8545 19.7193L11.4363 20.3012C11.1622 20.874 11.1629 21.55 11.4361 22.1208L10.8545 22.7025C10.5796 22.9771 10.135 22.9771 9.85993 22.7025L1.90431 14.7477C1.63017 14.4735 1.63017 14.0275 1.90431 13.7534Z" fill="#FF2E00"/>
<path d="M8.86555 17.7306C9.14006 18.0053 9.58524 18.0053 9.85993 17.7306C10.1346 17.4562 10.1346 17.011 9.85993 16.7364L7.87098 14.7477C7.59647 14.4732 7.15129 14.4732 6.8766 14.7477C6.60191 15.0223 6.60191 15.4674 6.8766 15.7421L8.86555 17.7306Z" fill="#FF2E00"/>
</svg>
