<svg width="45" height="44" viewBox="0 0 45 44" fill="none" xmlns="http://www.w3.org/2000/svg">
<path d="M22.072 44C34.2223 44 44.072 34.1503 44.072 22C44.072 9.84974 34.2223 0 22.072 0C9.92176 0 0.0720215 9.84974 0.0720215 22C0.0720215 34.1503 9.92176 44 22.072 44Z" fill="#3A559F"/>
<path d="M29.042 19.395L28.5995 23.2275C28.5811 23.4024 28.4992 23.5644 28.3692 23.6829C28.2392 23.8013 28.0703 23.8679 27.8945 23.87H23.8945L23.8745 35.2325C23.8758 35.3671 23.8242 35.4969 23.7306 35.5937C23.637 35.6906 23.5091 35.7467 23.3745 35.75H19.322C19.2546 35.75 19.1879 35.7365 19.1259 35.7101C19.0639 35.6837 19.0079 35.6451 18.9612 35.5965C18.9145 35.548 18.8781 35.4905 18.8542 35.4275C18.8302 35.3645 18.8193 35.2973 18.822 35.23V23.87H15.822C15.7278 23.869 15.6347 23.8495 15.548 23.8125C15.4613 23.7756 15.3828 23.7219 15.3168 23.6545C15.2509 23.5872 15.1989 23.5076 15.1637 23.4201C15.1286 23.3327 15.111 23.2392 15.112 23.145L15.097 19.3125C15.0957 19.2179 15.113 19.1241 15.148 19.0362C15.1829 18.9483 15.2349 18.8682 15.3008 18.8004C15.3667 18.7326 15.4454 18.6785 15.5322 18.6411C15.6191 18.6037 15.7124 18.5838 15.807 18.5825H18.822V14.8825C18.822 10.5875 21.372 8.25 25.112 8.25H28.177C28.2718 8.25098 28.3654 8.27066 28.4525 8.3079C28.5397 8.34515 28.6186 8.39924 28.6848 8.46706C28.751 8.53488 28.8032 8.6151 28.8383 8.70312C28.8734 8.79115 28.8908 8.88524 28.8895 8.98V12.205C28.8908 12.2998 28.8734 12.3939 28.8383 12.4819C28.8032 12.5699 28.751 12.6501 28.6848 12.7179C28.6186 12.7858 28.5397 12.8398 28.4525 12.8771C28.3654 12.9143 28.2718 12.934 28.177 12.935H26.297C24.2645 12.935 23.8695 13.935 23.8695 15.38V18.5825H28.337C28.4386 18.5838 28.5388 18.6065 28.6309 18.6493C28.7231 18.692 28.8052 18.7538 28.8718 18.8306C28.9384 18.9073 28.988 18.9973 29.0173 19.0946C29.0466 19.1918 29.0551 19.2942 29.042 19.395Z" fill="white"/>
</svg>
