<svg width="44" height="44" viewBox="0 0 44 44" fill="none" xmlns="http://www.w3.org/2000/svg">
<path d="M22 44C34.1503 44 44 34.1503 44 22C44 9.84974 34.1503 0 22 0C9.84974 0 0 9.84974 0 22C0 34.1503 9.84974 44 22 44Z" fill="#3A559F"/>
<path d="M28.97 19.395L28.5275 23.2275C28.5091 23.4024 28.4272 23.5644 28.2972 23.6829C28.1672 23.8013 27.9983 23.8679 27.8225 23.87H23.8225L23.8025 35.2325C23.8038 35.3671 23.7521 35.4969 23.6586 35.5937C23.565 35.6906 23.4371 35.7467 23.3025 35.75H19.25C19.1826 35.75 19.1159 35.7365 19.0539 35.7101C18.9919 35.6837 18.9359 35.6451 18.8892 35.5965C18.8425 35.548 18.8061 35.4905 18.7821 35.4275C18.7582 35.3645 18.7473 35.2973 18.75 35.23V23.87H15.75C15.6557 23.869 15.5626 23.8495 15.476 23.8125C15.3893 23.7756 15.3107 23.7219 15.2448 23.6545C15.1789 23.5872 15.1269 23.5076 15.0917 23.4201C15.0566 23.3327 15.039 23.2392 15.04 23.145L15.025 19.3125C15.0237 19.2179 15.041 19.1241 15.0759 19.0362C15.1109 18.9483 15.1628 18.8682 15.2288 18.8004C15.2947 18.7326 15.3733 18.6785 15.4602 18.6411C15.547 18.6037 15.6404 18.5838 15.735 18.5825H18.75V14.8825C18.75 10.5875 21.3 8.25 25.04 8.25H28.105C28.1997 8.25098 28.2934 8.27066 28.3805 8.3079C28.4677 8.34515 28.5466 8.39924 28.6128 8.46706C28.679 8.53488 28.7311 8.6151 28.7663 8.70312C28.8014 8.79115 28.8188 8.88524 28.8175 8.98V12.205C28.8188 12.2998 28.8014 12.3939 28.7663 12.4819C28.7311 12.5699 28.679 12.6501 28.6128 12.7179C28.5466 12.7858 28.4677 12.8398 28.3805 12.8771C28.2934 12.9143 28.1997 12.934 28.105 12.935H26.225C24.1925 12.935 23.7975 13.935 23.7975 15.38V18.5825H28.265C28.3666 18.5838 28.4667 18.6065 28.5589 18.6493C28.6511 18.692 28.7332 18.7538 28.7998 18.8306C28.8664 18.9073 28.9159 18.9973 28.9453 19.0946C28.9746 19.1918 28.983 19.2942 28.97 19.395Z" fill="white"/>
</svg>
