<svg width="26" height="26" viewBox="0 0 26 26" fill="none" xmlns="http://www.w3.org/2000/svg">
<path d="M13 0C5.8203 0 0 5.8203 0 13C0 20.1797 5.8203 26 13 26C20.1797 26 26 20.1797 26 13C26 5.8203 20.1797 0 13 0ZM8.32813 5.16382C8.59597 5.14802 8.83807 5.30812 9.02161 5.59228L10.7989 8.96287C10.9861 9.36228 10.8797 9.78993 10.6006 10.0753L9.78651 10.8894C9.73626 10.9582 9.7032 11.0358 9.7024 11.1211C10.0146 12.3295 10.9616 13.4442 11.7972 14.2108C12.6327 14.9774 13.5307 16.0152 14.6964 16.2611C14.8405 16.3013 15.017 16.3157 15.1201 16.2199L16.0659 15.2566C16.3924 15.0092 16.8647 14.8892 17.2133 15.0916H17.2291L20.4362 16.9848C20.907 17.2798 20.9558 17.8502 20.6187 18.1972L18.4098 20.3887C18.0836 20.7232 17.6502 20.8357 17.2292 20.8362C15.367 20.7804 13.6074 19.8664 12.1622 18.9271C9.78987 17.2013 7.61382 15.0608 6.24769 12.4747C5.72375 11.3903 5.10826 10.0067 5.167 8.7963C5.17225 8.34095 5.29544 7.89486 5.61611 7.60136L7.82509 5.39238C7.99717 5.24595 8.1674 5.17331 8.32813 5.16382Z" fill="white"/>
</svg>
