<svg width="199" height="38" viewBox="0 0 199 38" fill="none" xmlns="http://www.w3.org/2000/svg">
<path fill-rule="evenodd" clip-rule="evenodd" d="M186.396 0.98291H12.6032C12.6032 3.56453 10.4906 5.65687 7.88508 5.65687H6.42306V10.3547C2.98501 10.6104 0.253906 14.4392 0.253906 19.1383C0.253906 23.8383 2.98501 27.6672 6.42306 27.9224V32.6202H7.88508C10.4906 32.6202 12.6032 34.713 12.6032 37.2942H186.396C186.396 34.713 188.509 32.6202 191.114 32.6202H192.576V27.9224C196.014 27.6667 198.746 23.8383 198.746 19.1383C198.746 14.4392 196.014 10.6104 192.576 10.3547V5.65687H191.114C188.509 5.65687 186.396 3.56453 186.396 0.98291Z" fill="black"/>
</svg>
