<svg width="28" height="22" viewBox="0 0 28 22" fill="none" xmlns="http://www.w3.org/2000/svg">
<path d="M27.0249 5.82181L18.135 0.795379C17.9801 0.707856 17.7924 0.707856 17.6375 0.795379L14.2945 2.68554C14.219 2.70716 14.1485 2.74687 14.0888 2.80175L8.74763 5.82181C8.58227 5.91537 8.47951 6.09415 8.47951 6.28833V7.37644H2.51631C2.23083 7.37644 1.99946 7.61489 1.99946 7.90864C1.99946 8.2026 2.23083 8.44085 2.51631 8.44085H8.47951V10.3568H5.51628C5.2308 10.3568 4.99943 10.5952 4.99943 10.889C4.99943 11.183 5.2308 11.4212 5.51628 11.4212H8.47951V14.1887H4.13794C3.85246 14.1887 3.62109 14.4271 3.62109 14.7209C3.62109 15.0148 3.85246 15.2531 4.13794 15.2531H8.47951V16.3414C8.47951 16.5356 8.58227 16.7144 8.74763 16.8079L17.6375 21.8344C17.715 21.8782 17.8006 21.9 17.8862 21.9C17.9718 21.9 18.0574 21.8782 18.135 21.8344L27.0249 16.8079C27.1902 16.7144 27.293 16.5356 27.293 16.3414V13.9581C27.293 13.6644 27.0616 13.4259 26.7761 13.4259C26.4906 13.4259 26.2593 13.6644 26.2593 13.9581V16.0264L18.4031 20.4685V11.6297L20.9016 10.2171V12.459C20.9016 12.6474 20.9981 12.8216 21.1553 12.9172C21.2363 12.9665 21.3274 12.9912 21.4184 12.9912C21.504 12.9912 21.5898 12.9694 21.6675 12.9253L23.5726 11.8457C23.7376 11.7522 23.8401 11.5736 23.8401 11.3794V8.55561L26.2593 7.18788V9.70047C26.2593 9.99443 26.4906 10.2327 26.7761 10.2327C27.0616 10.2327 27.293 9.99443 27.293 9.70047V6.28833C27.293 6.09415 27.1902 5.91537 27.0249 5.82181ZM17.3694 20.4685L9.51321 16.0264V7.18788L17.3694 11.6297V20.4685ZM17.8862 10.7077L10.0702 6.28833L12.5267 4.89939L20.3429 9.31878L17.8862 10.7077ZM21.4168 8.71153L13.6006 4.29214L14.448 3.81315L22.2639 8.23254L21.4168 8.71153ZM22.8064 11.0649L21.9353 11.5586V9.6327L22.8064 9.13999V11.0649ZM23.3378 7.62529L15.5218 3.2059L17.8862 1.86915L25.7022 6.28833L23.3378 7.62529Z" fill="#FF2E00"/>
<path d="M26.7761 11.2973C26.6402 11.2973 26.5068 11.3536 26.4107 11.4532C26.3146 11.5522 26.2593 11.689 26.2593 11.8295C26.2593 11.9694 26.3146 12.1068 26.4107 12.2058C26.5068 12.3047 26.6402 12.3617 26.7761 12.3617C26.912 12.3617 27.0454 12.3047 27.1415 12.2058C27.2376 12.1068 27.293 11.9694 27.293 11.8295C27.293 11.689 27.2376 11.5522 27.1415 11.4532C27.0454 11.3536 26.912 11.2973 26.7761 11.2973Z" fill="#FF2E00"/>
<path d="M2.08769 14.1887H1.34693C1.06145 14.1887 0.830078 14.4271 0.830078 14.7209C0.830078 15.0148 1.06145 15.2531 1.34693 15.2531H2.08769C2.37317 15.2531 2.60454 15.0148 2.60454 14.7209C2.60454 14.4271 2.37317 14.1887 2.08769 14.1887Z" fill="#FF2E00"/>
<path d="M3.96592 10.889C3.96592 10.7491 3.9106 10.6119 3.8143 10.5129C3.7182 10.4138 3.58495 10.3568 3.44907 10.3568C3.31299 10.3568 3.17974 10.4138 3.08364 10.5129C2.98693 10.6119 2.93222 10.7491 2.93222 10.889C2.93222 11.0291 2.98693 11.1663 3.08364 11.2653C3.17974 11.3642 3.31299 11.4212 3.44907 11.4212C3.58495 11.4212 3.7182 11.3644 3.8143 11.2653C3.9106 11.1663 3.96592 11.0291 3.96592 10.889Z" fill="#FF2E00"/>
</svg>
