<svg width="21" height="21" viewBox="0 0 21 21" fill="none" xmlns="http://www.w3.org/2000/svg">
<path d="M19.9145 16.07L14.9393 11.0947C14.6861 10.8414 14.3507 10.9462 14.4105 10.9343C13.8688 11.0423 13.3723 10.7088 13.0607 10.4234L15.1103 8.37372C16.5193 8.75731 18.0463 8.36177 19.0914 7.31653C20.3187 6.08923 20.6407 4.21302 19.8928 2.6479C19.7185 2.28321 19.2353 2.20071 18.9498 2.48622L17.0586 4.37747L16.3784 4.22872L16.2301 3.54868L18.1211 1.65755C18.407 1.37173 18.3237 0.888602 17.9594 0.714501C16.3938 -0.0335852 14.5176 0.288446 13.291 1.51583C12.2458 2.56102 11.8504 4.08825 12.234 5.49739L9.26898 8.46259L5.25063 4.44407L5.80305 3.89161C6.05356 3.64114 6.02591 3.22688 5.74466 3.01181L3.39689 1.21638C3.16357 1.03798 2.83427 1.05985 2.62662 1.26751L1.24553 2.64864C1.03787 2.8563 1.016 3.18563 1.1944 3.41892L2.98978 5.76681C3.20474 6.04798 3.61873 6.07599 3.86954 5.8252L4.42196 5.27278L8.44031 9.2913L5.47524 12.2565C4.06599 11.8728 2.53896 12.2682 1.49393 13.3133C0.26651 14.5401 -0.0555598 16.4163 0.692485 17.982C0.866664 18.3467 1.34987 18.4293 1.63549 18.1437L3.52654 16.2526L4.20654 16.4009L4.35532 17.0811L2.46412 18.9724C2.17838 19.2581 2.26139 19.7413 2.6258 19.9154C4.19134 20.6637 6.06743 20.341 7.2943 19.1141C8.33953 18.0688 8.73504 16.5417 8.35148 15.1328L10.4006 13.0836C11.1024 13.8516 10.9119 14.4336 10.9119 14.4336C10.8745 14.6217 10.9328 14.8222 11.0723 14.9618L16.0475 19.9372C16.5509 20.4406 17.3701 20.4406 17.8734 19.9372L19.9144 17.8961C20.4191 17.3915 20.4192 16.5747 19.9145 16.07ZM2.43693 3.11454L3.09252 2.45895L4.50118 3.53622L3.51416 4.52329L2.43693 3.11454ZM7.13578 15.1782C7.54094 16.2534 7.27793 17.4731 6.46571 18.2854C5.80298 18.9481 4.87583 19.2413 3.97954 19.1143L5.41056 17.6832C5.55173 17.5421 5.6113 17.3387 5.56864 17.1437L5.27118 15.7833C5.22227 15.5595 5.04743 15.3848 4.82364 15.336L3.46357 15.0393C3.26873 14.9967 3.06548 15.0564 2.92439 15.1975L1.49361 16.6283C1.36651 15.732 1.65975 14.8045 2.32252 14.142C3.1347 13.3298 4.35447 13.0669 5.42985 13.4722C5.64516 13.5533 5.88813 13.5009 6.05083 13.3382L13.3158 6.07294C13.4785 5.9102 13.531 5.66731 13.4498 5.45196C13.0445 4.37645 13.3074 3.15665 14.1197 2.34434C14.7822 1.68153 15.7097 1.38841 16.6058 1.51552L15.175 2.94641C15.034 3.08747 14.9743 3.29067 15.0169 3.48559L15.3135 4.84571C15.3623 5.0695 15.537 5.24438 15.7608 5.29329L17.1211 5.59079C17.3161 5.63337 17.5195 5.57384 17.6606 5.43267L19.0917 4.00161C19.2187 4.89767 18.9254 5.82517 18.2628 6.48786C17.4505 7.30013 16.231 7.56321 15.1556 7.15798C14.9403 7.07685 14.6974 7.12927 14.5347 7.29196C14.4663 7.36036 7.44711 14.3799 7.26973 14.5572C7.10703 14.7199 7.05461 14.9628 7.13578 15.1782ZM12.2322 11.2519C12.4879 11.4905 12.8411 11.7606 13.2683 11.9371L11.9146 13.2909C11.7381 12.8637 11.4681 12.5103 11.2296 12.2546L12.2322 11.2519ZM19.0859 17.0674L17.0449 19.1085C16.9984 19.155 16.9227 19.155 16.8762 19.1085L12.3153 14.5474L14.525 12.3376L19.0859 16.8987C19.1325 16.9454 19.1326 17.0207 19.0859 17.0674Z" fill="#FF2E00"/>
</svg>
