<svg width="24" height="30" viewBox="0 0 24 30" fill="none" xmlns="http://www.w3.org/2000/svg">
<path d="M17.0523 28.4878L22.6729 23.1116C23.406 22.5007 23.8947 21.401 23.8947 20.3014V4.05069C23.8947 1.97354 22.1841 0.262939 20.107 0.262939H4.71158C2.63443 0.262939 0.923828 1.97354 0.923828 4.05069V25.7997C0.923828 27.8769 2.63443 29.5875 4.71158 29.5875H14.4864C15.4639 29.5875 16.4414 29.0987 17.0523 28.4878ZM9.72119 3.92851C10.4543 3.92851 10.943 4.53943 10.943 5.15036C10.943 5.88347 10.4543 6.37222 9.72119 6.37222C8.98807 6.37222 8.49933 5.88347 8.49933 5.15036C8.49933 4.53943 9.11026 3.92851 9.72119 3.92851ZM4.95595 15.5361L8.37715 9.18248C8.62152 8.69374 9.35463 8.69374 9.72119 9.18248L10.943 11.504L13.7533 6.4944C13.9977 6.00566 14.7308 6.00566 15.0974 6.4944L20.107 15.5361C20.3513 16.0249 19.9848 16.6358 19.496 16.6358H5.56688C4.95595 16.6358 4.58939 16.0249 4.95595 15.5361ZM14.4864 27.1438H14.2421V22.5007C14.2421 21.2788 15.2195 20.1792 16.5636 20.1792H21.451V20.4235C21.451 20.7901 21.2066 21.1567 20.9623 21.401L15.3417 26.7772C15.2195 27.0216 14.853 27.1438 14.4864 27.1438Z" fill="white"/>
</svg>
