<svg width="18" height="14" viewBox="0 0 18 14" fill="none" xmlns="http://www.w3.org/2000/svg">
<path d="M6.8665 7.57453L8.29028 9.12824C8.86765 9.75838 9.88354 9.77196 10.4734 9.12824L11.8972 7.57453L17.0111 13.1543C16.8207 13.25 16.6108 13.3071 16.3877 13.3071H2.37598C2.15285 13.3071 1.94304 13.2501 1.75275 13.1543L6.8665 7.57453Z" fill="black"/>
<path d="M2.37598 0.307129H16.3877C16.6108 0.307129 16.8207 0.364257 17.011 0.459987L11.5465 6.42276C11.5461 6.42316 11.5457 6.42323 11.5454 6.42363C11.545 6.42403 11.5449 6.42457 11.5449 6.42457L9.76812 8.36337C9.57939 8.56863 9.18421 8.56863 8.99549 8.36337L7.21905 6.42489C7.21905 6.42489 7.21862 6.42403 7.21825 6.42363C7.21825 6.42363 7.21746 6.42316 7.21709 6.42276L1.75275 0.459951C1.94304 0.364185 2.15285 0.307129 2.37598 0.307129Z" fill="black"/>
<path d="M17.7229 1.21756C17.8214 1.43416 17.8818 1.67458 17.8818 1.93213V11.6821C17.8818 11.9397 17.8215 12.1801 17.723 12.3967L12.6003 6.80731L17.7229 1.21756Z" fill="black"/>
<path d="M1.04075 1.21749L6.16336 6.80731L1.04075 12.3968C0.942266 12.1802 0.881836 11.9397 0.881836 11.6821V1.93213C0.881836 1.67451 0.942266 1.43408 1.04075 1.21749Z" fill="black"/>
</svg>
