<svg width="28" height="24" viewBox="0 0 28 24" fill="none" xmlns="http://www.w3.org/2000/svg">
<path fill-rule="evenodd" clip-rule="evenodd" d="M23.8748 2.21911C20.8912 0.902029 17.2398 0.413818 14 0.413818C10.7602 0.413818 7.10902 0.902029 4.12578 2.21911C2.42035 2.97175 0.0351562 4.44308 0.0351562 6.57829C0.0351562 7.27825 0.901492 9.1504 1.19067 9.81341L1.20915 9.85569C1.34388 10.1718 1.58882 10.4282 1.89844 10.5773C2.20805 10.7264 2.56126 10.758 2.89241 10.6662L6.80798 9.61712C7.17449 9.51822 7.48686 9.27807 7.67664 8.94928C7.86643 8.6205 7.91816 8.2299 7.82049 7.86305L7.74891 7.59544C7.66214 7.27154 7.64507 6.93292 7.69882 6.60194C7.75256 6.27095 7.87591 5.95513 8.0607 5.67532C8.24549 5.39551 8.48753 5.15809 8.77084 4.97871C9.05415 4.79934 9.37228 4.68209 9.70424 4.63473C12.5544 4.2385 15.4457 4.2385 18.2958 4.63473C18.6278 4.68211 18.9459 4.79936 19.2292 4.97873C19.5125 5.1581 19.7545 5.39552 19.9393 5.67532C20.1241 5.95511 20.2474 6.27091 20.3012 6.60188C20.355 6.93285 20.3379 7.27146 20.2512 7.59536L20.1796 7.86297C20.0819 8.22981 20.1336 8.62042 20.3234 8.94921C20.5132 9.278 20.8255 9.51818 21.192 9.61712L25.1075 10.6662C25.2316 10.6997 25.3596 10.7169 25.4882 10.7171C25.7659 10.717 26.0374 10.6353 26.269 10.4821C26.5006 10.3289 26.6821 10.1111 26.7909 9.8556L26.8096 9.81263C27.0985 9.15005 27.9649 7.27747 27.9649 6.5782C27.9649 4.443 25.5799 2.97166 23.8748 2.21902V2.21911ZM25.535 16.7855C26.1365 17.1636 26.3477 17.8372 26.3477 18.5198V22.3243C26.3469 22.7334 26.1841 23.1255 25.8948 23.4147C25.6055 23.704 25.2133 23.8668 24.8042 23.8675H3.19602C2.78693 23.8668 2.39477 23.704 2.10547 23.4148C1.81617 23.1255 1.65331 22.7334 1.65259 22.3243V18.5199C1.65259 17.8373 1.86416 17.1636 2.4653 16.7856L11.035 11.3965V9.17583C11.0354 8.99637 11.1069 8.82439 11.2338 8.69749C11.3607 8.57059 11.5327 8.4991 11.7122 8.49865H16.2881C16.4675 8.4991 16.6395 8.57059 16.7664 8.69749C16.8933 8.82439 16.9648 8.99637 16.9653 9.17583V11.3965L25.535 16.7856V16.7855ZM14 12.9689C13.1324 12.9689 12.2843 13.2262 11.5629 13.7082C10.8415 14.1902 10.2792 14.8753 9.94718 15.6769C9.61514 16.4784 9.52826 17.3604 9.69751 18.2114C9.86676 19.0623 10.2845 19.8439 10.898 20.4574C11.5115 21.0709 12.2931 21.4887 13.1441 21.658C13.995 21.8273 14.877 21.7404 15.6786 21.4084C16.4802 21.0764 17.1653 20.5141 17.6473 19.7927C18.1293 19.0714 18.3866 18.2232 18.3866 17.3556C18.3853 16.1926 17.9228 15.0776 17.1004 14.2552C16.278 13.4328 15.163 12.9702 14 12.9689ZM14 19.8802C14.4993 19.8802 14.9874 19.7321 15.4025 19.4546C15.8176 19.1772 16.1412 18.7829 16.3322 18.3216C16.5233 17.8602 16.5732 17.3526 16.4758 16.8629C16.3783 16.3732 16.1379 15.9234 15.7848 15.5704C15.4317 15.2173 14.9819 14.9769 14.4922 14.8795C14.0025 14.7821 13.4949 14.8321 13.0336 15.0232C12.5723 15.2143 12.178 15.5379 11.9006 15.9531C11.6232 16.3682 11.4752 16.8563 11.4752 17.3556C11.4759 18.025 11.7421 18.6668 12.2155 19.1401C12.6888 19.6134 13.3306 19.8795 14 19.8802Z" fill="white"/>
</svg>
