<svg width="45" height="44" viewBox="0 0 45 44" fill="none" xmlns="http://www.w3.org/2000/svg">
<path fill-rule="evenodd" clip-rule="evenodd" d="M22.072 0C34.2224 0 44.072 9.84956 44.072 22C44.072 34.1504 34.2224 44 22.072 44C9.92166 44 0.0720215 34.1502 0.0720215 22C0.0720215 9.84981 9.92192 0 22.072 0Z" fill="#F44336"/>
<path fill-rule="evenodd" clip-rule="evenodd" d="M31.9468 11.2191C28.9632 9.90203 25.3119 9.41382 22.072 9.41382C18.8322 9.41382 15.181 9.90203 12.1978 11.2191C10.4924 11.9717 8.10718 13.4431 8.10718 15.5783C8.10718 16.2782 8.97351 18.1504 9.26269 18.8134L9.28117 18.8557C9.4159 19.1718 9.66084 19.4282 9.97046 19.5773C10.2801 19.7264 10.6333 19.758 10.9644 19.6662L14.88 18.6171C15.2465 18.5182 15.5589 18.2781 15.7487 17.9493C15.9385 17.6205 15.9902 17.2299 15.8925 16.8631L15.8209 16.5954C15.7342 16.2715 15.7171 15.9329 15.7708 15.6019C15.8246 15.2709 15.9479 14.9551 16.1327 14.6753C16.3175 14.3955 16.5596 14.1581 16.8429 13.9787C17.1262 13.7993 17.4443 13.6821 17.7763 13.6347C20.6264 13.2385 23.5177 13.2385 26.3679 13.6347C26.6998 13.6821 27.0179 13.7994 27.3012 13.9787C27.5845 14.1581 27.8265 14.3955 28.0113 14.6753C28.1961 14.9551 28.3195 15.2709 28.3732 15.6019C28.427 15.9329 28.4099 16.2715 28.3232 16.5954L28.2516 16.863C28.1539 17.2298 28.2057 17.6204 28.3954 17.9492C28.5852 18.278 28.8975 18.5182 29.264 18.6171L33.1795 19.6662C33.3037 19.6997 33.4316 19.7169 33.5602 19.7171C33.8379 19.717 34.1094 19.6353 34.341 19.4821C34.5727 19.3289 34.7541 19.1111 34.863 18.8556L34.8816 18.8126C35.1705 18.1501 36.037 16.2775 36.037 15.5782C36.037 13.443 33.6519 11.9717 31.9468 11.219V11.2191ZM33.607 25.7855C34.2085 26.1636 34.4197 26.8372 34.4197 27.5198V31.3243C34.4189 31.7334 34.2561 32.1255 33.9668 32.4147C33.6775 32.704 33.2853 32.8668 32.8763 32.8675H11.268C10.8589 32.8668 10.4668 32.704 10.1775 32.4148C9.88819 32.1255 9.72533 31.7334 9.72461 31.3243V27.5199C9.72461 26.8373 9.93619 26.1636 10.5373 25.7856L19.107 20.3965V18.1758C19.1075 17.9964 19.179 17.8244 19.3059 17.6975C19.4327 17.5706 19.6047 17.4991 19.7842 17.4986H24.3601C24.5396 17.4991 24.7115 17.5706 24.8384 17.6975C24.9653 17.8244 25.0368 17.9964 25.0373 18.1758V20.3965L33.607 25.7856V25.7855ZM22.072 21.9689C21.2044 21.9689 20.3563 22.2262 19.6349 22.7082C18.9135 23.1902 18.3512 23.8753 18.0192 24.6769C17.6872 25.4784 17.6003 26.3604 17.7695 27.2114C17.9388 28.0623 18.3566 28.8439 18.9701 29.4574C19.5835 30.0709 20.3652 30.4887 21.2161 30.658C22.067 30.8273 22.9491 30.7404 23.7506 30.4084C24.5522 30.0764 25.2373 29.5141 25.7193 28.7927C26.2013 28.0714 26.4586 27.2232 26.4586 26.3556C26.4574 25.1926 25.9948 24.0776 25.1724 23.2552C24.3501 22.4328 23.235 21.9702 22.072 21.9689ZM22.072 28.8802C22.5713 28.8802 23.0594 28.7321 23.4745 28.4546C23.8897 28.1772 24.2132 27.7829 24.4043 27.3216C24.5953 26.8602 24.6453 26.3526 24.5478 25.8629C24.4504 25.3732 24.2099 24.9234 23.8568 24.5704C23.5037 24.2173 23.0539 23.9769 22.5642 23.8795C22.0745 23.7821 21.5669 23.8321 21.1056 24.0232C20.6443 24.2143 20.25 24.5379 19.9726 24.9531C19.6952 25.3682 19.5472 25.8563 19.5472 26.3556C19.5479 27.025 19.8142 27.6668 20.2875 28.1401C20.7609 28.6134 21.4026 28.8795 22.072 28.8802Z" fill="white"/>
</svg>
