<svg width="18" height="16" viewBox="0 0 18 16" fill="none" xmlns="http://www.w3.org/2000/svg">
<path d="M9.28842 3.04716C6.42395 3.07728 4.62949 2.88627 4.38712 6.28899H0.894069C0.894069 1.01765 5.18367 0.307129 9.37936 0.307129C13.5754 0.307129 17.8646 1.01765 17.8646 6.28899H14.3987C14.1305 2.82142 12.1291 3.01739 9.28842 3.04716Z" fill="black"/>
<path d="M16.1323 7.98361C15.2816 7.98361 14.5736 8.03818 14.4162 7.14126C14.3951 7.01935 14.3828 6.88115 14.3828 6.72132H17.8818C17.8818 8.05555 17.0985 7.98361 16.1323 7.98361Z" fill="black"/>
<path d="M4.39737 6.72132C4.39737 6.88221 4.38447 7.02077 4.36033 7.14126C4.19434 7.96837 3.4874 7.91699 2.6396 7.91699C1.6688 7.91699 0.881835 7.98538 0.881835 6.72132H4.39737Z" fill="black"/>
<path d="M6.07114 5.28256C6.07114 5.04548 6.32608 5.0306 6.64087 5.0306H7.15503C7.46949 5.0306 7.72442 5.04548 7.72442 5.28256V6.09372H11.3616V5.28256C11.3616 5.04548 11.6166 5.0306 11.931 5.0306H12.4455C12.76 5.0306 13.0149 5.04548 13.0149 5.28256V6.27552C13.8435 7.19831 16.5549 11.1266 16.6535 11.6021L16.6521 14.7756C16.6521 15.0686 16.4296 15.3071 16.1561 15.3071H2.92992C2.65646 15.3071 2.43393 15.0686 2.43393 14.7756V11.5862C2.53148 11.1244 5.24219 7.19796 6.07114 6.27516V5.28256ZM11.5409 12.0292C11.807 12.0292 12.0229 11.7981 12.0229 11.5125C12.0229 11.2269 11.807 10.9958 11.5409 10.9958C11.2747 10.9958 11.0588 11.2269 11.0588 11.5125C11.0588 11.7981 11.2747 12.0292 11.5409 12.0292ZM11.5409 10.2573C11.807 10.2573 12.0229 10.0262 12.0229 9.7406C12.0229 9.45497 11.807 9.22392 11.5409 9.22392C11.2747 9.22392 11.0588 9.45497 11.0588 9.7406C11.0588 10.0262 11.2747 10.2573 11.5409 10.2573ZM11.5409 8.48576C11.807 8.48576 12.0229 8.25471 12.0229 7.96908C12.0229 7.68381 11.807 7.4524 11.5409 7.4524C11.2747 7.4524 11.0588 7.68381 11.0588 7.96908C11.0588 8.25471 11.2747 8.48576 11.5409 8.48576ZM9.55692 12.0292C9.8231 12.0292 10.039 11.7981 10.039 11.5125C10.039 11.2269 9.8231 10.9958 9.55692 10.9958C9.29041 10.9958 9.07482 11.2269 9.07482 11.5125C9.07482 11.7981 9.29041 12.0292 9.55692 12.0292ZM9.55692 10.2573C9.8231 10.2573 10.039 10.0262 10.039 9.7406C10.039 9.45497 9.8231 9.22392 9.55692 9.22392C9.29041 9.22392 9.07482 9.45497 9.07482 9.7406C9.07482 10.0262 9.29041 10.2573 9.55692 10.2573ZM9.55692 8.48576C9.8231 8.48576 10.039 8.25471 10.039 7.96908C10.039 7.68381 9.8231 7.4524 9.55692 7.4524C9.29041 7.4524 9.07482 7.68381 9.07482 7.96908C9.07482 8.25471 9.29041 8.48576 9.55692 8.48576ZM7.57298 12.0292C7.83949 12.0292 8.05508 11.7981 8.05508 11.5125C8.05508 11.2269 7.83949 10.9958 7.57298 10.9958C7.30647 10.9958 7.09089 11.2269 7.09089 11.5125C7.09089 11.7981 7.30647 12.0292 7.57298 12.0292ZM7.57298 10.2573C7.83949 10.2573 8.05508 10.0262 8.05508 9.7406C8.05508 9.45497 7.83949 9.22392 7.57298 9.22392C7.30647 9.22392 7.09089 9.45497 7.09089 9.7406C7.09089 10.0262 7.30647 10.2573 7.57298 10.2573ZM7.57298 8.48576C7.83949 8.48576 8.05508 8.25471 8.05508 7.96908C8.05508 7.68381 7.83949 7.4524 7.57298 7.4524C7.30647 7.4524 7.09089 7.68381 7.09089 7.96908C7.09089 8.25471 7.30647 8.48576 7.57298 8.48576Z" fill="black"/>
</svg>
