<svg width="14" height="19" viewBox="0 0 14 19" fill="none" xmlns="http://www.w3.org/2000/svg">
<path d="M7.38184 0.307129C10.9659 0.307129 13.8818 3.11392 13.8818 6.56384C13.8818 10.9 7.37544 18.3071 7.37544 18.3071C7.37544 18.3071 0.881836 10.6868 0.881836 6.56384C0.881836 3.11392 3.79765 0.307129 7.38184 0.307129ZM5.42065 8.39581C5.96142 8.91624 6.67157 9.1765 7.38184 9.1765C8.09199 9.1765 8.80236 8.91624 9.34291 8.39581C10.4243 7.35497 10.4243 5.66132 9.34291 4.62036C8.81925 4.11609 8.12269 3.83835 7.38184 3.83835C6.64098 3.83835 5.94453 4.1162 5.42065 4.62036C4.33922 5.66132 4.33922 7.35497 5.42065 8.39581Z" fill="black"/>
</svg>
