<svg width="24" height="30" viewBox="0 0 24 30" fill="none" xmlns="http://www.w3.org/2000/svg">
<path d="M17.1246 28.4878L22.7451 23.1116C23.4782 22.5007 23.967 21.401 23.967 20.3014V4.05069C23.967 1.97354 22.2564 0.262939 20.1792 0.262939H4.78385C2.70669 0.262939 0.996094 1.97354 0.996094 4.05069V25.7997C0.996094 27.8769 2.70669 29.5875 4.78385 29.5875H14.5587C15.5362 29.5875 16.5137 29.0987 17.1246 28.4878ZM9.79345 3.92851C10.5266 3.92851 11.0153 4.53943 11.0153 5.15036C11.0153 5.88347 10.5266 6.37222 9.79345 6.37222C9.06034 6.37222 8.5716 5.88347 8.5716 5.15036C8.5716 4.53943 9.18253 3.92851 9.79345 3.92851ZM5.02822 15.5361L8.44941 9.18248C8.69378 8.69374 9.4269 8.69374 9.79345 9.18248L11.0153 11.504L13.8256 6.4944C14.0699 6.00566 14.8031 6.00566 15.1696 6.4944L20.1792 15.5361C20.4236 16.0249 20.057 16.6358 19.5683 16.6358H5.63914C5.02822 16.6358 4.66166 16.0249 5.02822 15.5361ZM14.5587 27.1438H14.3143V22.5007C14.3143 21.2788 15.2918 20.1792 16.6358 20.1792H21.5233V20.4235C21.5233 20.7901 21.2789 21.1567 21.0345 21.401L15.414 26.7772C15.2918 27.0216 14.9252 27.1438 14.5587 27.1438Z" fill="white"/>
</svg>
