<svg width="56" height="34" viewBox="0 0 56 34" fill="none" xmlns="http://www.w3.org/2000/svg">
<path d="M55.5587 8.42616C55.2379 8.07409 54.7799 7.87206 54.303 7.87206H53.1362C52.9149 7.87206 52.6996 7.90147 52.4932 7.95432V3.44224C52.4932 1.54423 50.9453 0 49.0424 0H30.6301C29.5774 0 28.6336 0.473542 28 1.21774C27.3668 0.473542 26.423 0 25.3699 0H6.95765C5.05469 0 3.50678 1.54423 3.50678 3.44224V7.95432C3.30084 7.90147 3.08508 7.87206 2.86377 7.87206H1.69696C1.22015 7.87206 0.762139 8.07409 0.441277 8.42616C0.120414 8.77822 -0.0376673 9.25219 0.00762088 9.72573L1.51837 25.553C1.64483 26.8781 2.7467 27.8772 4.08057 27.8772H4.2583L3.51532 33.0661C3.48157 33.301 3.55164 33.5388 3.70758 33.7178C3.86353 33.8969 4.08954 34 4.32709 34H6.08094C6.40907 34 6.70557 33.8048 6.8346 33.5039L9.25197 27.8772H10.4645C10.9174 27.8772 11.2848 27.5111 11.2848 27.0588C11.2848 26.607 10.9174 26.2405 10.4645 26.2405H4.08057C3.59692 26.2405 3.19745 25.8782 3.15173 25.3978L1.64056 9.57059C1.64013 9.56377 1.63842 9.54586 1.65509 9.52711C1.67218 9.50878 1.69012 9.50878 1.69696 9.50878H2.86377C3.31494 9.50878 3.70117 9.83059 3.78192 10.2734L5.26062 18.3859V19.1868C5.26062 20.6027 6.41505 21.7544 7.83436 21.7544H26.2466C26.9238 21.7544 27.5403 21.4918 28 21.0639C28.4601 21.4918 29.0767 21.7544 29.7534 21.7544H48.1656C49.585 21.7544 50.7394 20.6027 50.7394 19.1868V18.3859L52.2181 10.2734C52.2988 9.83016 52.6851 9.50878 53.1362 9.50878H54.303C54.3099 9.50878 54.3278 9.50878 54.3449 9.52711C54.3616 9.54586 54.3599 9.56377 54.3594 9.57059L52.8483 25.3978C52.8026 25.8782 52.4031 26.2405 51.9194 26.2405H13.9718C13.5189 26.2405 13.1515 26.607 13.1515 27.0588C13.1515 27.5111 13.5189 27.8772 13.9718 27.8772H46.748L49.1654 33.5039C49.2944 33.8048 49.5914 34 49.9195 34H51.6729C51.9105 34 52.1365 33.8969 52.2924 33.7178C52.4484 33.5388 52.5184 33.301 52.4851 33.0661L51.7421 27.8772H51.9194C53.2533 27.8772 54.3552 26.8781 54.4816 25.553L55.9924 9.72573C56.0377 9.25176 55.8796 8.77822 55.5587 8.42616ZM5.54004 32.3633H5.27302L5.91559 27.8772H7.46693L5.54004 32.3633ZM6.95765 1.63673H25.3699C26.3679 1.63673 27.1797 2.44699 27.1797 3.44224V13.064C27.1797 13.5772 26.761 13.9949 26.2466 13.9949H7.83436C7.2281 13.9949 6.67054 14.2054 6.23005 14.5566L5.39606 9.98062C5.34906 9.72318 5.26276 9.48193 5.1474 9.25944V3.44224C5.1474 2.44656 5.9596 1.63673 6.95765 1.63673ZM26.2466 20.1177H7.83436C7.31953 20.1177 6.90125 19.7 6.90125 19.1868V16.5629C6.90125 16.0493 7.31996 15.6316 7.83436 15.6316H26.2466C26.761 15.6316 27.1797 16.0493 27.1797 16.5629V19.1868C27.1797 19.7 26.761 20.1177 26.2466 20.1177ZM49.0992 19.1868C49.0992 19.7 48.6805 20.1177 48.1656 20.1177H29.7534C29.239 20.1177 28.8203 19.7 28.8203 19.1868V16.5625C28.8203 16.0493 29.239 15.6316 29.7534 15.6316H43.7817C44.2345 15.6316 44.602 15.2655 44.602 14.8132C44.602 14.3614 44.2345 13.9949 43.7817 13.9949H29.7534C29.239 13.9949 28.8203 13.5772 28.8203 13.064V3.44267C28.8203 2.44699 29.6321 1.63673 30.6301 1.63673H49.0424C50.0404 1.63673 50.8522 2.44699 50.8522 3.44267V9.25944C50.7368 9.48193 50.6505 9.72318 50.6039 9.98062L49.77 14.5571C49.3295 14.2058 48.7719 13.9949 48.1656 13.9949H47.2894C46.836 13.9949 46.469 14.3614 46.469 14.8132C46.469 15.2655 46.836 15.6316 47.2894 15.6316H48.1656C48.6805 15.6316 49.0987 16.0493 49.0987 16.5625L49.0992 19.1868ZM50.727 32.3633H50.46L48.5331 27.8772H50.0844L50.727 32.3633Z" fill="black"/>
</svg>
