<svg width="51" height="35" viewBox="0 0 51 35" fill="none" xmlns="http://www.w3.org/2000/svg">
<path d="M0 7.19579C0 5.41024 0.75592 3.69783 2.10147 2.43526C3.44701 1.17268 5.27197 0.463379 7.17486 0.463379H43.0491C44.952 0.463379 46.777 1.17268 48.1225 2.43526C49.4681 3.69783 50.224 5.41024 50.224 7.19579V27.393C50.224 29.1786 49.4681 30.891 48.1225 32.1535C46.777 33.4161 44.952 34.1254 43.0491 34.1254H7.17486C5.27197 34.1254 3.44701 33.4161 2.10147 32.1535C0.75592 30.891 0 29.1786 0 27.393V7.19579ZM46.6366 7.19579C46.6366 6.30301 46.2586 5.44681 45.5858 4.81552C44.9131 4.18424 44.0006 3.82958 43.0491 3.82958H7.17486C6.22341 3.82958 5.31094 4.18424 4.63816 4.81552C3.96539 5.44681 3.58743 6.30301 3.58743 7.19579V10.562H46.6366V7.19579ZM3.58743 27.393C3.58743 28.2858 3.96539 29.142 4.63816 29.7733C5.31094 30.4046 6.22341 30.7592 7.17486 30.7592H43.0491C44.0006 30.7592 44.9131 30.4046 45.5858 29.7733C46.2586 29.142 46.6366 28.2858 46.6366 27.393V13.9282H3.58743V27.393Z" fill="#BE7B51"/>
</svg>
