<svg width="47" height="35" viewBox="0 0 47 35" fill="none" xmlns="http://www.w3.org/2000/svg">
<path d="M40.2821 22.5519C40.0617 21.1149 38.8793 19.9947 37.3571 19.6607C31.4404 18.3595 29.9572 15.1624 29.707 11.6163C28.6577 11.4332 26.7911 11.235 23.6227 11.235C20.4543 11.235 18.5877 11.4332 17.5384 11.6163C17.2882 15.1624 15.805 18.3595 9.8883 19.6607C8.36608 19.9968 7.18367 21.1149 6.96326 22.5519L5.82217 29.9672C5.42038 32.5783 7.46377 34.9331 10.3062 34.9331H36.9392C39.7793 34.9331 41.825 32.5783 41.4232 29.9672L40.2821 22.5519ZM23.6227 29.5299C20.4198 29.5299 17.8231 27.117 17.8231 24.144C17.8231 21.1709 20.4198 18.758 23.6227 18.758C26.8256 18.758 29.4223 21.1709 29.4223 24.144C29.4223 27.117 26.8233 29.5299 23.6227 29.5299ZM46.4674 9.08062C46.4123 5.84906 37.6464 0.465289 23.6227 0.463135C9.59671 0.465289 0.830763 5.84906 0.777956 9.08062C0.72515 12.3122 0.826172 16.5175 6.5982 15.8173C13.3506 14.9965 12.935 12.784 12.935 9.62136C12.935 7.41529 18.427 6.88316 23.6227 6.88316C28.8184 6.88316 34.3081 7.41529 34.3104 9.62136C34.3104 12.784 33.8948 14.9965 40.6472 15.8173C46.4169 16.5175 46.5202 12.3122 46.4674 9.08062Z" fill="#BE7B51"/>
</svg>
