<svg width="28" height="24" viewBox="0 0 28 24" fill="none" xmlns="http://www.w3.org/2000/svg">
<path d="M3.674 23.336C3.674 23.336 3.65 23.94 4.24 23.94C4.974 23.94 11.051 23.932 11.051 23.932L11.061 18.351C11.061 18.351 10.965 17.431 11.858 17.431H14.684C15.74 17.431 15.675 18.351 15.675 18.351L15.663 23.914C15.663 23.914 21.425 23.914 22.33 23.914C23.079 23.914 23.045 23.162 23.045 23.162V12.873L13.649 4.515L3.674 12.873V23.336Z" fill="white"/>
<path d="M0 12.095C0 12.095 0.847 13.656 2.694 12.095L13.732 2.757L24.081 12.037C26.219 13.579 27.02 12.037 27.02 12.037L13.732 0L0 12.095Z" fill="white"/>
<path d="M23.83 2.735H21.168L21.179 5.963L23.83 8.212V2.735Z" fill="white"/>
</svg>
