<svg width="271" height="199" viewBox="0 0 271 199" fill="none" xmlns="http://www.w3.org/2000/svg">
<path fill-rule="evenodd" clip-rule="evenodd" d="M135.629 112.623L68.8066 28.6256L91.1735 0.508789H107.441L146.893 50.1619L135.621 64.329L95.3368 13.6895L83.3887 28.6296L135.595 94.3367L158.919 65.0159L158.932 65.0332L187.802 28.7077L182.703 22.2988L182.704 22.297L175.919 13.6899H156.912L166.391 25.6188L156.52 38.0212L126.673 0.509149H180.082L202.384 28.7102L135.629 112.623ZM51.7318 195.816V186.738H52.9564L58.0449 194.267V186.738H58.9524V195.816H58.0449L52.6419 187.829V195.816H51.7318ZM67.5 189.1V195.816H66.6285V194.551C66.3845 195.003 66.0182 195.358 65.532 195.618C65.0765 195.857 64.5749 195.979 64.0254 195.979C63.5011 195.979 62.9898 195.864 62.49 195.637C61.9578 195.396 61.4849 195.036 61.0672 194.551C60.9164 194.387 60.7735 194.126 60.6418 193.765C60.4817 193.319 60.4015 192.868 60.4015 192.418C60.4015 192.009 60.4875 191.584 60.6591 191.147C60.802 190.771 60.9509 190.514 61.1035 190.38C61.5745 189.863 62.0686 189.491 62.5853 189.258C63.0297 189.056 63.5008 188.953 63.9988 188.953C64.2827 188.953 64.55 188.982 64.794 189.037C65.0401 189.092 65.2802 189.182 65.5169 189.308C66.0128 189.56 66.3827 189.917 66.627 190.38V189.104H67.4986L67.5 189.1ZM61.9139 188.287L63.6933 186.74H64.4788L66.26 188.287H65.1575L64.0837 187.386L63.0175 188.287H61.9139ZM64.0006 189.823C63.2647 189.823 62.6314 190.083 62.1028 190.601C61.5745 191.118 61.3111 191.748 61.3111 192.489C61.3111 193.212 61.5821 193.83 62.1236 194.339C62.6652 194.849 63.3003 195.104 64.0232 195.104C64.7213 195.104 65.3295 194.847 65.8483 194.331C66.3672 193.816 66.6285 193.206 66.6285 192.502C66.6285 191.761 66.3766 191.13 65.8753 190.607C65.3737 190.084 64.7483 189.823 64.0006 189.823ZM69.0488 195.818V189.102H69.9091L69.9055 190.075C70.1686 189.707 70.4741 189.429 70.8192 189.238C71.1664 189.047 71.5594 188.954 71.9977 188.954C72.4532 188.954 72.8883 189.049 73.3039 189.242C73.7177 189.433 74.0743 189.711 74.3794 190.076C74.614 190.366 74.7799 190.709 74.8771 191.1C74.9134 191.257 74.9419 191.432 74.9609 191.627C74.9818 191.824 74.9915 192.043 74.9915 192.282V195.819H74.084V192.28C74.084 191.923 74.0631 191.644 74.0228 191.444C73.9638 191.162 73.853 190.908 73.6929 190.683C73.4964 190.406 73.2445 190.194 72.9397 190.046C72.6324 189.899 72.3046 189.824 71.9573 189.824C71.6428 189.824 71.3337 189.898 71.0308 190.044C70.7274 190.189 70.491 190.389 70.3158 190.647C70.1574 190.849 70.0563 191.11 70.0085 191.427C69.9912 191.527 69.9797 191.643 69.9721 191.775C69.9646 191.906 69.9606 192.074 69.9606 192.278V195.818H69.0531L69.0488 195.818ZM83.2531 189.102V194.86C83.2531 195.473 83.2167 195.917 83.1444 196.192C83.0397 196.589 82.8126 196.977 82.4654 197.358C82.1451 197.706 81.7464 197.974 81.2754 198.165C80.8026 198.356 80.3161 198.449 79.8166 198.449C79.0613 198.449 78.369 198.22 77.7414 197.762C77.112 197.307 76.7076 196.713 76.523 195.978H77.406C77.6788 196.489 78.0145 196.881 78.4129 197.15C78.836 197.434 79.3265 197.575 79.8871 197.575C80.3315 197.575 80.7493 197.478 81.1401 197.28C81.5557 197.074 81.8724 196.78 82.0879 196.404C82.2175 196.169 82.3056 195.919 82.3456 195.654C82.3704 195.497 82.3819 195.232 82.3819 194.854V194.488C82.1779 194.965 81.8195 195.337 81.3045 195.61C80.8278 195.854 80.3128 195.976 79.7579 195.976C79.3135 195.976 78.8846 195.89 78.4669 195.719C78.0491 195.547 77.6734 195.305 77.338 194.994C76.9908 194.662 76.7259 194.28 76.5482 193.851C76.3708 193.421 76.2812 192.961 76.2812 192.475C76.2812 192.254 76.3002 192.04 76.3344 191.83C76.3708 191.622 76.4276 191.407 76.5079 191.185C76.6317 190.833 76.7691 190.573 76.9217 190.401C77.3355 189.877 77.7875 189.493 78.2815 189.255C78.7086 189.052 79.1836 188.949 79.7043 188.949C80.2592 188.949 80.7741 189.07 81.2491 189.31C81.7565 189.57 82.134 189.932 82.3819 190.402V189.1L83.2531 189.102ZM79.6752 189.825C78.9793 189.825 78.3916 190.079 77.9091 190.585C77.4283 191.09 77.1862 191.696 77.1862 192.395C77.1862 193.151 77.4265 193.792 77.9073 194.319C78.3862 194.845 79.0055 195.109 79.7648 195.109C80.1214 195.109 80.4532 195.05 80.7623 194.929C81.0696 194.809 81.3517 194.617 81.6072 194.347C81.8303 194.109 82.0156 193.821 82.1566 193.479C82.2977 193.138 82.3682 192.8 82.3682 192.468C82.3682 191.718 82.1106 191.092 81.592 190.587C81.0732 190.081 80.4345 189.825 79.6752 189.825ZM89.5963 195.821V187.564H87.51V186.742H92.5679V187.564H90.5046V195.821H89.5963ZM100.265 189.104V195.821H99.3933V194.555C99.1494 195.008 98.783 195.363 98.2969 195.622C97.8413 195.861 97.3397 195.983 96.7902 195.983C96.2659 195.983 95.7546 195.868 95.2548 195.641C94.7226 195.401 94.2498 195.04 93.832 194.555C93.6812 194.392 93.5384 194.13 93.4067 193.77C93.2465 193.323 93.1663 192.873 93.1663 192.422C93.1663 192.014 93.2523 191.589 93.4257 191.152C93.5686 190.776 93.7176 190.518 93.8701 190.385C94.3412 189.868 94.8352 189.495 95.352 189.263C95.7964 189.06 96.2674 188.957 96.7654 188.957C97.0493 188.957 97.3167 188.986 97.5607 189.041C97.8068 189.097 98.0468 189.186 98.2836 189.312C98.7794 189.564 99.1493 189.921 99.3937 190.385V189.108H100.265L100.265 189.104ZM94.6787 188.293L96.4581 186.746H97.2436L99.0248 188.293H97.9223L96.8485 187.395L95.7823 188.293H94.6787ZM96.7654 189.827C96.0295 189.827 95.3962 190.087 94.8676 190.606C94.3394 191.123 94.076 191.752 94.076 192.493C94.076 193.216 94.3469 193.834 94.8885 194.344C95.43 194.853 96.0652 195.109 96.7881 195.109C97.4862 195.109 98.0943 194.851 98.6132 194.336C99.1321 193.821 99.3933 193.21 99.3933 192.506C99.3933 191.765 99.1414 191.134 98.6402 190.611C98.1385 190.088 97.5132 189.827 96.7654 189.827ZM97.4289 185.061L99.855 186.393L99.4545 187.101L97.0324 185.798L97.4289 185.061ZM101.815 195.823V189.106H102.676L102.674 189.976C102.834 189.645 103.074 189.391 103.397 189.217C103.717 189.043 104.074 188.957 104.467 188.957C104.909 188.957 105.312 189.041 105.674 189.211C106.036 189.381 106.357 189.637 106.641 189.978L106.814 190.236L106.946 189.978C107.175 189.667 107.484 189.419 107.875 189.234C108.067 189.146 108.266 189.079 108.47 189.03C108.672 188.982 108.874 188.959 109.069 188.959C109.778 188.959 110.476 189.299 111.159 189.978C111.403 190.22 111.575 190.525 111.676 190.888C111.746 191.161 111.784 191.529 111.784 191.991V195.824H110.877V192.074C110.877 191.868 110.871 191.69 110.858 191.549C110.846 191.406 110.824 191.278 110.791 191.167C110.735 190.954 110.653 190.774 110.545 190.627C110.169 190.095 109.66 189.83 109.019 189.83C108.731 189.83 108.453 189.897 108.184 190.03C107.915 190.166 107.696 190.353 107.53 190.591C107.402 190.771 107.318 191.007 107.278 191.299C107.26 191.467 107.253 191.725 107.253 192.074V195.825H106.345V191.978C106.345 191.663 106.328 191.433 106.296 191.287C106.254 191.057 106.16 190.839 106.019 190.641C105.851 190.394 105.632 190.2 105.359 190.051C105.086 189.904 104.804 189.83 104.514 189.83C104.221 189.83 103.948 189.889 103.69 190.009C103.433 190.131 103.216 190.307 103.04 190.537C102.914 190.721 102.826 190.929 102.786 191.161C102.744 191.392 102.723 191.665 102.723 191.976V195.823H101.815ZM116.891 195.823V186.744H117.801V191.965L121.993 186.744H123.143L119.557 191.167L123.143 195.823H122.018L118.983 191.894L117.803 193.34V195.824L116.891 195.823ZM123.986 195.823V186.744H124.893L124.895 190.074C125.084 189.715 125.364 189.438 125.738 189.247C126.114 189.053 126.513 188.957 126.936 188.957C127.373 188.957 127.786 189.045 128.187 189.22C128.584 189.398 128.934 189.654 129.232 189.989C129.497 190.3 129.684 190.659 129.797 191.062C129.884 191.405 129.928 191.814 129.928 192.287V195.824H129.021V192.285C129.021 191.924 129 191.644 128.96 191.444C128.901 191.165 128.79 190.909 128.628 190.677C128.439 190.407 128.189 190.202 127.875 190.053C127.56 189.906 127.232 189.831 126.892 189.831C126.576 189.831 126.269 189.906 125.969 190.051C125.67 190.196 125.424 190.396 125.233 190.654C125.088 190.848 124.987 191.108 124.932 191.434C124.921 191.524 124.913 191.64 124.905 191.778C124.899 191.917 124.896 192.085 124.896 192.286V195.825H123.988L123.986 195.823ZM134.742 188.956C135.671 188.956 136.483 189.297 137.182 189.984C137.88 190.669 138.226 191.482 138.226 192.423C138.226 193.388 137.887 194.224 137.208 194.928C136.529 195.63 135.707 195.983 134.742 195.983C133.777 195.983 132.952 195.643 132.257 194.964C131.563 194.285 131.216 193.465 131.216 192.507C131.216 191.53 131.557 190.694 132.242 189.999C132.924 189.303 133.76 188.956 134.742 188.956ZM132.554 188.292L134.334 186.744H135.119L136.899 188.292H135.796L134.728 187.391L133.662 188.292H132.552H132.554ZM134.74 189.828C134.004 189.828 133.384 190.089 132.881 190.612C132.377 191.135 132.125 191.764 132.125 192.507C132.125 193.226 132.383 193.839 132.898 194.35C133.411 194.857 134.025 195.111 134.742 195.111C135.48 195.111 136.096 194.848 136.586 194.321C137.075 193.794 137.32 193.163 137.32 192.422C137.32 191.682 137.059 191.062 136.535 190.562C136.3 190.337 136.022 190.158 135.703 190.028C135.387 189.894 135.064 189.83 134.742 189.83L134.74 189.828ZM139.513 195.823V189.107H140.374L140.37 190.08C140.633 189.712 140.939 189.433 141.284 189.242C141.629 189.052 142.024 188.958 142.462 188.958C142.918 188.958 143.353 189.054 143.768 189.247C144.18 189.438 144.539 189.716 144.844 190.081C145.079 190.371 145.244 190.714 145.342 191.105C145.378 191.262 145.406 191.437 145.425 191.632C145.446 191.828 145.456 192.048 145.456 192.286V195.824H144.546V192.284C144.546 191.928 144.525 191.649 144.485 191.449C144.426 191.167 144.315 190.913 144.155 190.687C143.959 190.411 143.707 190.199 143.402 190.05C143.095 189.903 142.767 189.829 142.42 189.829C142.105 189.829 141.796 189.903 141.493 190.048C141.19 190.194 140.953 190.394 140.778 190.651C140.62 190.854 140.519 191.115 140.471 191.432C140.454 191.531 140.442 191.648 140.434 191.779C140.427 191.911 140.423 192.079 140.423 192.283V195.822L139.513 195.823ZM153.718 189.107V194.865C153.718 195.477 153.681 195.922 153.609 196.197C153.504 196.594 153.277 196.981 152.93 197.363C152.61 197.71 152.211 197.979 151.74 198.17C151.267 198.361 150.781 198.454 150.281 198.454C149.526 198.454 148.833 198.225 148.206 197.767C147.577 197.311 147.172 196.718 146.988 195.983H147.871C148.141 196.494 148.477 196.885 148.877 197.154C149.301 197.438 149.791 197.58 150.352 197.58C150.796 197.58 151.214 197.482 151.605 197.284C152.02 197.078 152.337 196.784 152.552 196.408C152.682 196.174 152.77 195.924 152.81 195.659C152.835 195.502 152.846 195.237 152.846 194.859V194.493C152.642 194.97 152.284 195.342 151.767 195.615C151.29 195.859 150.775 195.981 150.22 195.981C149.776 195.981 149.347 195.895 148.929 195.723C148.511 195.552 148.136 195.309 147.8 194.998C147.453 194.666 147.188 194.285 147.011 193.855C146.833 193.426 146.744 192.966 146.744 192.48C146.744 192.258 146.763 192.045 146.797 191.835C146.833 191.627 146.892 191.411 146.97 191.19C147.094 190.837 147.231 190.578 147.384 190.406C147.798 189.881 148.25 189.498 148.744 189.259C149.171 189.057 149.646 188.954 150.167 188.954C150.722 188.954 151.236 189.074 151.711 189.315C152.219 189.574 152.596 189.937 152.844 190.406V189.105H153.716L153.718 189.107ZM150.141 189.83C149.446 189.83 148.858 190.084 148.375 190.59C147.895 191.095 147.652 191.7 147.652 192.4C147.652 193.156 147.893 193.797 148.374 194.323C148.853 194.85 149.472 195.113 150.231 195.113C150.588 195.113 150.919 195.054 151.229 194.934C151.536 194.814 151.818 194.621 152.073 194.352C152.297 194.113 152.482 193.825 152.623 193.484C152.764 193.142 152.836 192.805 152.836 192.473C152.836 191.723 152.579 191.097 152.06 190.591C151.543 190.086 150.903 189.832 150.143 189.832L150.141 189.83ZM161.928 191.635H168.09C168.09 192.843 167.596 193.879 166.61 194.743C165.662 195.571 164.556 195.983 163.289 195.983C161.97 195.983 160.829 195.523 159.87 194.604C158.91 193.684 158.428 192.562 158.428 191.24C158.428 190.631 158.552 190.045 158.802 189.483C159.05 188.92 159.393 188.418 159.828 187.983C160.28 187.531 160.808 187.187 161.412 186.952C162.015 186.718 162.641 186.598 163.289 186.598C163.764 186.598 164.225 186.661 164.677 186.79C165.127 186.92 165.553 187.115 165.957 187.374C166.296 187.601 166.605 187.863 166.882 188.155C167.206 188.498 167.423 188.838 167.542 189.168H166.51C166.199 188.643 165.745 188.231 165.148 187.928C164.847 187.773 164.547 187.661 164.246 187.586C163.942 187.51 163.626 187.471 163.29 187.471C162.793 187.471 162.314 187.555 161.847 187.725C161.381 187.895 160.958 188.153 160.582 188.496C160.204 188.84 159.903 189.258 159.678 189.754C159.451 190.248 159.339 190.746 159.339 191.255C159.339 192.349 159.732 193.268 160.519 194.014C161.286 194.745 162.222 195.111 163.325 195.111C164.154 195.111 164.915 194.865 165.611 194.373C166.309 193.883 166.771 193.244 167 192.459H161.928L161.928 191.635ZM169.369 195.823V189.107H170.277V195.823H169.369ZM169.369 188.294V186.747H170.277V188.294H169.369ZM178.667 189.107V195.823H177.795V194.558C177.551 195.01 177.185 195.365 176.699 195.625C176.243 195.864 175.742 195.986 175.192 195.986C174.668 195.986 174.156 195.871 173.657 195.644C173.124 195.404 172.652 195.043 172.234 194.558C172.083 194.395 171.94 194.133 171.809 193.772C171.648 193.326 171.568 192.876 171.568 192.425C171.568 192.017 171.654 191.591 171.826 191.154C171.969 190.779 172.118 190.521 172.27 190.388C172.741 189.871 173.235 189.498 173.752 189.265C174.196 189.063 174.667 188.96 175.165 188.96C175.449 188.96 175.717 188.989 175.961 189.044C176.207 189.099 176.447 189.189 176.684 189.315C177.179 189.567 177.549 189.924 177.794 190.388V189.111H178.665L178.667 189.107ZM175.167 189.83C174.431 189.83 173.798 190.09 173.269 190.609C172.741 191.126 172.478 191.755 172.478 192.496C172.478 193.219 172.749 193.837 173.29 194.347C173.832 194.856 174.467 195.112 175.19 195.112C175.888 195.112 176.496 194.854 177.015 194.339C177.534 193.824 177.795 193.213 177.795 192.509C177.795 191.768 177.543 191.137 177.042 190.614C176.54 190.091 175.915 189.83 175.167 189.83ZM180.215 195.826V189.109H181.076L181.072 190.082C181.335 189.714 181.641 189.436 181.986 189.245C182.331 189.054 182.726 188.961 183.164 188.961C183.62 188.961 184.055 189.056 184.471 189.249C184.884 189.44 185.241 189.719 185.546 190.083C185.781 190.373 185.947 190.717 186.044 191.108C186.08 191.264 186.109 191.44 186.128 191.634C186.148 191.831 186.158 192.05 186.158 192.289V195.826H185.251V192.287C185.251 191.93 185.23 191.652 185.189 191.451C185.13 191.169 185.02 190.915 184.86 190.69C184.663 190.413 184.411 190.201 184.106 190.053C183.799 189.906 183.471 189.831 183.124 189.831C182.81 189.831 182.5 189.906 182.197 190.051C181.894 190.196 181.658 190.396 181.482 190.654C181.324 190.856 181.223 191.118 181.175 191.434C181.158 191.534 181.146 191.65 181.139 191.782C181.131 191.914 181.127 192.081 181.127 192.286V195.825H180.22L180.215 195.826ZM190.602 193.282H191.573C191.573 193.788 191.746 194.219 192.093 194.576C192.441 194.935 192.874 195.112 193.388 195.112C193.913 195.112 194.355 194.942 194.72 194.603C195.084 194.263 195.265 193.836 195.265 193.318C195.265 193.07 195.21 192.834 195.099 192.608C194.99 192.381 194.841 192.191 194.653 192.038C194.464 191.883 194.239 191.756 193.976 191.651C193.833 191.599 193.587 191.527 193.24 191.429C193.03 191.376 192.865 191.332 192.735 191.29C192.607 191.252 192.495 191.211 192.399 191.177C192.096 191.061 191.844 190.916 191.644 190.739C191.404 190.534 191.219 190.285 191.083 189.989C190.95 189.691 190.883 189.378 190.883 189.044C190.883 188.334 191.133 187.749 191.632 187.287C192.13 186.827 192.739 186.596 193.459 186.596C194.154 186.596 194.743 186.831 195.227 187.302C195.71 187.775 195.952 188.357 195.952 189.052H195.004C195.004 188.594 194.846 188.215 194.527 187.917C194.211 187.617 193.818 187.468 193.351 187.468C192.92 187.468 192.55 187.623 192.248 187.936C191.943 188.249 191.793 188.621 191.793 189.058C191.793 189.394 191.88 189.674 192.057 189.898C192.2 190.077 192.426 190.235 192.729 190.371C192.82 190.412 192.937 190.455 193.078 190.5C193.221 190.548 193.389 190.6 193.585 190.653C194.093 190.796 194.396 190.888 194.495 190.93C194.663 190.993 194.813 191.063 194.945 191.143C195.075 191.222 195.205 191.315 195.328 191.427C195.588 191.651 195.796 191.933 195.946 192.276C196.101 192.62 196.175 192.971 196.175 193.326C196.175 194.06 195.9 194.688 195.355 195.205C194.808 195.724 194.161 195.981 193.415 195.981C192.632 195.981 191.97 195.729 191.43 195.228C190.877 194.715 190.604 194.062 190.604 193.278L190.602 193.282ZM200.486 188.959C201.415 188.959 202.227 189.3 202.926 189.987C203.624 190.672 203.971 191.485 203.971 192.426C203.971 193.391 203.631 194.227 202.952 194.931C202.273 195.633 201.449 195.986 200.486 195.986C199.521 195.986 198.696 195.646 198.001 194.967C197.307 194.288 196.96 193.467 196.96 192.509C196.96 191.533 197.301 190.697 197.986 190.002C198.668 189.306 199.504 188.959 200.486 188.959ZM198.299 188.297L200.078 186.749H200.864L202.643 188.297H201.541L200.473 187.398L199.406 188.297H198.296H198.299ZM200.485 189.831C199.749 189.831 199.129 190.092 198.625 190.615C198.122 191.137 197.87 191.767 197.87 192.509C197.87 193.229 198.128 193.842 198.642 194.353C199.156 194.86 199.77 195.114 200.487 195.114C201.225 195.114 201.841 194.851 202.331 194.324C202.819 193.797 203.065 193.166 203.065 192.425C203.065 191.685 202.804 191.065 202.279 190.565C202.045 190.34 201.766 190.161 201.448 190.031C201.131 189.897 200.809 189.832 200.487 189.832L200.485 189.831ZM201.902 186.442L204.262 185.015L204.688 185.73L202.321 187.127L201.902 186.442ZM205.26 195.826V189.11H206.12L206.117 190.083C206.38 189.714 206.685 189.436 207.03 189.245C207.375 189.054 207.771 188.961 208.209 188.961C208.664 188.961 209.099 189.057 209.515 189.25C209.927 189.44 210.285 189.719 210.591 190.083C210.825 190.374 210.991 190.717 211.088 191.108C211.125 191.265 211.153 191.44 211.172 191.635C211.193 191.831 211.203 192.05 211.203 192.289V195.827H210.293V192.287C210.293 191.931 210.272 191.652 210.232 191.452C210.173 191.17 210.062 190.916 209.902 190.69C209.705 190.414 209.454 190.202 209.149 190.053C208.841 189.906 208.514 189.832 208.166 189.832C207.852 189.832 207.543 189.906 207.24 190.051C206.936 190.196 206.7 190.397 206.525 190.654C206.366 190.857 206.265 191.118 206.217 191.435C206.2 191.534 206.189 191.651 206.181 191.782C206.174 191.914 206.17 192.082 206.17 192.286V195.825L205.26 195.826ZM219.464 189.11V194.868C219.464 195.48 219.428 195.925 219.356 196.2C219.251 196.597 219.024 196.984 218.677 197.366C218.356 197.713 217.958 197.982 217.487 198.173C217.014 198.364 216.527 198.457 216.028 198.457C215.272 198.457 214.58 198.228 213.953 197.77C213.323 197.314 212.919 196.721 212.734 195.986H213.617C213.888 196.497 214.224 196.888 214.624 197.157C215.047 197.441 215.538 197.583 216.098 197.583C216.543 197.583 216.96 197.485 217.351 197.287C217.767 197.081 218.084 196.787 218.299 196.411C218.429 196.177 218.517 195.927 218.557 195.661C218.582 195.505 218.593 195.24 218.593 194.862V194.496C218.389 194.973 218.031 195.345 217.514 195.618C217.037 195.862 216.522 195.984 215.967 195.984C215.523 195.984 215.094 195.898 214.676 195.726C214.258 195.554 213.882 195.312 213.547 195.001C213.2 194.669 212.935 194.288 212.757 193.858C212.58 193.429 212.49 192.969 212.49 192.482C212.49 192.261 212.509 192.048 212.543 191.838C212.58 191.63 212.639 191.414 212.717 191.193C212.841 190.84 212.978 190.581 213.131 190.409C213.545 189.884 213.996 189.501 214.491 189.262C214.918 189.06 215.393 188.957 215.913 188.957C216.468 188.957 216.983 189.077 217.458 189.318C217.965 189.577 218.343 189.94 218.591 190.409V189.108H219.462L219.464 189.11ZM215.889 189.832C215.193 189.832 214.605 190.086 214.122 190.592C213.642 191.098 213.4 191.703 213.4 192.403C213.4 193.158 213.64 193.799 214.121 194.326C214.6 194.852 215.219 195.116 215.978 195.116C216.335 195.116 216.666 195.057 216.976 194.937C217.283 194.816 217.565 194.624 217.821 194.355C218.044 194.116 218.229 193.828 218.37 193.487C218.511 193.145 218.583 192.807 218.583 192.475C218.583 191.725 218.326 191.1 217.807 190.594C217.29 190.088 216.65 189.834 215.89 189.834L215.889 189.832ZM247.736 168.859H254.503C258.216 168.8 261.181 167.491 263.401 164.921C265.631 162.351 266.735 158.937 266.735 154.681C266.735 150.412 265.6 146.989 263.333 144.39C261.056 141.801 258.119 140.502 254.503 140.502H247.736V168.859L243.878 170.788V138.571H254.502C257.468 138.571 260.203 139.269 262.694 140.666C265.184 142.072 267.171 143.982 268.674 146.407C270.168 148.832 270.913 151.585 270.913 154.68C270.913 157.763 270.168 160.519 268.674 162.942C267.171 165.367 265.184 167.286 262.694 168.683C260.203 170.089 257.47 170.788 254.502 170.788L243.878 170.788C244.538 169.556 245.826 168.917 247.736 168.859ZM17.0581 164.593L27.963 138.573H29.9025L18.1145 166.697L17.0581 164.593ZM17.3783 168.462L16.4096 170.79H13.8026L0.28125 138.573H4.37191L16.324 166.358L17.3783 168.462ZM55.5897 168.859H62.3565C66.0696 168.8 69.0351 167.491 71.2553 164.921C73.4849 162.351 74.5889 158.937 74.5889 154.68C74.5889 150.412 73.4543 146.989 71.1866 144.39C68.9095 141.801 65.9707 140.502 62.3565 140.502H55.5897V162.293H51.7315V138.573H62.3561C65.3215 138.573 68.0567 139.271 70.5475 140.668C73.0383 142.074 75.0253 143.984 76.5284 146.409C78.0217 148.834 78.7673 151.587 78.7673 154.682C78.7673 157.765 78.0217 160.52 76.5284 162.944C75.0253 165.369 73.0383 167.288 70.5475 168.685C68.0567 170.091 65.3219 170.789 62.3561 170.789H51.7315C52.3914 169.557 53.6804 168.916 55.5897 168.859ZM88.9054 146.777V170.479H85.0472V142.975L88.9054 146.777ZM85.0476 140.047V138.263H88.9058V143.831L85.0476 140.047ZM109.552 142.831L96.9997 170.79H95.0716L109.554 138.572H112.171L126.623 170.79H122.533L109.552 142.831ZM149.682 164.06L161.238 138.575H165.134V170.792H161.238V143.435L150.73 166.36L149.682 164.06ZM149.877 168.2L148.684 170.79H146.755L134.202 143.858V170.79H132.272V138.572H136.13L149.877 168.2ZM187.362 169.452V171.362C184.56 171.284 181.981 170.528 179.617 169.084C177.117 167.59 175.11 165.573 173.607 163.053C172.104 160.521 171.349 157.708 171.349 154.625C171.349 151.541 172.105 148.729 173.607 146.187C175.11 143.646 177.107 141.629 179.598 140.116C182.088 138.612 184.813 137.857 187.76 137.857C190.735 137.857 193.47 138.613 195.961 140.116C198.442 141.629 200.449 143.646 201.951 146.187C203.454 148.729 204.209 151.541 204.209 154.625C204.209 157.708 203.454 160.521 201.951 163.053C200.448 165.575 198.452 167.592 195.97 169.084C193.905 170.336 191.697 171.063 189.32 171.276V169.366C191.122 169.143 192.741 168.532 194.176 167.523C196.018 166.233 197.443 164.478 198.471 162.238C199.489 160.007 200.002 157.466 200.002 154.624C200.002 150.367 198.877 146.847 196.638 144.083C194.39 141.318 191.434 139.892 187.759 139.825C185.356 139.825 183.242 140.467 181.4 141.735C179.568 143.016 178.124 144.771 177.086 147.011C176.04 149.242 175.526 151.783 175.526 154.624C175.526 157.465 176.04 160.007 177.067 162.237C178.105 164.477 179.539 166.233 181.372 167.523C183.117 168.734 185.113 169.374 187.362 169.452ZM237.66 170.79V138.572H235.732V163.371L213.661 138.572H210.423V170.79H212.362V143.907L236.043 170.79H237.66Z" fill="url(#paint0_linear_1305:806)"/>
<defs>
<linearGradient id="paint0_linear_1305:806" x1="114.326" y1="175.305" x2="114.326" y2="7.75942" gradientUnits="userSpaceOnUse">
<stop stop-color="#B08C6E"/>
<stop offset="1" stop-color="#E9BA74"/>
</linearGradient>
</defs>
</svg>
