<svg width="42" height="42" viewBox="0 0 42 42" fill="none" xmlns="http://www.w3.org/2000/svg">
<mask id="path-1-outside-1_757:28" maskUnits="userSpaceOnUse" x="0" y="0.154297" width="42" height="42" fill="black">
<rect fill="white" y="0.154297" width="42" height="42"/>
<path d="M20.6677 40.6064C16.7778 40.6063 12.9753 39.4494 9.74095 37.2819C6.50664 35.1143 3.98581 32.0335 2.49723 28.4291C1.00866 24.8246 0.619192 20.8584 1.37809 17.032C2.13699 13.2055 4.01017 9.69071 6.76075 6.932C9.51133 4.17329 13.0158 2.29459 16.8309 1.53348C20.6461 0.772361 24.6006 1.16301 28.1944 2.65602C31.7882 4.14904 34.8598 6.67736 37.0209 9.92128C39.182 13.1652 40.3355 16.979 40.3355 20.8804C40.3355 21.4028 40.3148 21.931 40.2741 22.4502C40.2593 22.639 40.1703 22.8143 40.0267 22.9373C39.8831 23.0604 39.6966 23.1212 39.5083 23.1063C39.32 23.0915 39.1453 23.0022 39.0226 22.8582C38.8999 22.7142 38.8393 22.5271 38.8541 22.3383C38.8921 21.8561 38.9112 21.3656 38.9112 20.8804C38.907 17.0857 37.7251 13.3864 35.5297 10.2958C33.3343 7.20529 30.2342 4.87674 26.6596 3.6333C23.085 2.38986 19.2131 2.2932 15.5812 3.35673C11.9493 4.42026 8.73757 6.59123 6.39158 9.56841C4.04559 12.5456 2.68172 16.1813 2.48921 19.9711C2.29671 23.7609 3.28512 27.5169 5.31729 30.7178C7.34947 33.9186 10.3246 36.4058 13.8299 37.834C17.3352 39.2622 21.1969 39.5607 24.879 38.688C24.97 38.6665 25.0644 38.6631 25.1567 38.6781C25.249 38.6931 25.3375 38.7262 25.4171 38.7755C25.4966 38.8249 25.5658 38.8894 25.6204 38.9655C25.6751 39.0416 25.7144 39.1277 25.7359 39.219C25.7574 39.3103 25.7607 39.405 25.7457 39.4976C25.7308 39.5902 25.6978 39.6789 25.6486 39.7587C25.5994 39.8385 25.5351 39.9078 25.4592 39.9627C25.3833 40.0175 25.2974 40.0569 25.2064 40.0784C23.7189 40.4298 22.1959 40.6069 20.6677 40.6064Z"/>
<path d="M20.6677 11.348C15.4209 11.348 10.6765 9.64963 7.9757 6.80261C7.90855 6.73521 7.85553 6.65501 7.81975 6.56674C7.78397 6.47847 7.76617 6.38391 7.76738 6.28864C7.76859 6.19336 7.7888 6.09929 7.82682 6.01196C7.86483 5.92464 7.91988 5.84583 7.98873 5.78017C8.05757 5.71451 8.13882 5.66332 8.22769 5.62964C8.31656 5.59595 8.41125 5.58044 8.50618 5.58401C8.60112 5.58759 8.69438 5.61018 8.78048 5.65045C8.86658 5.69073 8.94378 5.74788 9.00752 5.81853C11.4082 8.3481 15.8761 9.91946 20.6677 9.91946C25.4593 9.91946 29.9267 8.3481 32.3271 5.81821C32.4573 5.68098 32.6365 5.60125 32.8254 5.59656C33.0142 5.59187 33.1971 5.66261 33.334 5.79321C33.4708 5.92382 33.5503 6.10358 33.555 6.29297C33.5596 6.48236 33.4891 6.66585 33.3589 6.80309C30.6584 9.64963 25.9141 11.348 20.6677 11.348Z"/>
<path d="M8.49209 36.1646C8.35281 36.1646 8.2166 36.1236 8.10033 36.0467C7.98406 35.9697 7.89282 35.8603 7.83792 35.732C7.78301 35.6036 7.76684 35.4619 7.79142 35.3244C7.81599 35.1869 7.88023 35.0596 7.97618 34.9583C10.6765 32.1121 15.4209 30.413 20.6682 30.413C22.5787 30.4065 24.4822 30.6447 26.3326 31.1219C26.5153 31.1697 26.6717 31.2884 26.7672 31.4518C26.8627 31.6153 26.8895 31.8101 26.8418 31.9934C26.7941 32.1767 26.6758 32.3335 26.5128 32.4293C26.3499 32.5251 26.1556 32.552 25.9729 32.5042C24.24 32.0576 22.4573 31.8349 20.6682 31.8415C15.8766 31.8415 11.4087 33.4129 9.00847 35.9431C8.94192 36.0132 8.86181 36.0691 8.77303 36.1072C8.68425 36.1453 8.58866 36.1648 8.49209 36.1646Z"/>
<path d="M20.6677 40.6064C17.3983 40.6064 14.3533 38.5047 12.0925 34.6885C9.90102 30.989 8.69417 26.0857 8.69417 20.8804C8.69417 15.6751 9.90102 10.772 12.0925 7.07149C14.353 3.25595 17.3991 1.1543 20.6677 1.1543C23.9363 1.1543 26.982 3.25595 29.243 7.07213C31.4344 10.772 32.6412 15.6757 32.6412 20.881C32.6417 22.1356 32.57 23.3892 32.4265 24.6355C32.4168 24.7296 32.3887 24.8208 32.3436 24.904C32.2985 24.9871 32.2374 25.0604 32.1638 25.1196C32.0903 25.1788 32.0057 25.2228 31.9151 25.249C31.8244 25.2751 31.7295 25.283 31.6358 25.2721C31.5421 25.2612 31.4515 25.2317 31.3693 25.1853C31.287 25.139 31.2148 25.0767 31.1567 25.0022C31.0987 24.9276 31.056 24.8422 31.0311 24.7509C31.0062 24.6597 30.9997 24.5644 31.0118 24.4706C31.1491 23.279 31.2178 22.0805 31.2176 20.881C31.2176 15.9289 30.0816 11.2845 28.0191 7.80226C26.0251 4.43733 23.415 2.58312 20.6683 2.58312C17.9217 2.58312 15.3101 4.43621 13.3169 7.80194C11.2544 11.2838 10.1185 15.9286 10.1185 20.8807C10.1185 25.8329 11.2544 30.4771 13.3169 33.9595C15.3109 37.3244 17.921 39.1785 20.6677 39.1785C20.8566 39.1785 21.0377 39.2537 21.1712 39.3877C21.3048 39.5216 21.3798 39.7033 21.3798 39.8927C21.3798 40.0822 21.3048 40.2638 21.1712 40.3978C21.0377 40.5317 20.8566 40.607 20.6677 40.607L20.6677 40.6064Z"/>
<path d="M39.6234 21.5947H1.71214C1.52327 21.5947 1.34214 21.5194 1.20858 21.3855C1.07503 21.2515 1 21.0698 1 20.8804C1 20.691 1.07503 20.5093 1.20858 20.3754C1.34214 20.2414 1.52327 20.1662 1.71214 20.1662H39.6234C39.8123 20.1662 39.9934 20.2414 40.1269 20.3754C40.2605 20.5093 40.3355 20.691 40.3355 20.8804C40.3355 21.0698 40.2605 21.2515 40.1269 21.3855C39.9934 21.5194 39.8123 21.5947 39.6234 21.5947Z"/>
<path d="M20.6677 40.5895C20.4788 40.5895 20.2977 40.5143 20.1641 40.3803C20.0306 40.2464 19.9555 40.0647 19.9555 39.8753V1.86871C19.9555 1.67927 20.0306 1.4976 20.1641 1.36365C20.2977 1.2297 20.4788 1.15445 20.6677 1.15445C20.8566 1.15445 21.0377 1.2297 21.1713 1.36365C21.3048 1.4976 21.3798 1.67927 21.3798 1.86871V39.8753C21.3798 40.0647 21.3048 40.2464 21.1713 40.3803C21.0377 40.5143 20.8566 40.5895 20.6677 40.5895Z"/>
<path d="M28.8653 41.0101C28.8322 41.0102 28.7991 41.0079 28.7664 41.0032C28.6572 40.9878 28.553 40.9473 28.4621 40.8847C28.3712 40.8221 28.2961 40.7392 28.2425 40.6425L26.6253 37.719L23.7103 36.0966C23.6139 36.0429 23.5312 35.9676 23.4688 35.8764C23.4064 35.7853 23.3659 35.6809 23.3505 35.5714C23.3352 35.4619 23.3454 35.3503 23.3804 35.2454C23.4153 35.1406 23.4741 35.0453 23.552 34.9671L24.2066 34.3104C24.2833 34.2332 24.3767 34.1746 24.4796 34.1394C24.5825 34.1041 24.692 34.093 24.7999 34.107L27.1218 34.4025L30.7214 30.7923L25.5441 26.4433C25.4684 26.3797 25.4067 26.301 25.3629 26.2121C25.3191 26.1233 25.2943 26.0263 25.2899 25.9272C25.2855 25.8282 25.3018 25.7294 25.3376 25.637C25.3733 25.5447 25.4279 25.4608 25.4978 25.3907L26.5992 24.2861C26.7017 24.1833 26.8331 24.1143 26.9757 24.0884C27.1183 24.0624 27.2655 24.0807 27.3975 24.1409L34.241 27.262L37.4642 24.0299C37.8368 23.6562 38.3421 23.4463 38.869 23.4463C39.3959 23.4463 39.9013 23.6562 40.2739 24.0299C40.6465 24.4036 40.8558 24.9104 40.8558 25.4389C40.8559 25.9674 40.6466 26.4742 40.274 26.8479L37.051 30.0805L40.1646 36.9459C40.2247 37.0783 40.243 37.2258 40.2171 37.3689C40.1913 37.512 40.1225 37.6438 40.02 37.7466L38.9187 38.8513C38.8488 38.9214 38.7652 38.9762 38.6731 39.0121C38.581 39.048 38.4825 39.0643 38.3837 39.0599C38.285 39.0556 38.1883 39.0306 38.0997 38.9868C38.0111 38.9429 37.9326 38.881 37.8691 38.805L33.5314 33.6105L29.9317 37.2208L30.2262 39.5496C30.2399 39.6577 30.2287 39.7675 30.1936 39.8706C30.1584 39.9737 30.1002 40.0674 30.0234 40.1445L29.3688 40.8011C29.2352 40.935 29.0541 41.0102 28.8653 41.0101ZM25.9122 35.6885L27.4948 36.5692C27.6113 36.634 27.7074 36.7303 27.772 36.8472L28.6499 38.4344L28.4758 37.0535C28.4621 36.9454 28.4733 36.8356 28.5085 36.7325C28.5436 36.6293 28.6019 36.5357 28.6787 36.4586L33.0742 32.0486C33.1441 31.9786 33.2277 31.9238 33.3198 31.8879C33.4119 31.852 33.5104 31.8357 33.6091 31.8401C33.7079 31.8444 33.8046 31.8693 33.8932 31.9132C33.9818 31.9571 34.0603 32.019 34.1237 32.095L38.4615 37.2894L38.6637 37.0865L35.5509 30.2211C35.4908 30.0887 35.4725 29.9411 35.4984 29.798C35.5242 29.6549 35.593 29.5232 35.6955 29.4203L39.2675 25.8376C39.32 25.7847 39.3617 25.7219 39.39 25.6529C39.4184 25.5838 39.4329 25.5098 39.4327 25.4351C39.4325 25.3616 39.4178 25.2888 39.3894 25.221C39.3611 25.1531 39.3196 25.0916 39.2675 25.0399C39.1619 24.9341 39.0189 24.8747 38.8697 24.8747C38.7205 24.8747 38.5775 24.9341 38.4719 25.0399L34.9 28.6223C34.7975 28.7251 34.6661 28.7941 34.5234 28.8201C34.3807 28.8461 34.2336 28.8277 34.1016 28.7675L27.258 25.6464L27.0558 25.8492L32.2331 30.1982C32.3088 30.2619 32.3706 30.3406 32.4143 30.4295C32.4581 30.5183 32.483 30.6153 32.4873 30.7143C32.4917 30.8133 32.4754 30.9122 32.4397 31.0045C32.4039 31.0969 32.3493 31.1808 32.2794 31.2509L27.8828 35.6604C27.8061 35.7376 27.7126 35.7961 27.6098 35.8314C27.5069 35.8666 27.3974 35.8778 27.2895 35.8639L25.9122 35.6885Z"/>
</mask>
<path d="M20.6677 40.6064C16.7778 40.6063 12.9753 39.4494 9.74095 37.2819C6.50664 35.1143 3.98581 32.0335 2.49723 28.4291C1.00866 24.8246 0.619192 20.8584 1.37809 17.032C2.13699 13.2055 4.01017 9.69071 6.76075 6.932C9.51133 4.17329 13.0158 2.29459 16.8309 1.53348C20.6461 0.772361 24.6006 1.16301 28.1944 2.65602C31.7882 4.14904 34.8598 6.67736 37.0209 9.92128C39.182 13.1652 40.3355 16.979 40.3355 20.8804C40.3355 21.4028 40.3148 21.931 40.2741 22.4502C40.2593 22.639 40.1703 22.8143 40.0267 22.9373C39.8831 23.0604 39.6966 23.1212 39.5083 23.1063C39.32 23.0915 39.1453 23.0022 39.0226 22.8582C38.8999 22.7142 38.8393 22.5271 38.8541 22.3383C38.8921 21.8561 38.9112 21.3656 38.9112 20.8804C38.907 17.0857 37.7251 13.3864 35.5297 10.2958C33.3343 7.20529 30.2342 4.87674 26.6596 3.6333C23.085 2.38986 19.2131 2.2932 15.5812 3.35673C11.9493 4.42026 8.73757 6.59123 6.39158 9.56841C4.04559 12.5456 2.68172 16.1813 2.48921 19.9711C2.29671 23.7609 3.28512 27.5169 5.31729 30.7178C7.34947 33.9186 10.3246 36.4058 13.8299 37.834C17.3352 39.2622 21.1969 39.5607 24.879 38.688C24.97 38.6665 25.0644 38.6631 25.1567 38.6781C25.249 38.6931 25.3375 38.7262 25.4171 38.7755C25.4966 38.8249 25.5658 38.8894 25.6204 38.9655C25.6751 39.0416 25.7144 39.1277 25.7359 39.219C25.7574 39.3103 25.7607 39.405 25.7457 39.4976C25.7308 39.5902 25.6978 39.6789 25.6486 39.7587C25.5994 39.8385 25.5351 39.9078 25.4592 39.9627C25.3833 40.0175 25.2974 40.0569 25.2064 40.0784C23.7189 40.4298 22.1959 40.6069 20.6677 40.6064Z" fill="#BE7B51"/>
<path d="M20.6677 11.348C15.4209 11.348 10.6765 9.64963 7.9757 6.80261C7.90855 6.73521 7.85553 6.65501 7.81975 6.56674C7.78397 6.47847 7.76617 6.38391 7.76738 6.28864C7.76859 6.19336 7.7888 6.09929 7.82682 6.01196C7.86483 5.92464 7.91988 5.84583 7.98873 5.78017C8.05757 5.71451 8.13882 5.66332 8.22769 5.62964C8.31656 5.59595 8.41125 5.58044 8.50618 5.58401C8.60112 5.58759 8.69438 5.61018 8.78048 5.65045C8.86658 5.69073 8.94378 5.74788 9.00752 5.81853C11.4082 8.3481 15.8761 9.91946 20.6677 9.91946C25.4593 9.91946 29.9267 8.3481 32.3271 5.81821C32.4573 5.68098 32.6365 5.60125 32.8254 5.59656C33.0142 5.59187 33.1971 5.66261 33.334 5.79321C33.4708 5.92382 33.5503 6.10358 33.555 6.29297C33.5596 6.48236 33.4891 6.66585 33.3589 6.80309C30.6584 9.64963 25.9141 11.348 20.6677 11.348Z" fill="#BE7B51"/>
<path d="M8.49209 36.1646C8.35281 36.1646 8.2166 36.1236 8.10033 36.0467C7.98406 35.9697 7.89282 35.8603 7.83792 35.732C7.78301 35.6036 7.76684 35.4619 7.79142 35.3244C7.81599 35.1869 7.88023 35.0596 7.97618 34.9583C10.6765 32.1121 15.4209 30.413 20.6682 30.413C22.5787 30.4065 24.4822 30.6447 26.3326 31.1219C26.5153 31.1697 26.6717 31.2884 26.7672 31.4518C26.8627 31.6153 26.8895 31.8101 26.8418 31.9934C26.7941 32.1767 26.6758 32.3335 26.5128 32.4293C26.3499 32.5251 26.1556 32.552 25.9729 32.5042C24.24 32.0576 22.4573 31.8349 20.6682 31.8415C15.8766 31.8415 11.4087 33.4129 9.00847 35.9431C8.94192 36.0132 8.86181 36.0691 8.77303 36.1072C8.68425 36.1453 8.58866 36.1648 8.49209 36.1646Z" fill="#BE7B51"/>
<path d="M20.6677 40.6064C17.3983 40.6064 14.3533 38.5047 12.0925 34.6885C9.90102 30.989 8.69417 26.0857 8.69417 20.8804C8.69417 15.6751 9.90102 10.772 12.0925 7.07149C14.353 3.25595 17.3991 1.1543 20.6677 1.1543C23.9363 1.1543 26.982 3.25595 29.243 7.07213C31.4344 10.772 32.6412 15.6757 32.6412 20.881C32.6417 22.1356 32.57 23.3892 32.4265 24.6355C32.4168 24.7296 32.3887 24.8208 32.3436 24.904C32.2985 24.9871 32.2374 25.0604 32.1638 25.1196C32.0903 25.1788 32.0057 25.2228 31.9151 25.249C31.8244 25.2751 31.7295 25.283 31.6358 25.2721C31.5421 25.2612 31.4515 25.2317 31.3693 25.1853C31.287 25.139 31.2148 25.0767 31.1567 25.0022C31.0987 24.9276 31.056 24.8422 31.0311 24.7509C31.0062 24.6597 30.9997 24.5644 31.0118 24.4706C31.1491 23.279 31.2178 22.0805 31.2176 20.881C31.2176 15.9289 30.0816 11.2845 28.0191 7.80226C26.0251 4.43733 23.415 2.58312 20.6683 2.58312C17.9217 2.58312 15.3101 4.43621 13.3169 7.80194C11.2544 11.2838 10.1185 15.9286 10.1185 20.8807C10.1185 25.8329 11.2544 30.4771 13.3169 33.9595C15.3109 37.3244 17.921 39.1785 20.6677 39.1785C20.8566 39.1785 21.0377 39.2537 21.1712 39.3877C21.3048 39.5216 21.3798 39.7033 21.3798 39.8927C21.3798 40.0822 21.3048 40.2638 21.1712 40.3978C21.0377 40.5317 20.8566 40.607 20.6677 40.607L20.6677 40.6064Z" fill="#BE7B51"/>
<path d="M39.6234 21.5947H1.71214C1.52327 21.5947 1.34214 21.5194 1.20858 21.3855C1.07503 21.2515 1 21.0698 1 20.8804C1 20.691 1.07503 20.5093 1.20858 20.3754C1.34214 20.2414 1.52327 20.1662 1.71214 20.1662H39.6234C39.8123 20.1662 39.9934 20.2414 40.1269 20.3754C40.2605 20.5093 40.3355 20.691 40.3355 20.8804C40.3355 21.0698 40.2605 21.2515 40.1269 21.3855C39.9934 21.5194 39.8123 21.5947 39.6234 21.5947Z" fill="#BE7B51"/>
<path d="M20.6677 40.5895C20.4788 40.5895 20.2977 40.5143 20.1641 40.3803C20.0306 40.2464 19.9555 40.0647 19.9555 39.8753V1.86871C19.9555 1.67927 20.0306 1.4976 20.1641 1.36365C20.2977 1.2297 20.4788 1.15445 20.6677 1.15445C20.8566 1.15445 21.0377 1.2297 21.1713 1.36365C21.3048 1.4976 21.3798 1.67927 21.3798 1.86871V39.8753C21.3798 40.0647 21.3048 40.2464 21.1713 40.3803C21.0377 40.5143 20.8566 40.5895 20.6677 40.5895Z" fill="#BE7B51"/>
<path d="M28.8653 41.0101C28.8322 41.0102 28.7991 41.0079 28.7664 41.0032C28.6572 40.9878 28.553 40.9473 28.4621 40.8847C28.3712 40.8221 28.2961 40.7392 28.2425 40.6425L26.6253 37.719L23.7103 36.0966C23.6139 36.0429 23.5312 35.9676 23.4688 35.8764C23.4064 35.7853 23.3659 35.6809 23.3505 35.5714C23.3352 35.4619 23.3454 35.3503 23.3804 35.2454C23.4153 35.1406 23.4741 35.0453 23.552 34.9671L24.2066 34.3104C24.2833 34.2332 24.3767 34.1746 24.4796 34.1394C24.5825 34.1041 24.692 34.093 24.7999 34.107L27.1218 34.4025L30.7214 30.7923L25.5441 26.4433C25.4684 26.3797 25.4067 26.301 25.3629 26.2121C25.3191 26.1233 25.2943 26.0263 25.2899 25.9272C25.2855 25.8282 25.3018 25.7294 25.3376 25.637C25.3733 25.5447 25.4279 25.4608 25.4978 25.3907L26.5992 24.2861C26.7017 24.1833 26.8331 24.1143 26.9757 24.0884C27.1183 24.0624 27.2655 24.0807 27.3975 24.1409L34.241 27.262L37.4642 24.0299C37.8368 23.6562 38.3421 23.4463 38.869 23.4463C39.3959 23.4463 39.9013 23.6562 40.2739 24.0299C40.6465 24.4036 40.8558 24.9104 40.8558 25.4389C40.8559 25.9674 40.6466 26.4742 40.274 26.8479L37.051 30.0805L40.1646 36.9459C40.2247 37.0783 40.243 37.2258 40.2171 37.3689C40.1913 37.512 40.1225 37.6438 40.02 37.7466L38.9187 38.8513C38.8488 38.9214 38.7652 38.9762 38.6731 39.0121C38.581 39.048 38.4825 39.0643 38.3837 39.0599C38.285 39.0556 38.1883 39.0306 38.0997 38.9868C38.0111 38.9429 37.9326 38.881 37.8691 38.805L33.5314 33.6105L29.9317 37.2208L30.2262 39.5496C30.2399 39.6577 30.2287 39.7675 30.1936 39.8706C30.1584 39.9737 30.1002 40.0674 30.0234 40.1445L29.3688 40.8011C29.2352 40.935 29.0541 41.0102 28.8653 41.0101ZM25.9122 35.6885L27.4948 36.5692C27.6113 36.634 27.7074 36.7303 27.772 36.8472L28.6499 38.4344L28.4758 37.0535C28.4621 36.9454 28.4733 36.8356 28.5085 36.7325C28.5436 36.6293 28.6019 36.5357 28.6787 36.4586L33.0742 32.0486C33.1441 31.9786 33.2277 31.9238 33.3198 31.8879C33.4119 31.852 33.5104 31.8357 33.6091 31.8401C33.7079 31.8444 33.8046 31.8693 33.8932 31.9132C33.9818 31.9571 34.0603 32.019 34.1237 32.095L38.4615 37.2894L38.6637 37.0865L35.5509 30.2211C35.4908 30.0887 35.4725 29.9411 35.4984 29.798C35.5242 29.6549 35.593 29.5232 35.6955 29.4203L39.2675 25.8376C39.32 25.7847 39.3617 25.7219 39.39 25.6529C39.4184 25.5838 39.4329 25.5098 39.4327 25.4351C39.4325 25.3616 39.4178 25.2888 39.3894 25.221C39.3611 25.1531 39.3196 25.0916 39.2675 25.0399C39.1619 24.9341 39.0189 24.8747 38.8697 24.8747C38.7205 24.8747 38.5775 24.9341 38.4719 25.0399L34.9 28.6223C34.7975 28.7251 34.6661 28.7941 34.5234 28.8201C34.3807 28.8461 34.2336 28.8277 34.1016 28.7675L27.258 25.6464L27.0558 25.8492L32.2331 30.1982C32.3088 30.2619 32.3706 30.3406 32.4143 30.4295C32.4581 30.5183 32.483 30.6153 32.4873 30.7143C32.4917 30.8133 32.4754 30.9122 32.4397 31.0045C32.4039 31.0969 32.3493 31.1808 32.2794 31.2509L27.8828 35.6604C27.8061 35.7376 27.7126 35.7961 27.6098 35.8314C27.5069 35.8666 27.3974 35.8778 27.2895 35.8639L25.9122 35.6885Z" fill="#BE7B51"/>
<path d="M20.6677 40.6064L20.6678 40.4064H20.6677L20.6677 40.6064ZM40.3355 20.8804H40.5355H40.3355ZM40.2741 22.4502L40.0747 22.4346L40.2741 22.4502ZM38.8541 22.3383L38.6547 22.3226L38.6547 22.3227L38.8541 22.3383ZM38.9112 20.8804H39.1112V20.8802L38.9112 20.8804ZM24.879 38.688L24.8329 38.4934L24.8329 38.4934L24.879 38.688ZM25.2064 40.0784L25.2524 40.2731L25.2525 40.2731L25.2064 40.0784ZM7.9757 6.80261L8.12084 6.66493L8.11739 6.66146L7.9757 6.80261ZM9.00752 5.81853L8.85897 5.95254L8.86245 5.95621L9.00752 5.81853ZM32.3271 5.81821L32.182 5.68055L32.182 5.68055L32.3271 5.81821ZM33.3589 6.80309L33.2138 6.66542L33.2138 6.66544L33.3589 6.80309ZM8.49209 36.1646L8.49248 35.9646H8.49217L8.49209 36.1646ZM7.97618 34.9583L7.83109 34.8207L7.831 34.8208L7.97618 34.9583ZM20.6682 30.413V30.613L20.6689 30.613L20.6682 30.413ZM26.3326 31.1219L26.3832 30.9284L26.3825 30.9282L26.3326 31.1219ZM25.9729 32.5042L26.0235 32.3107L26.0228 32.3105L25.9729 32.5042ZM20.6682 31.8415V32.0415L20.6689 32.0415L20.6682 31.8415ZM9.00847 35.9431L8.86337 35.8054L8.86335 35.8054L9.00847 35.9431ZM12.0925 34.6885L11.9204 34.7905L11.9204 34.7905L12.0925 34.6885ZM12.0925 7.07149L11.9205 6.96955L11.9204 6.96958L12.0925 7.07149ZM29.243 7.07213L29.4151 6.97021L29.4151 6.97018L29.243 7.07213ZM32.6412 20.881H32.4412V20.8811L32.6412 20.881ZM32.4265 24.6355L32.2278 24.6126L32.2275 24.6151L32.4265 24.6355ZM31.0118 24.4706L31.2102 24.4963L31.2105 24.4935L31.0118 24.4706ZM31.2176 20.881H31.0176V20.8811L31.2176 20.881ZM28.0191 7.80226L28.1912 7.70033L28.1911 7.7003L28.0191 7.80226ZM13.3169 7.80194L13.489 7.90387L13.489 7.90385L13.3169 7.80194ZM13.3169 33.9595L13.1449 34.0614L13.1449 34.0615L13.3169 33.9595ZM20.6677 40.607L20.4677 40.6062L20.4669 40.807H20.6677V40.607ZM1 20.8804H0.8H1ZM1.71214 20.1662V19.9662V20.1662ZM19.9555 1.86871H20.1555H19.9555ZM20.6677 1.15445V0.954452V1.15445ZM21.3798 1.86871H21.1798H21.3798ZM28.8653 41.0101L28.8653 40.8101H28.865L28.8653 41.0101ZM28.7664 41.0032L28.7947 40.8052L28.7942 40.8051L28.7664 41.0032ZM28.2425 40.6425L28.0675 40.7393L28.0676 40.7394L28.2425 40.6425ZM26.6253 37.719L26.8003 37.6222L26.7726 37.5721L26.7226 37.5443L26.6253 37.719ZM23.7103 36.0966L23.8076 35.9218L23.8075 35.9218L23.7103 36.0966ZM23.552 34.9671L23.4104 34.8259L23.4104 34.8259L23.552 34.9671ZM24.2066 34.3104L24.3482 34.4516L24.3485 34.4514L24.2066 34.3104ZM24.7999 34.107L24.7742 34.3053L24.7746 34.3054L24.7999 34.107ZM27.1218 34.4025L27.0965 34.6009L27.194 34.6133L27.2634 34.5437L27.1218 34.4025ZM30.7214 30.7923L30.8631 30.9336L31.0169 30.7793L30.8501 30.6392L30.7214 30.7923ZM25.5441 26.4433L25.6728 26.2902L25.6728 26.2902L25.5441 26.4433ZM25.4978 25.3907L25.3561 25.2495L25.3561 25.2495L25.4978 25.3907ZM26.5992 24.2861L26.7408 24.4273L26.7409 24.4273L26.5992 24.2861ZM27.3975 24.1409L27.4804 23.9589L27.4804 23.9589L27.3975 24.1409ZM34.241 27.262L34.158 27.444L34.2845 27.5017L34.3826 27.4032L34.241 27.262ZM37.4642 24.0299L37.6058 24.1712L37.6058 24.1712L37.4642 24.0299ZM40.274 26.8479L40.4156 26.9891L40.4156 26.9891L40.274 26.8479ZM37.051 30.0805L36.9093 29.9393L36.8117 30.0372L36.8688 30.1631L37.051 30.0805ZM40.1646 36.9459L40.3468 36.8633L40.1646 36.9459ZM40.02 37.7466L39.8783 37.6054H39.8783L40.02 37.7466ZM38.9187 38.8513L38.777 38.7101L38.777 38.7102L38.9187 38.8513ZM37.8691 38.805L37.7156 38.9332L37.7156 38.9332L37.8691 38.805ZM33.5314 33.6105L33.6849 33.4823L33.5445 33.3141L33.3898 33.4693L33.5314 33.6105ZM29.9317 37.2208L29.7901 37.0796L29.721 37.1488L29.7333 37.2459L29.9317 37.2208ZM30.2262 39.5496L30.0278 39.5747L30.2262 39.5496ZM30.0234 40.1445L29.8817 40.0033L29.8817 40.0033L30.0234 40.1445ZM29.3688 40.8011L29.5104 40.9424L29.5105 40.9423L29.3688 40.8011ZM25.9122 35.6885L25.9375 35.4901L25.815 35.8632L25.9122 35.6885ZM27.4948 36.5692L27.3975 36.744L27.3976 36.744L27.4948 36.5692ZM27.772 36.8472L27.9471 36.7504L27.947 36.7503L27.772 36.8472ZM28.6499 38.4344L28.4749 38.5312L28.8483 38.4094L28.6499 38.4344ZM28.4758 37.0535L28.6742 37.0285L28.6742 37.0284L28.4758 37.0535ZM28.6787 36.4586L28.8203 36.5998L28.8203 36.5998L28.6787 36.4586ZM33.0742 32.0486L32.9325 31.9074L32.9325 31.9074L33.0742 32.0486ZM34.1237 32.095L34.2772 31.9668L34.2772 31.9668L34.1237 32.095ZM38.4615 37.2894L38.308 37.4176L38.4484 37.5857L38.6031 37.4306L38.4615 37.2894ZM38.6637 37.0865L38.8054 37.2277L38.903 37.1298L38.8459 37.0039L38.6637 37.0865ZM35.5509 30.2211L35.733 30.1385L35.733 30.1385L35.5509 30.2211ZM35.6955 29.4203L35.5539 29.2791L35.5539 29.2791L35.6955 29.4203ZM39.2675 25.8376L39.4091 25.9789L39.4094 25.9786L39.2675 25.8376ZM39.4327 25.4351L39.6327 25.4346V25.4345L39.4327 25.4351ZM39.2675 25.0399L39.1259 25.1812L39.1266 25.1819L39.2675 25.0399ZM38.4719 25.0399L38.3304 24.8986L38.3303 24.8987L38.4719 25.0399ZM34.9 28.6223L34.7583 28.4811L34.7583 28.4811L34.9 28.6223ZM34.1016 28.7675L34.0186 28.9495L34.0186 28.9495L34.1016 28.7675ZM27.258 25.6464L27.341 25.4644L27.2146 25.4067L27.1164 25.5052L27.258 25.6464ZM27.0558 25.8492L26.9142 25.708L26.7604 25.8623L26.9271 26.0024L27.0558 25.8492ZM32.2331 30.1982L32.1044 30.3514L32.1044 30.3514L32.2331 30.1982ZM32.2794 31.2509L32.4211 31.3921L32.4211 31.3921L32.2794 31.2509ZM27.8828 35.6604L27.7412 35.5192L27.741 35.5194L27.8828 35.6604ZM27.2895 35.8639L27.3151 35.6655L27.3148 35.6655L27.2895 35.8639ZM20.6677 40.4064C16.8175 40.4063 13.0537 39.2612 9.85229 37.1157L9.62961 37.448C12.8968 39.6376 16.7381 40.8063 20.6677 40.8064L20.6677 40.4064ZM9.85229 37.1157C6.65088 34.9702 4.1556 31.9207 2.68209 28.3528L2.31238 28.5054C3.81602 32.1464 6.3624 35.2584 9.62961 37.448L9.85229 37.1157ZM2.68209 28.3528C1.20857 24.7848 0.823042 20.8586 1.57427 17.0709L1.18191 16.9931C0.415342 20.8582 0.808737 24.8645 2.31238 28.5054L2.68209 28.3528ZM1.57427 17.0709C2.3255 13.2831 4.17973 9.80391 6.90238 7.07321L6.61912 6.79079C3.84061 9.5775 1.94848 13.1279 1.18191 16.9931L1.57427 17.0709ZM6.90238 7.07321C9.62503 4.34252 13.0938 2.48297 16.8701 1.72961L16.7918 1.33734C12.9377 2.10622 9.39763 4.00407 6.61912 6.79079L6.90238 7.07321ZM16.8701 1.72961C20.6463 0.976259 24.5605 1.36292 28.1177 2.84072L28.2711 2.47133C24.6407 0.963101 20.6459 0.568462 16.7918 1.33734L16.8701 1.72961ZM28.1177 2.84072C31.6748 4.31852 34.7153 6.82113 36.8545 10.0322L37.1874 9.81039C35.0044 6.5336 31.9015 3.97955 28.2711 2.47133L28.1177 2.84072ZM36.8545 10.0322C38.9937 13.2432 40.1355 17.0184 40.1355 20.8804H40.5355C40.5355 16.9396 39.3704 13.0872 37.1874 9.81039L36.8545 10.0322ZM40.1355 20.8804C40.1355 21.3975 40.115 21.9206 40.0747 22.4346L40.4735 22.4658C40.5146 21.9414 40.5355 21.408 40.5355 20.8804H40.1355ZM40.0747 22.4346C40.0641 22.5707 39.9999 22.6969 39.8966 22.7855L40.1569 23.0892C40.3408 22.9316 40.4546 22.7074 40.4735 22.4658L40.0747 22.4346ZM39.8966 22.7855C39.7933 22.874 39.6593 22.9176 39.524 22.907L39.4926 23.3057C39.734 23.3247 39.9729 23.2468 40.1569 23.0892L39.8966 22.7855ZM39.524 22.907C39.3888 22.8963 39.2632 22.8322 39.1749 22.7285L38.8704 22.9879C39.0274 23.1723 39.2513 23.2867 39.4926 23.3057L39.524 22.907ZM39.1749 22.7285C39.0866 22.6248 39.0428 22.4901 39.0535 22.3539L38.6547 22.3227C38.6358 22.5642 38.7133 22.8035 38.8704 22.9879L39.1749 22.7285ZM39.0535 22.354C39.0919 21.8665 39.1112 21.3708 39.1112 20.8804H38.7112C38.7112 21.3604 38.6923 21.8456 38.6547 22.3226L39.0535 22.354ZM39.1112 20.8802C39.1069 17.0441 37.9122 13.3044 35.6928 10.18L35.3667 10.4117C37.5381 13.4684 38.707 17.1273 38.7112 20.8806L39.1112 20.8802ZM35.6928 10.18C33.4734 7.05565 30.3393 4.70152 26.7253 3.4444L26.5939 3.8222C30.1292 5.05196 33.1953 7.35493 35.3667 10.4117L35.6928 10.18ZM26.7253 3.4444C23.1114 2.18729 19.1969 2.08956 15.525 3.16479L15.6374 3.54867C19.2293 2.49685 23.0586 2.59244 26.5939 3.8222L26.7253 3.4444ZM15.525 3.16479C11.8532 4.24002 8.60616 6.43485 6.23449 9.44462L6.54867 9.69219C8.86897 6.74761 12.0455 4.60049 15.6374 3.54867L15.525 3.16479ZM6.23449 9.44462C3.86282 12.4544 2.48407 16.1298 2.28947 19.961L2.68895 19.9813C2.87936 16.2328 4.22836 12.6368 6.54867 9.69219L6.23449 9.44462ZM2.28947 19.961C2.09487 23.7921 3.09405 27.5891 5.14845 30.825L5.48614 30.6106C3.47619 27.4447 2.49855 23.7297 2.68895 19.9813L2.28947 19.961ZM5.14845 30.825C7.20285 34.0609 10.2106 36.5753 13.7545 38.0192L13.9054 37.6487C10.4386 36.2362 7.49608 33.7764 5.48614 30.6106L5.14845 30.825ZM13.7545 38.0192C17.2983 39.4631 21.2025 39.7649 24.9251 38.8826L24.8329 38.4934C21.1913 39.3565 17.3722 39.0613 13.9054 37.6487L13.7545 38.0192ZM24.9251 38.8826C24.9905 38.8671 25.0583 38.8647 25.1246 38.8755L25.1888 38.4807C25.0705 38.4615 24.9495 38.4658 24.8329 38.4934L24.9251 38.8826ZM25.1246 38.8755C25.1909 38.8863 25.2545 38.9101 25.3117 38.9455L25.5224 38.6055C25.4205 38.5424 25.3071 38.5 25.1888 38.4807L25.1246 38.8755ZM25.3117 38.9455C25.3689 38.981 25.4187 39.0274 25.458 39.0822L25.7828 38.8488C25.7128 38.7514 25.6244 38.6687 25.5224 38.6055L25.3117 38.9455ZM25.458 39.0822C25.4974 39.137 25.5257 39.1991 25.5412 39.2649L25.9305 39.1732C25.903 39.0564 25.8529 38.9462 25.7828 38.8488L25.458 39.0822ZM25.5412 39.2649C25.5567 39.3307 25.5591 39.3989 25.5483 39.4657L25.9432 39.5295C25.9623 39.4111 25.958 39.29 25.9305 39.1732L25.5412 39.2649ZM25.5483 39.4657C25.5375 39.5324 25.5137 39.5963 25.4783 39.6538L25.8189 39.8636C25.8818 39.7615 25.924 39.6479 25.9432 39.5295L25.5483 39.4657ZM25.4783 39.6538C25.4429 39.7113 25.3966 39.7612 25.342 39.8006L25.5764 40.1248C25.6736 40.0545 25.756 39.9658 25.8189 39.8636L25.4783 39.6538ZM25.342 39.8006C25.2875 39.8401 25.2257 39.8683 25.1603 39.8838L25.2525 40.2731C25.3692 40.2454 25.4792 40.195 25.5764 40.1248L25.342 39.8006ZM25.1604 39.8838C23.6881 40.2316 22.1804 40.4069 20.6678 40.4064L20.6676 40.8064C22.2113 40.8069 23.7498 40.628 25.2524 40.2731L25.1604 39.8838ZM20.6677 11.148C15.4565 11.148 10.7723 9.46006 8.1208 6.66497L7.8306 6.94026C10.5806 9.83919 15.3853 11.548 20.6677 11.548V11.148ZM8.11739 6.66146C8.06907 6.61295 8.03088 6.55521 8.0051 6.49161L7.63439 6.64187C7.68017 6.75481 7.74803 6.85746 7.83401 6.94377L8.11739 6.66146ZM8.0051 6.49161C7.97932 6.42802 7.96649 6.35987 7.96736 6.29118L7.5674 6.28609C7.56584 6.40796 7.58862 6.52893 7.63439 6.64187L8.0051 6.49161ZM7.96736 6.29118C7.96824 6.2225 7.98281 6.15471 8.01019 6.09179L7.64344 5.93214C7.5948 6.04387 7.56895 6.16422 7.5674 6.28609L7.96736 6.29118ZM8.01019 6.09179C8.03758 6.02888 8.07723 5.97214 8.12676 5.9249L7.85069 5.63544C7.76254 5.71951 7.69208 5.8204 7.64344 5.93214L8.01019 6.09179ZM8.12676 5.9249C8.1763 5.87765 8.23472 5.84086 8.29858 5.81665L8.1568 5.44262C8.04292 5.48579 7.93885 5.55136 7.85069 5.63544L8.12676 5.9249ZM8.29858 5.81665C8.36244 5.79244 8.43047 5.7813 8.49866 5.78387L8.51371 5.38415C8.39203 5.37957 8.27067 5.39946 8.1568 5.44262L8.29858 5.81665ZM8.49866 5.78387C8.56685 5.78644 8.63386 5.80266 8.69574 5.83161L8.86523 5.46929C8.75491 5.41769 8.63539 5.38873 8.51371 5.38415L8.49866 5.78387ZM8.69574 5.83161C8.75762 5.86056 8.81315 5.90165 8.85902 5.9525L9.15602 5.68456C9.0744 5.5941 8.97554 5.5209 8.86523 5.46929L8.69574 5.83161ZM8.86245 5.95621C11.3134 8.53866 15.8424 10.1195 20.6677 10.1195V9.71946C15.9098 9.71946 11.5031 8.15754 9.15259 5.68085L8.86245 5.95621ZM20.6677 10.1195C25.493 10.1195 30.0216 8.53866 32.4722 5.95587L32.182 5.68055C29.8318 8.15754 25.4256 9.71946 20.6677 9.71946V10.1195ZM32.4722 5.95588C32.5659 5.85712 32.6947 5.79987 32.8303 5.7965L32.8204 5.39662C32.5784 5.40263 32.3487 5.50483 32.182 5.68055L32.4722 5.95588ZM32.8303 5.7965C32.9659 5.79313 33.0974 5.84392 33.1959 5.93789L33.4721 5.64854C33.2968 5.4813 33.0624 5.39061 32.8204 5.39662L32.8303 5.7965ZM33.1959 5.93789C33.2943 6.03187 33.3517 6.16136 33.355 6.29791L33.7549 6.28804C33.7489 6.04581 33.6473 5.81576 33.4721 5.64854L33.1959 5.93789ZM33.355 6.29791C33.3584 6.43446 33.3075 6.56665 33.2138 6.66542L33.504 6.94075C33.6707 6.76506 33.7609 6.53026 33.7549 6.28804L33.355 6.29791ZM33.2138 6.66544C30.5626 9.46006 25.8786 11.148 20.6677 11.148V11.548C25.9497 11.548 30.7543 9.83919 33.504 6.94074L33.2138 6.66544ZM8.49217 35.9646C8.39214 35.9646 8.29427 35.9351 8.21066 35.8798L7.99 36.2135C8.13894 36.312 8.31348 36.3646 8.492 36.3646L8.49217 35.9646ZM8.21066 35.8798C8.12705 35.8245 8.06136 35.7458 8.0218 35.6533L7.65403 35.8106C7.72428 35.9749 7.84106 36.115 7.99 36.2135L8.21066 35.8798ZM8.0218 35.6533C7.98224 35.5608 7.97058 35.4587 7.9883 35.3596L7.59454 35.2892C7.5631 35.4651 7.58378 35.6463 7.65403 35.8106L8.0218 35.6533ZM7.9883 35.3596C8.00601 35.2604 8.05231 35.1688 8.12136 35.0959L7.831 34.8208C7.70816 34.9504 7.62598 35.1133 7.59454 35.2892L7.9883 35.3596ZM8.12127 35.096C10.7723 32.3017 15.4565 30.613 20.6682 30.613V30.213C15.3853 30.213 10.5806 31.9226 7.83109 34.8207L8.12127 35.096ZM20.6689 30.613C22.5623 30.6065 24.4488 30.8426 26.2826 31.3155L26.3825 30.9282C24.5156 30.4468 22.5951 30.2064 20.6675 30.213L20.6689 30.613ZM26.2819 31.3153C26.4132 31.3497 26.5257 31.435 26.5945 31.5527L26.9399 31.3509C26.8176 31.1418 26.6174 30.9897 26.3832 30.9284L26.2819 31.3153ZM26.5945 31.5527C26.6633 31.6705 26.6827 31.8109 26.6483 31.943L27.0354 32.0438C27.0964 31.8093 27.0621 31.5601 26.9399 31.3509L26.5945 31.5527ZM26.6483 31.943C26.6139 32.0752 26.5286 32.188 26.4115 32.2569L26.6142 32.6017C26.8229 32.479 26.9744 32.2783 27.0354 32.0438L26.6483 31.943ZM26.4115 32.2569C26.2943 32.3257 26.1548 32.3451 26.0235 32.3107L25.9222 32.6977C26.1565 32.759 26.4054 32.7244 26.6142 32.6017L26.4115 32.2569ZM26.0228 32.3105C24.2734 31.8597 22.4737 31.6348 20.6674 31.6415L20.6689 32.0415C22.441 32.035 24.2066 32.2555 25.9229 32.6978L26.0228 32.3105ZM20.6682 31.6415C15.8428 31.6415 11.3138 33.2223 8.86337 35.8054L9.15357 36.0807C11.5036 33.6034 15.9103 32.0415 20.6682 32.0415V31.6415ZM8.86335 35.8054C8.81549 35.8559 8.75792 35.896 8.69417 35.9234L8.8519 36.291C8.9657 36.2421 9.06835 36.1706 9.1536 36.0807L8.86335 35.8054ZM8.69417 35.9234C8.63041 35.9507 8.56179 35.9648 8.49248 35.9646L8.4917 36.3646C8.61552 36.3649 8.73809 36.3398 8.8519 36.291L8.69417 35.9234ZM20.6677 40.4064C17.4934 40.4064 14.5039 38.3664 12.2646 34.5866L11.9204 34.7905C14.2028 38.643 17.3033 40.8064 20.6677 40.8064V40.4064ZM12.2646 34.5866C10.0949 30.9238 8.89417 26.0574 8.89417 20.8804H8.49417C8.49417 26.114 9.70716 31.0542 11.9204 34.7905L12.2646 34.5866ZM8.89417 20.8804C8.89417 15.7034 10.0949 10.8371 12.2646 7.17341L11.9204 6.96958C9.70716 10.7068 8.49417 15.6468 8.49417 20.8804H8.89417ZM12.2646 7.17344C14.5035 3.39427 17.4941 1.3543 20.6677 1.3543V0.954297C17.3041 0.954297 14.2025 3.11762 11.9205 6.96955L12.2646 7.17344ZM20.6677 1.3543C23.8412 1.3543 26.8315 3.39426 29.0709 7.17407L29.4151 6.97018C27.1326 3.11764 24.0313 0.954297 20.6677 0.954297V1.3543ZM29.0709 7.17405C31.2405 10.8371 32.4412 15.704 32.4412 20.881H32.8412C32.8412 15.6474 31.6282 10.7068 29.4151 6.97021L29.0709 7.17405ZM32.4412 20.8811C32.4417 22.128 32.3704 23.3739 32.2278 24.6126L32.6251 24.6584C32.7696 23.4044 32.8417 22.1432 32.8412 20.881L32.4412 20.8811ZM32.2275 24.6151C32.2206 24.683 32.2002 24.7487 32.1678 24.8086L32.5194 24.9993C32.5771 24.893 32.6131 24.7762 32.6254 24.6558L32.2275 24.6151ZM32.1678 24.8086C32.1353 24.8684 32.0913 24.9212 32.0384 24.9638L32.2893 25.2754C32.3835 25.1995 32.4617 25.1057 32.5194 24.9993L32.1678 24.8086ZM32.0384 24.9638C31.9855 25.0064 31.9247 25.038 31.8596 25.0568L31.9706 25.4411C32.0867 25.4076 32.1951 25.3512 32.2893 25.2754L32.0384 24.9638ZM31.8596 25.0568C31.7945 25.0756 31.7263 25.0813 31.659 25.0734L31.6126 25.4707C31.7327 25.4847 31.8544 25.4747 31.9706 25.4411L31.8596 25.0568ZM31.659 25.0734C31.5917 25.0656 31.5266 25.0444 31.4674 25.0111L31.2711 25.3596C31.3765 25.4189 31.4926 25.4567 31.6126 25.4707L31.659 25.0734ZM31.4674 25.0111C31.4083 24.9778 31.3563 24.933 31.3145 24.8793L30.9989 25.125C31.0732 25.2205 31.1657 25.3002 31.2711 25.3596L31.4674 25.0111ZM31.3145 24.8793C31.2727 24.8256 31.242 24.7641 31.2241 24.6984L30.8381 24.8035C30.87 24.9203 30.9246 25.0296 30.9989 25.125L31.3145 24.8793ZM31.2241 24.6984C31.2061 24.6326 31.2014 24.5639 31.2102 24.4963L30.8135 24.4449C30.7979 24.5649 30.8063 24.6868 30.8381 24.8035L31.2241 24.6984ZM31.2105 24.4935C31.3487 23.2943 31.4178 22.0881 31.4176 20.881L31.0176 20.8811C31.0178 22.0729 30.9496 23.2637 30.8131 24.4477L31.2105 24.4935ZM31.4176 20.881C31.4176 15.901 30.2756 11.2196 28.1912 7.70033L27.847 7.90418C29.8876 11.3493 31.0176 15.9568 31.0176 20.881H31.4176ZM28.1911 7.7003C26.178 4.30313 23.5135 2.38312 20.6683 2.38312V2.78312C23.3165 2.78312 25.8721 4.57152 27.847 7.90421L28.1911 7.7003ZM20.6683 2.38312C17.8232 2.38312 15.1572 4.30194 13.1448 7.70003L13.489 7.90385C15.4631 4.57048 18.0201 2.78312 20.6683 2.78312V2.38312ZM13.1449 7.70001C11.0604 11.219 9.91846 15.9007 9.91846 20.8807H10.3185C10.3185 15.9564 11.4484 11.3487 13.489 7.90387L13.1449 7.70001ZM9.91846 20.8807C9.91846 25.8608 11.0604 30.542 13.1449 34.0614L13.489 33.8576C11.4484 30.4123 10.3185 25.805 10.3185 20.8807H9.91846ZM13.1449 34.0615C15.158 37.4586 17.8225 39.3785 20.6677 39.3785V38.9785C18.0195 38.9785 15.4639 37.1902 13.489 33.8575L13.1449 34.0615ZM20.6677 39.3785C20.8033 39.3785 20.9335 39.4325 21.0296 39.5289L21.3129 39.2465C21.1419 39.0749 20.9098 38.9785 20.6677 38.9785V39.3785ZM21.0296 39.5289C21.1257 39.6253 21.1798 39.7562 21.1798 39.8927H21.5798C21.5798 39.6504 21.4839 39.418 21.3129 39.2465L21.0296 39.5289ZM21.1798 39.8927C21.1798 40.0293 21.1257 40.1602 21.0296 40.2566L21.3129 40.539C21.4839 40.3675 21.5798 40.135 21.5798 39.8927H21.1798ZM21.0296 40.2566C20.9335 40.353 20.8033 40.407 20.6677 40.407V40.807C20.9098 40.807 21.1419 40.7105 21.3129 40.539L21.0296 40.2566ZM20.8677 40.6077L20.8677 40.6071L20.4677 40.6056L20.4677 40.6062L20.8677 40.6077ZM39.6234 21.3947H1.71214V21.7947H39.6234V21.3947ZM1.71214 21.3947C1.57651 21.3947 1.4463 21.3406 1.35021 21.2442L1.06695 21.5267C1.23797 21.6982 1.47004 21.7947 1.71214 21.7947V21.3947ZM1.35021 21.2442C1.2541 21.1479 1.2 21.017 1.2 20.8804H0.8C0.8 21.1227 0.895957 21.3552 1.06695 21.5267L1.35021 21.2442ZM1.2 20.8804C1.2 20.7438 1.2541 20.613 1.35021 20.5166L1.06695 20.2341C0.895957 20.4056 0.8 20.6381 0.8 20.8804H1.2ZM1.35021 20.5166C1.4463 20.4202 1.57651 20.3662 1.71214 20.3662V19.9662C1.47004 19.9662 1.23797 20.0626 1.06695 20.2341L1.35021 20.5166ZM1.71214 20.3662H39.6234V19.9662H1.71214V20.3662ZM39.6234 20.3662C39.759 20.3662 39.8892 20.4202 39.9853 20.5166L40.2686 20.2341C40.0976 20.0626 39.8655 19.9662 39.6234 19.9662V20.3662ZM39.9853 20.5166C40.0814 20.613 40.1355 20.7438 40.1355 20.8804H40.5355C40.5355 20.6381 40.4396 20.4056 40.2686 20.2341L39.9853 20.5166ZM40.1355 20.8804C40.1355 21.017 40.0814 21.1479 39.9853 21.2442L40.2686 21.5267C40.4396 21.3552 40.5355 21.1227 40.5355 20.8804H40.1355ZM39.9853 21.2442C39.8892 21.3406 39.759 21.3947 39.6234 21.3947V21.7947C39.8655 21.7947 40.0976 21.6982 40.2686 21.5267L39.9853 21.2442ZM20.6677 40.3895C20.5321 40.3895 20.4019 40.3355 20.3058 40.2391L20.0225 40.5215C20.1935 40.6931 20.4256 40.7895 20.6677 40.7895V40.3895ZM20.3058 40.2391C20.2097 40.1427 20.1555 40.0118 20.1555 39.8753H19.7555C19.7555 40.1176 19.8515 40.35 20.0225 40.5215L20.3058 40.2391ZM20.1555 39.8753V1.86871H19.7555V39.8753H20.1555ZM20.1555 1.86871C20.1555 1.73213 20.2097 1.60126 20.3058 1.50486L20.0225 1.22244C19.8515 1.39394 19.7555 1.62642 19.7555 1.86871H20.1555ZM20.3058 1.50486C20.4019 1.40849 20.5321 1.35445 20.6677 1.35445V0.954452C20.4256 0.954452 20.1935 1.05092 20.0225 1.22244L20.3058 1.50486ZM20.6677 1.35445C20.8033 1.35445 20.9335 1.40849 21.0296 1.50486L21.3129 1.22244C21.1419 1.05092 20.9098 0.954452 20.6677 0.954452V1.35445ZM21.0296 1.50486C21.1257 1.60126 21.1798 1.73213 21.1798 1.86871H21.5798C21.5798 1.62642 21.4839 1.39394 21.3129 1.22244L21.0296 1.50486ZM21.1798 1.86871V39.8753H21.5798V1.86871H21.1798ZM21.1798 39.8753C21.1798 40.0119 21.1257 40.1427 21.0296 40.2391L21.3129 40.5215C21.4839 40.35 21.5798 40.1176 21.5798 39.8753H21.1798ZM21.0296 40.2391C20.9335 40.3355 20.8033 40.3895 20.6677 40.3895V40.7895C20.9098 40.7895 21.1419 40.6931 21.3129 40.5215L21.0296 40.2391ZM28.865 40.8101C28.8415 40.8102 28.818 40.8085 28.7947 40.8052L28.738 41.2011C28.7802 41.2072 28.8228 41.2102 28.8655 41.2101L28.865 40.8101ZM28.7942 40.8051C28.7157 40.7941 28.6409 40.7649 28.5755 40.72L28.3487 41.0494C28.4651 41.1296 28.5986 41.1816 28.7385 41.2012L28.7942 40.8051ZM28.5755 40.72C28.5102 40.6749 28.4561 40.6153 28.4175 40.5457L28.0676 40.7394C28.136 40.8631 28.2323 40.9693 28.3487 41.0494L28.5755 40.72ZM28.4175 40.5457L26.8003 37.6222L26.4503 37.8158L28.0675 40.7393L28.4175 40.5457ZM26.7226 37.5443L23.8076 35.9218L23.613 36.2713L26.5281 37.8938L26.7226 37.5443ZM23.8075 35.9218C23.7382 35.8832 23.6787 35.829 23.6338 35.7634L23.3038 35.9894C23.3837 36.1061 23.4895 36.2026 23.613 36.2713L23.8075 35.9218ZM23.6338 35.7634C23.5888 35.6978 23.5597 35.6225 23.5486 35.5436L23.1525 35.5991C23.1721 35.7392 23.2239 35.8728 23.3038 35.9894L23.6338 35.7634ZM23.5486 35.5436C23.5375 35.4647 23.5449 35.3843 23.5701 35.3087L23.1906 35.1822C23.1459 35.3163 23.1329 35.4591 23.1525 35.5991L23.5486 35.5436ZM23.5701 35.3087C23.5953 35.2331 23.6376 35.1645 23.6937 35.1082L23.4104 34.8259C23.3106 34.9261 23.2354 35.048 23.1906 35.1822L23.5701 35.3087ZM23.6937 35.1083L24.3482 34.4516L24.0649 34.1692L23.4104 34.8259L23.6937 35.1083ZM24.3485 34.4514C24.4036 34.3959 24.4707 34.3539 24.5445 34.3285L24.4147 33.9502C24.2827 33.9954 24.163 34.0705 24.0647 34.1695L24.3485 34.4514ZM24.5445 34.3285C24.6183 34.3032 24.6968 34.2953 24.7742 34.3053L24.8256 33.9086C24.6872 33.8907 24.5466 33.9049 24.4147 33.9502L24.5445 34.3285ZM24.7746 34.3054L27.0965 34.6009L27.147 34.2041L24.8251 33.9086L24.7746 34.3054ZM27.2634 34.5437L30.8631 30.9336L30.5798 30.6511L26.9801 34.2613L27.2634 34.5437ZM30.8501 30.6392L25.6728 26.2902L25.4155 26.5965L30.5928 30.9455L30.8501 30.6392ZM25.6728 26.2902C25.6183 26.2444 25.5738 26.1877 25.5423 26.1237L25.1835 26.3005C25.2395 26.4142 25.3185 26.515 25.4155 26.5965L25.6728 26.2902ZM25.5423 26.1237C25.5108 26.0597 25.4928 25.9898 25.4897 25.9184L25.0901 25.936C25.0957 26.0627 25.1275 26.1868 25.1835 26.3005L25.5423 26.1237ZM25.4897 25.9184C25.4866 25.8471 25.4983 25.7758 25.524 25.7093L25.1511 25.5648C25.1053 25.683 25.0845 25.8094 25.0901 25.936L25.4897 25.9184ZM25.524 25.7093C25.5498 25.6427 25.5891 25.5823 25.6394 25.5319L25.3561 25.2495C25.2667 25.3392 25.1968 25.4466 25.1511 25.5648L25.524 25.7093ZM25.6394 25.5319L26.7408 24.4273L26.4576 24.1449L25.3561 25.2495L25.6394 25.5319ZM26.7409 24.4273C26.8146 24.3533 26.909 24.3038 27.0115 24.2851L26.9399 23.8916C26.7571 23.9249 26.5888 24.0133 26.4576 24.1449L26.7409 24.4273ZM27.0115 24.2851C27.114 24.2665 27.2197 24.2796 27.3145 24.3229L27.4804 23.9589C27.3113 23.8818 27.1227 23.8583 26.9399 23.8916L27.0115 24.2851ZM27.3145 24.3229L34.158 27.444L34.324 27.0801L27.4804 23.9589L27.3145 24.3229ZM34.3826 27.4032L37.6058 24.1712L37.3225 23.8887L34.0994 27.1208L34.3826 27.4032ZM37.6058 24.1712C37.9409 23.835 38.3953 23.6463 38.869 23.6463L38.869 23.2463C38.2888 23.2463 37.7326 23.4775 37.3225 23.8887L37.6058 24.1712ZM38.869 23.6463C39.3427 23.6463 39.7971 23.835 40.1323 24.1711L40.4155 23.8887C40.0055 23.4774 39.4492 23.2463 38.869 23.2463L38.869 23.6463ZM40.1323 24.1711C40.4674 24.5072 40.6558 24.9632 40.6558 25.4389L41.0558 25.4389C41.0558 24.8575 40.8256 24.2999 40.4155 23.8887L40.1323 24.1711ZM40.6558 25.4389C40.6559 25.9145 40.4675 26.3706 40.1323 26.7067L40.4156 26.9891C40.8256 26.5779 41.0559 26.0202 41.0558 25.4389L40.6558 25.4389ZM40.1323 26.7067L36.9093 29.9393L37.1926 30.2217L40.4156 26.9891L40.1323 26.7067ZM36.8688 30.1631L39.9825 37.0285L40.3468 36.8633L37.2331 29.9979L36.8688 30.1631ZM39.9825 37.0285C40.0257 37.1239 40.0389 37.2302 40.0203 37.3334L40.4139 37.4045C40.447 37.2215 40.4236 37.0326 40.3468 36.8633L39.9825 37.0285ZM40.0203 37.3334C40.0017 37.4365 39.9521 37.5314 39.8783 37.6054L40.1616 37.8878C40.2929 37.7562 40.3809 37.5875 40.4139 37.4045L40.0203 37.3334ZM39.8783 37.6054L38.777 38.7101L39.0603 38.9926L40.1616 37.8878L39.8783 37.6054ZM38.777 38.7102C38.7268 38.7606 38.6666 38.7999 38.6004 38.8257L38.7457 39.1984C38.8637 39.1524 38.9709 39.0823 39.0603 38.9925L38.777 38.7102ZM38.6004 38.8257C38.5343 38.8515 38.4635 38.8632 38.3926 38.8601L38.3749 39.2597C38.5014 39.2653 38.6277 39.2444 38.7457 39.1984L38.6004 38.8257ZM38.3926 38.8601C38.3217 38.857 38.2522 38.8391 38.1885 38.8075L38.0109 39.166C38.1244 39.2222 38.2484 39.2541 38.3749 39.2597L38.3926 38.8601ZM38.1885 38.8075C38.1248 38.776 38.0683 38.7315 38.0226 38.6768L37.7156 38.9332C37.7969 39.0305 37.8974 39.1097 38.0109 39.166L38.1885 38.8075ZM38.0227 38.6768L33.6849 33.4823L33.3779 33.7387L37.7156 38.9332L38.0227 38.6768ZM33.3898 33.4693L29.7901 37.0796L30.0734 37.362L33.673 33.7517L33.3898 33.4693ZM29.7333 37.2459L30.0278 39.5747L30.4247 39.5245L30.1302 37.1957L29.7333 37.2459ZM30.0278 39.5747C30.0377 39.6526 30.0296 39.7318 30.0043 39.8061L30.3829 39.9352C30.4279 39.8032 30.4422 39.6628 30.4247 39.5245L30.0278 39.5747ZM30.0043 39.8061C29.9789 39.8804 29.937 39.9478 29.8817 40.0033L30.165 40.2857C30.2634 40.187 30.3379 40.0671 30.3829 39.9352L30.0043 39.8061ZM29.8817 40.0033L29.2272 40.6599L29.5105 40.9423L30.165 40.2857L29.8817 40.0033ZM29.2272 40.6598C29.1311 40.7562 29.0009 40.8102 28.8653 40.8101L28.8652 41.2101C29.1073 41.2102 29.3394 41.1138 29.5104 40.9424L29.2272 40.6598ZM25.815 35.8632L27.3975 36.744L27.592 36.3945L26.0095 35.5137L25.815 35.8632ZM27.3976 36.744C27.4813 36.7906 27.5505 36.8599 27.5971 36.944L27.947 36.7503C27.8642 36.6008 27.7413 36.4775 27.592 36.3944L27.3976 36.744ZM27.597 36.944L28.4749 38.5312L28.8249 38.3376L27.9471 36.7504L27.597 36.944ZM28.8483 38.4094L28.6742 37.0285L28.2774 37.0785L28.4515 38.4594L28.8483 38.4094ZM28.6742 37.0284C28.6644 36.9505 28.6724 36.8713 28.6978 36.797L28.3192 36.6679C28.2742 36.7998 28.2599 36.9403 28.2774 37.0786L28.6742 37.0284ZM28.6978 36.797C28.7231 36.7227 28.765 36.6553 28.8203 36.5998L28.537 36.3174C28.4387 36.4161 28.3642 36.536 28.3192 36.6679L28.6978 36.797ZM28.8203 36.5998L33.2158 32.1898L32.9325 31.9074L28.537 36.3174L28.8203 36.5998ZM33.2158 32.1898C33.2661 32.1394 33.3263 32.1001 33.3924 32.0742L33.2471 31.7016C33.1291 31.7476 33.022 31.8177 32.9325 31.9074L33.2158 32.1898ZM33.3924 32.0742C33.4586 32.0484 33.5294 32.0367 33.6003 32.0399L33.618 31.6403C33.4914 31.6347 33.3652 31.6556 33.2471 31.7016L33.3924 32.0742ZM33.6003 32.0399C33.6712 32.043 33.7407 32.0609 33.8044 32.0924L33.9819 31.734C33.8684 31.6778 33.7445 31.6459 33.618 31.6403L33.6003 32.0399ZM33.8044 32.0924C33.8681 32.124 33.9246 32.1685 33.9702 32.2232L34.2772 31.9668C34.196 31.8695 34.0955 31.7902 33.9819 31.734L33.8044 32.0924ZM33.9702 32.2232L38.308 37.4176L38.615 37.1612L34.2772 31.9668L33.9702 32.2232ZM38.6031 37.4306L38.8054 37.2277L38.5221 36.9453L38.3199 37.1481L38.6031 37.4306ZM38.8459 37.0039L35.733 30.1385L35.3687 30.3037L38.4816 37.1691L38.8459 37.0039ZM35.733 30.1385C35.6898 30.0431 35.6766 29.9367 35.6952 29.8336L35.3016 29.7625C35.2685 29.9455 35.2919 30.1343 35.3687 30.3037L35.733 30.1385ZM35.6952 29.8336C35.7138 29.7304 35.7634 29.6355 35.8372 29.5615L35.5539 29.2791C35.4226 29.4108 35.3346 29.5794 35.3016 29.7625L35.6952 29.8336ZM35.8372 29.5616L39.4091 25.9789L39.1258 25.6964L35.5539 29.2791L35.8372 29.5616ZM39.4094 25.9786C39.4804 25.907 39.5367 25.8222 39.575 25.7288L39.205 25.5769C39.1866 25.6217 39.1596 25.6624 39.1256 25.6967L39.4094 25.9786ZM39.575 25.7288C39.6134 25.6355 39.6329 25.5355 39.6327 25.4346L39.2327 25.4356C39.2328 25.4841 39.2234 25.5321 39.205 25.5769L39.575 25.7288ZM39.6327 25.4345C39.6324 25.3347 39.6124 25.2359 39.5739 25.1438L39.2049 25.2981C39.2231 25.3417 39.2326 25.3884 39.2327 25.4357L39.6327 25.4345ZM39.5739 25.1438C39.5354 25.0517 39.4792 24.9682 39.4083 24.8979L39.1266 25.1819C39.1601 25.2151 39.1867 25.2545 39.2049 25.2981L39.5739 25.1438ZM39.409 24.8986C39.2661 24.7553 39.0721 24.6747 38.8697 24.6747V25.0747C38.9657 25.0747 39.0578 25.113 39.1259 25.1812L39.409 24.8986ZM38.8697 24.6747C38.6673 24.6747 38.4733 24.7553 38.3304 24.8986L38.6135 25.1812C38.6816 25.113 38.7737 25.0747 38.8697 25.0747V24.6747ZM38.3303 24.8987L34.7583 28.4811L35.0416 28.7635L38.6136 25.1811L38.3303 24.8987ZM34.7583 28.4811C34.6846 28.5551 34.5901 28.6047 34.4876 28.6233L34.5592 29.0169C34.7421 28.9836 34.9104 28.8952 35.0416 28.7635L34.7583 28.4811ZM34.4876 28.6233C34.3851 28.642 34.2794 28.6288 34.1846 28.5855L34.0186 28.9495C34.1877 29.0266 34.3763 29.0501 34.5592 29.0169L34.4876 28.6233ZM34.1846 28.5855L27.341 25.4644L27.175 25.8284L34.0186 28.9495L34.1846 28.5855ZM27.1164 25.5052L26.9142 25.708L27.1974 25.9904L27.3997 25.7876L27.1164 25.5052ZM26.9271 26.0024L32.1044 30.3514L32.3617 30.0451L27.1844 25.6961L26.9271 26.0024ZM32.1044 30.3514C32.1589 30.3972 32.2034 30.4538 32.2349 30.5178L32.5937 30.3411C32.5377 30.2274 32.4587 30.1266 32.3617 30.0451L32.1044 30.3514ZM32.2349 30.5178C32.2664 30.5818 32.2844 30.6518 32.2875 30.7231L32.6871 30.7055C32.6815 30.5789 32.6497 30.4548 32.5937 30.3411L32.2349 30.5178ZM32.2875 30.7231C32.2907 30.7945 32.2789 30.8657 32.2532 30.9323L32.6262 31.0768C32.6719 30.9586 32.6927 30.8322 32.6871 30.7055L32.2875 30.7231ZM32.2532 30.9323C32.2274 30.9989 32.1881 31.0593 32.1378 31.1097L32.4211 31.3921C32.5105 31.3024 32.5804 31.195 32.6262 31.0768L32.2532 30.9323ZM32.1378 31.1097L27.7412 35.5192L28.0244 35.8016L32.4211 31.3921L32.1378 31.1097ZM27.741 35.5194C27.6858 35.5749 27.6187 35.6169 27.5449 35.6422L27.6747 36.0205C27.8066 35.9753 27.9263 35.9003 28.0246 35.8014L27.741 35.5194ZM27.5449 35.6422C27.4711 35.6675 27.3925 35.6755 27.3151 35.6655L27.264 36.0622C27.4022 36.08 27.5428 36.0658 27.6747 36.0205L27.5449 35.6422ZM27.3148 35.6655L25.9375 35.4901L25.887 35.8869L27.2643 36.0623L27.3148 35.6655Z" fill="#BE7B51" mask="url(#path-1-outside-1_757:28)"/>
</svg>
