<svg width="268" height="42" viewBox="0 0 268 42" fill="none" xmlns="http://www.w3.org/2000/svg">
<path fill-rule="evenodd" clip-rule="evenodd" d="M46.6478 26.0304C46.6526 25.8704 46.6769 25.7154 46.6915 25.5579C46.7109 25.403 46.7207 25.2455 46.7474 25.093C46.9466 23.8582 47.4034 22.6934 48.0595 21.7286C48.7277 20.7688 49.5684 20.0114 50.4528 19.4465C51.3397 18.8816 52.2703 18.5042 53.1742 18.2442C54.0781 17.9843 54.9601 17.8468 55.7959 17.7818C56.6318 17.7243 57.4215 17.7443 58.1504 17.8043C58.3326 17.8218 58.5124 17.8418 58.6874 17.8593C58.8623 17.8868 59.0348 17.9118 59.2025 17.9368C59.3702 17.9593 59.5354 17.9918 59.6957 18.0243C59.8561 18.0568 60.0141 18.0843 60.1671 18.1218C60.3202 18.1593 60.4684 18.1968 60.6142 18.2342C60.6871 18.2517 60.7576 18.2717 60.8305 18.2892C60.9009 18.3092 60.969 18.3317 61.0394 18.3517C61.1755 18.3942 61.3091 18.4342 61.4403 18.4742C61.5691 18.5142 61.693 18.5617 61.8145 18.6042C62.784 18.9541 63.4959 19.3216 63.9625 19.594C64.0815 19.6565 64.1811 19.724 64.2686 19.779C64.3561 19.834 64.4266 19.879 64.4873 19.9164C64.6039 19.9914 64.6647 20.0289 64.6647 20.0289C64.6647 20.0289 64.6015 19.9964 64.48 19.9314C64.4193 19.8989 64.3439 19.859 64.2516 19.8115C64.1617 19.764 64.0572 19.7065 63.9357 19.6515C63.4522 19.419 62.7208 19.1091 61.7465 18.8366C61.625 18.8041 61.5011 18.7642 61.3699 18.7342C61.2411 18.7042 61.1075 18.6742 60.9714 18.6417C60.9034 18.6267 60.8353 18.6092 60.7649 18.5942C60.6944 18.5817 60.6239 18.5692 60.551 18.5542C60.4077 18.5292 60.2595 18.5017 60.1088 18.4742C59.9582 18.4492 59.8027 18.4317 59.6447 18.4117C59.4868 18.3892 59.3264 18.3667 59.1588 18.3567C58.9935 18.3417 58.8259 18.3292 58.6534 18.3142C58.4809 18.3067 58.3059 18.3017 58.1285 18.2942C57.4166 18.2792 56.6561 18.3067 55.8615 18.4092C55.067 18.5167 54.236 18.6967 53.4002 18.9841C52.5667 19.2741 51.7236 19.6665 50.9461 20.2164C50.171 20.7663 49.4639 21.4687 48.9196 22.321C48.3875 23.1809 48.0376 24.1857 47.8991 25.263C47.8797 25.398 47.8772 25.5354 47.8651 25.6704C47.8578 25.8079 47.8384 25.9454 47.8408 26.0803C47.8457 26.3503 47.8359 26.6252 47.8748 26.8952C47.8894 27.1701 47.955 27.4351 48.0036 27.7076C48.0376 27.84 48.0789 27.9725 48.1154 28.105C48.1469 28.24 48.2028 28.3674 48.2514 28.4974C48.3413 28.7624 48.4725 29.0098 48.594 29.2623C48.6645 29.3848 48.7374 29.5047 48.8103 29.6272L48.8637 29.7197L48.9245 29.8072L49.046 29.9846C49.3788 30.4521 49.7603 30.897 50.2025 31.2944C51.0724 32.1043 52.1172 32.7742 53.2471 33.3216C54.3794 33.869 55.5991 34.2939 56.8675 34.5963C57.5016 34.7438 58.1455 34.8713 58.7992 34.9538C59.4528 35.0362 60.1112 35.0887 60.7721 35.0962C60.9374 35.0962 61.1026 35.0987 61.2654 35.0937C61.4282 35.0862 61.5934 35.0812 61.7562 35.0737C61.9166 35.0612 62.0794 35.0462 62.2397 35.0337C62.4074 35.0138 62.5726 34.9913 62.7403 34.9688C63.4085 34.8813 64.0718 34.8088 64.7254 34.6813C65.0534 34.6238 65.379 34.5688 65.7046 34.5138C66.0302 34.4514 66.351 34.3789 66.6717 34.3114C66.9924 34.2414 67.3131 34.1789 67.629 34.1039C67.9449 34.0264 68.2608 33.9464 68.5742 33.869C71.0818 33.2366 73.4702 32.4517 75.7324 31.6519C77.9945 30.847 80.1352 30.0271 82.1495 29.2848C84.1638 28.5399 86.0541 27.87 87.7963 27.3051C88.671 27.0352 89.502 26.7702 90.2941 26.5453C91.0887 26.3178 91.8443 26.1253 92.5611 25.9754C93.9923 25.6779 95.2606 25.5654 96.2909 25.6454C96.806 25.6829 97.2579 25.7654 97.6418 25.8754C97.79 25.9179 97.9237 25.9654 98.05 26.0129C98.0913 26.0229 98.1302 26.0329 98.1715 26.0429C98.225 26.0578 98.2809 26.0703 98.3343 26.0878C98.3878 26.1053 98.4412 26.1203 98.4947 26.1378C98.5481 26.1553 98.5992 26.1753 98.6502 26.1953C98.7547 26.2303 98.8543 26.2778 98.9563 26.3203C99.1556 26.4128 99.3475 26.5103 99.5273 26.6252C99.7096 26.7352 99.8796 26.8627 100.045 26.9902C100.205 27.1252 100.358 27.2601 100.497 27.4101C101.061 27.995 101.423 28.7099 101.573 29.4023C101.649 29.7472 101.67 30.0896 101.651 30.4046C101.634 30.722 101.576 31.0145 101.5 31.2769C101.427 31.5419 101.321 31.7893 101.201 32.0268C101.17 32.0843 101.138 32.1443 101.107 32.2018C101.092 32.2317 101.075 32.2592 101.056 32.2892L101.002 32.3767C100.968 32.4342 100.927 32.4892 100.888 32.5442L100.83 32.6267L100.767 32.7042C100.599 32.9091 100.417 33.0966 100.22 33.2591C100.023 33.4215 99.8189 33.569 99.6075 33.6965C99.1847 33.9514 98.7401 34.1389 98.2906 34.2714C98.0646 34.3364 97.8411 34.3889 97.6151 34.4239C97.5033 34.4439 97.3891 34.4564 97.2774 34.4688C97.2215 34.4763 97.1656 34.4763 97.1097 34.4813C97.0538 34.4863 96.9979 34.4888 96.942 34.4888C96.8862 34.4913 96.8303 34.4913 96.7744 34.4938C96.7185 34.4938 96.6626 34.4913 96.6067 34.4888L96.5241 34.4863L96.4415 34.4788C96.3856 34.4738 96.3322 34.4713 96.2763 34.4664C96.2228 34.4589 96.1669 34.4514 96.1135 34.4464L96.0333 34.4364L95.9531 34.4214C95.8997 34.4114 95.8462 34.4014 95.7927 34.3914C95.7393 34.3789 95.6883 34.3664 95.6348 34.3514C95.5814 34.3389 95.5303 34.3239 95.4793 34.3064C95.4283 34.2889 95.3773 34.2739 95.3262 34.2564C95.2266 34.2164 95.127 34.1839 95.0298 34.1364C94.8354 34.0539 94.6556 33.9439 94.4831 33.829C94.4418 33.7965 94.4005 33.7665 94.3592 33.7365L94.2984 33.689L94.2401 33.639C94.2012 33.604 94.1624 33.5715 94.1259 33.539C94.0895 33.5015 94.0555 33.4665 94.019 33.429L93.9655 33.374C93.9485 33.354 93.934 33.334 93.9169 33.3166C93.8854 33.2766 93.8538 33.2391 93.8222 33.1991C93.793 33.1591 93.7639 33.1166 93.7371 33.0766L93.6958 33.0166C93.6837 32.9966 93.6715 32.9741 93.657 32.9516C93.6327 32.9091 93.6084 32.8666 93.5841 32.8241C93.5622 32.7792 93.5428 32.7367 93.5209 32.6917L93.4893 32.6267L93.4626 32.5592C93.4456 32.5142 93.4286 32.4692 93.4116 32.4267C93.397 32.3817 93.3848 32.3367 93.3727 32.2917C93.3654 32.2692 93.3581 32.2467 93.3532 32.2242L93.3387 32.1543C93.3289 32.1093 93.3192 32.0643 93.3119 32.0193C93.3046 31.9743 93.2998 31.9293 93.2949 31.8843C93.2925 31.8618 93.2876 31.8393 93.2876 31.8168L93.2852 31.7493C93.2828 31.7043 93.2803 31.6618 93.2779 31.6169C93.2779 31.5719 93.2803 31.5294 93.2803 31.4869L93.2828 31.4219C93.2852 31.3994 93.2852 31.3794 93.2876 31.3569C93.2925 31.3144 93.2949 31.2719 93.2998 31.2294C93.3046 31.1869 93.3144 31.1469 93.3216 31.1044C93.3338 31.022 93.3557 30.942 93.3751 30.8645C93.4577 30.552 93.6011 30.2796 93.7663 30.0521C93.934 29.8247 94.1259 29.6472 94.3227 29.5172C94.5195 29.3873 94.7163 29.2973 94.8986 29.2473C94.9204 29.2398 94.9423 29.2323 94.9666 29.2273C94.9885 29.2223 95.0103 29.2173 95.0322 29.2123C95.076 29.2023 95.1173 29.1948 95.1586 29.1848C95.2412 29.1748 95.3189 29.1648 95.3894 29.1623C95.4599 29.1623 95.5255 29.1623 95.5886 29.1598C95.6105 29.1623 95.6324 29.1648 95.6542 29.1673C96.0552 29.0498 96.4901 29.2423 96.6748 29.6397C96.8837 30.0846 96.6991 30.6195 96.2666 30.8345C95.834 31.0495 95.3141 30.8595 95.1051 30.4146C94.9423 30.0646 95.0201 29.6622 95.2703 29.3998C95.2485 29.4048 95.229 29.4097 95.2072 29.4172C95.1707 29.4297 95.1343 29.4422 95.0978 29.4547C95.0784 29.4622 95.059 29.4672 95.0395 29.4747C95.0201 29.4822 95.0006 29.4922 94.9812 29.4997C94.8257 29.5622 94.6629 29.6572 94.505 29.7847C94.347 29.9122 94.1964 30.0746 94.07 30.2746C93.9461 30.4746 93.8392 30.7095 93.7857 30.972C93.7736 31.037 93.759 31.1044 93.7517 31.1719C93.7493 31.2069 93.742 31.2419 93.7396 31.2744C93.7371 31.3094 93.7371 31.3444 93.7347 31.3794C93.7347 31.3969 93.7323 31.4144 93.7323 31.4319L93.7347 31.4869C93.7347 31.5219 93.7371 31.5594 93.7371 31.5944C93.742 31.6294 93.7444 31.6668 93.7493 31.7018L93.7542 31.7568C93.7566 31.7743 93.7614 31.7918 93.7639 31.8118C93.7712 31.8468 93.776 31.8843 93.7833 31.9218C93.793 31.9568 93.8027 31.9943 93.8125 32.0318L93.827 32.0868C93.8319 32.1043 93.8392 32.1218 93.8441 32.1418C93.8562 32.1768 93.8684 32.2143 93.8805 32.2492C93.8951 32.2842 93.9097 32.3192 93.9267 32.3542L93.9485 32.4067L93.9753 32.4592C93.9923 32.4942 94.0117 32.5292 94.0287 32.5642C94.0506 32.5967 94.07 32.6317 94.0919 32.6642C94.1016 32.6817 94.1138 32.6967 94.1235 32.7142L94.1599 32.7617C94.1842 32.7941 94.2085 32.8266 94.2328 32.8566C94.2595 32.8866 94.2863 32.9166 94.313 32.9491C94.3276 32.9641 94.3397 32.9791 94.3543 32.9941L94.398 33.0366C94.4272 33.0641 94.4564 33.0941 94.4879 33.1216C94.5195 33.1491 94.5535 33.1741 94.5851 33.2016L94.6337 33.2416L94.6872 33.2791C94.7212 33.3041 94.7577 33.3291 94.7917 33.3516C95.37 33.7265 96.1256 33.8989 96.9177 33.8515C96.9663 33.849 97.0174 33.844 97.066 33.8415C97.1145 33.8365 97.1656 33.834 97.2142 33.8265C97.3138 33.814 97.4134 33.8015 97.5155 33.7815C97.7171 33.7465 97.9164 33.6965 98.1156 33.6365C98.5141 33.514 98.9077 33.3391 99.2771 33.1141C99.4617 33.0016 99.6367 32.8716 99.8019 32.7317C99.9696 32.5917 100.12 32.4342 100.256 32.2642L100.307 32.2018L100.353 32.1368C100.385 32.0918 100.419 32.0493 100.446 32.0018L100.487 31.9318C100.502 31.9093 100.516 31.8868 100.528 31.8593C100.555 31.8093 100.582 31.7593 100.609 31.7093C100.706 31.5069 100.798 31.2969 100.859 31.0795C100.922 30.862 100.968 30.622 100.985 30.3646C101.002 30.1071 100.985 29.8297 100.924 29.5472C100.864 29.2623 100.762 28.9723 100.613 28.6899C100.579 28.6174 100.533 28.5499 100.494 28.4774C100.453 28.4074 100.404 28.3399 100.358 28.27C100.259 28.135 100.154 28 100.033 27.8725C99.9161 27.7425 99.7825 27.6251 99.6464 27.5051C99.5055 27.3926 99.3597 27.2801 99.1993 27.1826C99.0414 27.0802 98.8737 26.9927 98.7012 26.9102C98.6137 26.8727 98.5263 26.8302 98.4339 26.7977C98.3878 26.7802 98.344 26.7602 98.2979 26.7452C98.2517 26.7302 98.2055 26.7152 98.1594 26.7002C98.1132 26.6827 98.0646 26.6702 98.0184 26.6577C97.9698 26.6452 97.9237 26.6302 97.8751 26.6202C97.773 26.5978 97.6734 26.5753 97.5714 26.5528C97.5203 26.5428 97.4693 26.5278 97.4183 26.5203C97.3672 26.5103 97.3162 26.5028 97.2628 26.4928C97.2117 26.4828 97.1583 26.4753 97.1073 26.4653C97.0538 26.4553 97.0028 26.4453 96.9493 26.4403C96.8448 26.4278 96.7379 26.4153 96.6335 26.4028C96.5265 26.3903 96.4221 26.3878 96.3127 26.3803C96.2058 26.3703 96.0965 26.3728 95.9896 26.3703C95.9361 26.3703 95.8802 26.3703 95.8268 26.3703C95.7733 26.3703 95.7174 26.3753 95.664 26.3778C95.6105 26.3803 95.5546 26.3828 95.5012 26.3853C95.4453 26.3878 95.3918 26.3903 95.3359 26.3978C95.2266 26.4103 95.1173 26.4228 95.0055 26.4353C94.7431 26.4653 94.4782 26.4728 94.2158 26.5103C93.9825 26.5428 93.7493 26.5828 93.5136 26.6003C93.103 26.6277 92.6899 26.6702 92.2817 26.7277C92.1116 26.7502 91.3438 26.8552 91.3438 26.8552C91.3462 26.8527 91.3511 26.8527 91.3535 26.8502C91.0668 26.9427 90.7777 27.0402 90.4788 27.1452C89.7061 27.4126 88.8946 27.725 88.0441 28.0375C86.3457 28.6899 84.5015 29.4447 82.5212 30.2721C80.5409 31.0994 78.4294 31.9993 76.1673 32.8791C73.9076 33.7565 71.4973 34.6163 68.9314 35.3062C68.6107 35.3912 68.2875 35.4762 67.9643 35.5612C67.6387 35.6436 67.3083 35.7111 66.9803 35.7886C66.6498 35.8611 66.3194 35.9411 65.9865 36.0086C65.6512 36.0686 65.3134 36.1311 64.9757 36.1935C64.3026 36.3285 63.6126 36.4085 62.9201 36.5035C62.7476 36.526 62.5726 36.5485 62.4001 36.571C62.2179 36.586 62.0356 36.6035 61.8534 36.6185C61.6712 36.626 61.4889 36.6335 61.3067 36.641C61.1245 36.646 60.9447 36.6435 60.7624 36.6435C59.307 36.6235 57.8904 36.421 56.5273 36.0836C55.1642 35.7461 53.8545 35.2712 52.6251 34.6538C51.4004 34.0364 50.2511 33.2716 49.2744 32.3217C48.7811 31.8543 48.3438 31.3244 47.9671 30.762L47.8286 30.5495L47.7582 30.4446L47.695 30.3321C47.6124 30.1821 47.5322 30.0346 47.4496 29.8872C47.3087 29.5772 47.1604 29.2748 47.0608 28.9523C47.0049 28.7924 46.9466 28.6349 46.9102 28.4699C46.8689 28.3074 46.8251 28.145 46.7887 27.9825C46.7377 27.6526 46.6721 27.3276 46.6623 26.9977C46.6283 26.6702 46.6478 26.3453 46.6551 26.0254L46.6478 26.0304ZM54.168 29.2098C54.2093 29.3398 54.2846 29.4547 54.3769 29.5522C54.4693 29.6522 54.5713 29.7247 54.6855 29.8047C54.9091 29.9422 55.1545 30.0471 55.4388 30.0846C55.5821 30.1021 55.8251 30.1046 56.1288 30.1396C56.4301 30.1721 56.7897 30.2446 57.1323 30.3521C57.2174 30.3821 57.3048 30.4071 57.385 30.4371C57.4652 30.4671 57.5478 30.4996 57.6256 30.5296C57.7762 30.597 57.9244 30.657 58.0435 30.7195C58.1698 30.7745 58.2695 30.8295 58.3496 30.8595C58.4298 30.892 58.4881 30.902 58.5124 30.882C58.5343 30.8645 58.5367 30.8095 58.5197 30.722C58.5027 30.6345 58.4687 30.5096 58.408 30.3721C58.3521 30.2271 58.2622 30.0721 58.1601 29.8997C58.1042 29.8172 58.0459 29.7322 57.9827 29.6447C57.9171 29.5572 57.8467 29.4747 57.7714 29.3873C57.4725 29.0448 57.0886 28.7299 56.7047 28.5074C56.3232 28.2824 55.9417 28.1525 55.6963 28.1225C55.2079 28.055 54.7365 28.185 54.4571 28.4249C54.3162 28.5349 54.2214 28.6799 54.1753 28.8124C54.1267 28.9473 54.1267 29.0823 54.168 29.2123V29.2098ZM59.963 22.7059C59.8999 22.586 59.7686 22.5135 59.5816 22.491C59.4868 22.481 59.3774 22.476 59.2584 22.496C59.1393 22.516 59.0057 22.551 58.8623 22.5985C58.7214 22.656 58.5708 22.7284 58.4128 22.8209C58.2597 22.9259 58.0945 23.0334 57.939 23.1909C57.6256 23.4883 57.3194 23.9207 57.159 24.4656C57.0789 24.7356 57.023 25.1105 57.0497 25.5354C57.0813 25.9579 57.2101 26.4128 57.4166 26.8302C57.8321 27.6726 58.527 28.3449 59.2341 28.8174C59.5888 29.0548 59.9484 29.2448 60.2862 29.3923C60.6239 29.5397 60.9447 29.6372 61.2168 29.7072C61.7659 29.8372 62.1231 29.8247 62.1377 29.7697C62.1523 29.7122 61.8461 29.5472 61.4185 29.2423C61.2071 29.0873 60.9592 28.9023 60.7114 28.6799C60.4636 28.4574 60.2084 28.205 59.9727 27.9275C59.7371 27.6526 59.5232 27.3526 59.3507 27.0502C59.1782 26.7477 59.0543 26.4453 58.9862 26.1728C58.9182 25.9004 58.9036 25.6654 58.9182 25.4804C58.9377 25.2955 58.9765 25.153 59.0081 25.043C59.0713 24.8231 59.1709 24.6031 59.2948 24.3781C59.3483 24.2632 59.426 24.1582 59.4844 24.0457C59.5524 23.9382 59.6204 23.8332 59.6787 23.7258C59.7443 23.6258 59.8002 23.5258 59.8464 23.4283C59.8926 23.3308 59.9387 23.2459 59.9655 23.1584C60.0213 22.9859 60.0262 22.8309 59.963 22.7109V22.7059ZM64.8663 29.6797C64.8663 29.6797 64.9854 29.7197 65.2065 29.7922C65.3183 29.8297 65.4616 29.8597 65.6293 29.9047C65.7119 29.9272 65.8042 29.9397 65.9014 29.9622C65.9986 29.9796 66.1031 30.0046 66.2149 30.0196C67.1018 30.1621 68.4138 30.2171 70.0126 30.0621C71.6139 29.9122 73.5018 29.5647 75.5526 29.0223C76.5779 28.7499 77.6471 28.4299 78.7405 28.06C79.2872 27.875 79.8412 27.6776 80.4024 27.4626C80.9637 27.2501 81.5226 27.0177 82.0863 26.7827C83.2113 26.3078 84.2925 25.8254 85.3398 25.3955C86.387 24.9605 87.4051 24.5856 88.3892 24.2682C90.3622 23.6483 92.1966 23.2733 93.7493 23.1884C94.1381 23.1684 94.5074 23.1659 94.8573 23.1784C95.2072 23.1959 95.5352 23.2259 95.8389 23.2733C96.4488 23.3683 96.9615 23.5258 97.3624 23.7008C97.7657 23.8757 98.0549 24.0657 98.2468 24.2032C98.3416 24.2732 98.4096 24.3307 98.4582 24.3681C98.5068 24.4056 98.5287 24.4256 98.5287 24.4256C98.5287 24.4256 98.5068 24.4031 98.4655 24.3582C98.4218 24.3132 98.3635 24.2457 98.2784 24.1632C98.1059 24.0007 97.8386 23.7658 97.4474 23.5308C97.0562 23.2958 96.5436 23.0634 95.9167 22.8909C95.6032 22.8059 95.2655 22.7359 94.901 22.6784C94.539 22.626 94.1526 22.5885 93.7469 22.571C92.1213 22.501 90.1896 22.7359 88.1195 23.2633C87.0844 23.5333 86.0104 23.8782 84.9267 24.2907C83.843 24.7006 82.7448 25.168 81.6295 25.6379C81.0706 25.8704 80.5215 26.1053 79.9797 26.3203C79.4354 26.5378 78.896 26.7452 78.3639 26.9427C77.2996 27.3401 76.2645 27.6976 75.2731 28.0225C73.2904 28.6649 71.4754 29.1548 69.93 29.4522C68.3871 29.7572 67.1139 29.8547 66.2319 29.8297C66.1225 29.8297 66.0181 29.8197 65.9209 29.8147C65.8237 29.8072 65.7314 29.8072 65.6463 29.7947C65.4787 29.7747 65.3329 29.7647 65.2187 29.7447C64.9878 29.7047 64.8663 29.6847 64.8663 29.6847V29.6797ZM138.647 23.3108C138.63 23.2958 138.615 23.2808 138.601 23.2658C138.611 23.2683 138.623 23.2708 138.632 23.2733C138.637 23.2858 138.642 23.2983 138.645 23.3108H138.647ZM134.055 24.5606C134.626 26.8452 136.249 29.2848 139.075 29.2848C142.063 29.2848 144.658 27.2951 143.873 24.3232C143.171 21.6611 140.435 19.9389 137.692 21.3212C137.556 21.3912 137.454 21.5087 137.425 21.6436C137.379 21.7061 137.347 21.7786 137.323 21.8586C136.696 22.9134 137.6 24.3981 138.888 24.973C139.855 25.4055 141.181 25.6379 142.136 25.238C142.333 26.0429 142.16 26.9302 141.675 27.4601C141.5 27.6526 141.261 28.0025 140.955 28.1225C139.838 28.5549 138.416 28.6024 137.33 27.96C134.861 26.5028 134.46 23.1234 134.82 20.7063C135.279 17.6044 137.495 14.8598 141.035 14.4149C141.22 14.3924 141.405 14.3799 141.589 14.3699C141.631 14.3874 141.677 14.4024 141.73 14.4049C143.587 14.6299 145.635 15.2723 146.877 16.677C147.917 17.8543 149.153 19.659 148.279 21.0287C147.443 22.3385 148.646 21.8236 149.017 21.5362C149.875 20.8788 150.133 19.9239 150.227 18.9391C151.245 20.6288 152.385 22.5035 154.45 23.0984C156.453 23.6758 158.873 23.6783 160.561 22.456C160.785 22.2935 160.894 22.0161 160.765 21.8461C160.761 21.6511 160.505 21.5062 160.228 21.4962C157.772 21.3987 155.556 20.2264 153.546 18.9666C151.425 17.6369 149.411 16.1446 147.178 14.9798C145.275 13.985 143.059 13.2176 140.87 13.5526C138.725 13.8775 136.433 15.1073 135.267 16.8345C134.29 18.2792 133.8 20.0589 133.756 21.8311C133.712 20.0589 133.221 18.2792 132.247 16.8345C131.081 15.1073 128.787 13.8775 126.644 13.5526C124.455 13.2176 122.236 13.9875 120.336 14.9798C118.103 16.1446 116.089 17.6369 113.968 18.9666C111.958 20.2264 109.742 21.3987 107.286 21.4962C107.011 21.5062 106.754 21.6511 106.749 21.8461C106.62 22.0161 106.729 22.296 106.953 22.456C108.641 23.6808 111.062 23.6783 113.064 23.0984C115.131 22.501 116.271 20.6263 117.287 18.9391C117.381 19.9239 117.639 20.8788 118.497 21.5362C118.871 21.8236 120.074 22.3385 119.235 21.0287C118.358 19.6565 119.595 17.8543 120.637 16.677C121.879 15.2723 123.927 14.6299 125.784 14.4049C125.837 14.3999 125.881 14.3874 125.925 14.3699C126.107 14.3799 126.292 14.3924 126.476 14.4149C130.016 14.8573 132.23 17.6044 132.692 20.7063C133.051 23.1234 132.65 26.5003 130.182 27.96C129.095 28.6024 127.667 28.5749 126.556 28.1225C126.338 28.0325 126.012 27.7101 125.82 27.5126C125.317 26.9977 125.179 26.0404 125.375 25.238C126.333 25.6404 127.657 25.4055 128.624 24.973C129.912 24.3981 130.816 22.9134 130.189 21.8586C130.165 21.7811 130.131 21.7086 130.087 21.6436C130.058 21.5087 129.958 21.3887 129.82 21.3212C127.079 19.9364 124.34 21.6611 123.638 24.3232C122.853 27.2951 125.448 29.2848 128.437 29.2848C131.263 29.2848 132.886 26.8452 133.457 24.5606C133.637 23.8432 133.736 23.0934 133.753 22.336C133.773 23.0934 133.872 23.8457 134.05 24.5606H134.055ZM150.332 10.943C150.463 10.988 150.592 11.028 150.723 11.0705C150.837 11.1105 150.956 11.143 151.073 11.178C151.19 11.2105 151.306 11.2505 151.423 11.278C151.659 11.338 151.889 11.4055 152.127 11.4555C152.244 11.478 152.363 11.5104 152.48 11.5329C152.599 11.5554 152.715 11.5729 152.835 11.5954C152.893 11.6054 152.951 11.6179 153.012 11.6279L153.189 11.6504C153.308 11.6679 153.425 11.6829 153.544 11.7004C153.663 11.7129 153.785 11.7229 153.904 11.7354C154.023 11.7479 154.142 11.7629 154.261 11.7704C154.29 11.7754 154.317 11.7754 154.346 11.7804C154.343 11.7754 154.341 11.7754 154.336 11.7754C154.234 11.7354 154.103 11.7129 153.952 11.6929C154.086 11.7054 154.22 11.7204 154.356 11.7254C154.397 11.7429 154.431 11.7654 154.46 11.7879C154.511 11.7929 154.562 11.7979 154.616 11.8004C154.735 11.8104 154.851 11.8129 154.97 11.8229L155.148 11.8354L155.323 11.8404C155.439 11.8454 155.556 11.8504 155.673 11.8529C156.139 11.8579 156.596 11.8404 157.041 11.7854C157.096 11.7754 157.152 11.7729 157.208 11.7629C157.264 11.7529 157.32 11.7504 157.373 11.7404C157.483 11.7179 157.59 11.6954 157.699 11.6779C157.806 11.6504 157.913 11.6229 158.017 11.5954C158.071 11.5829 158.122 11.5679 158.175 11.5504C158.226 11.5379 158.28 11.5179 158.331 11.5004C158.382 11.483 158.435 11.468 158.484 11.4505C158.535 11.433 158.583 11.4105 158.634 11.3905C158.734 11.3555 158.836 11.313 158.933 11.268C159.031 11.223 159.128 11.183 159.225 11.133C159.32 11.083 159.414 11.038 159.507 10.988C159.553 10.9655 159.599 10.938 159.645 10.9106C159.691 10.8831 159.738 10.8556 159.781 10.8281C159.828 10.8006 159.871 10.7731 159.917 10.7456C159.964 10.7181 160.007 10.6906 160.051 10.6606C160.139 10.6056 160.226 10.5481 160.313 10.4931C160.355 10.4606 160.394 10.4306 160.435 10.4031C160.474 10.3756 160.515 10.3482 160.554 10.3132C160.593 10.2807 160.632 10.2557 160.668 10.2232C160.707 10.1907 160.744 10.1557 160.78 10.1232C160.855 10.0607 160.923 9.99322 160.991 9.92323C161.125 9.78325 161.254 9.63828 161.368 9.48831C161.485 9.33833 161.584 9.18086 161.679 9.02339C161.769 8.86092 161.854 8.70345 161.92 8.53598C161.992 8.3735 162.046 8.20603 162.094 8.04356C162.114 7.96108 162.138 7.88109 162.155 7.79861C162.17 7.71362 162.189 7.63614 162.199 7.55365C162.245 7.22871 162.248 6.91627 162.211 6.62382C162.175 6.33137 162.102 6.06392 162.002 5.81896C161.905 5.579 161.781 5.36654 161.655 5.18157C161.528 4.99161 161.375 4.82414 161.22 4.66667C161.178 4.63167 161.137 4.58918 161.098 4.55419C161.079 4.53169 161.057 4.51419 161.038 4.4992L160.977 4.44421C160.935 4.41171 160.892 4.38172 160.848 4.34922L160.782 4.30423L160.714 4.25924C160.532 4.14676 160.34 4.05178 160.141 3.97429C159.942 3.8968 159.738 3.83432 159.529 3.79432C159.113 3.70434 158.69 3.67684 158.28 3.69934C158.073 3.71184 157.872 3.73433 157.672 3.77183C157.573 3.78432 157.475 3.81182 157.378 3.83182C157.33 3.84431 157.281 3.85931 157.235 3.87181C157.186 3.88431 157.14 3.8993 157.094 3.9118C156.341 4.14176 155.692 4.57668 155.277 5.13658C155.252 5.16908 155.228 5.20407 155.204 5.24156L155.167 5.29656L155.136 5.35154C155.114 5.38904 155.092 5.42403 155.07 5.45903C155.051 5.49902 155.034 5.53651 155.014 5.5765L154.987 5.63149C154.98 5.64899 154.973 5.67149 154.963 5.68898C154.948 5.72398 154.931 5.76647 154.917 5.80146C154.905 5.84146 154.893 5.88395 154.88 5.91894L154.863 5.97893C154.859 5.99643 154.854 6.01893 154.849 6.03892C154.839 6.07892 154.832 6.12141 154.822 6.1564C154.817 6.19639 154.81 6.23889 154.805 6.27388L154.795 6.33637L154.791 6.39386C154.788 6.43135 154.786 6.47134 154.783 6.50634C154.783 6.54633 154.783 6.58882 154.783 6.62382C154.783 6.64131 154.783 6.66381 154.783 6.68131L154.788 6.7413C154.791 6.77629 154.795 6.81378 154.798 6.85378C154.803 6.88877 154.81 6.92626 154.815 6.96626C154.817 6.98375 154.82 7.00125 154.822 7.02125L154.834 7.07624C154.842 7.11373 154.851 7.14872 154.859 7.18372C154.868 7.21621 154.88 7.25121 154.89 7.2837L154.907 7.33869C154.914 7.35619 154.919 7.37118 154.927 7.38868C154.939 7.42118 154.953 7.45617 154.965 7.48866C154.98 7.52116 154.995 7.55115 155.009 7.58365C155.036 7.64614 155.072 7.70612 155.106 7.76361C155.242 7.99357 155.415 8.18354 155.597 8.32851C155.779 8.47849 155.974 8.57597 156.161 8.64596C156.348 8.70845 156.53 8.74594 156.698 8.75094C156.72 8.75594 156.739 8.75594 156.759 8.75594C156.778 8.75594 156.798 8.75594 156.819 8.75594C156.858 8.75594 156.897 8.75594 156.934 8.75094C156.955 8.75094 156.977 8.74594 156.997 8.74594C156.678 8.58347 156.477 8.22603 156.516 7.8336C156.564 7.33619 156.99 6.97625 157.461 7.02875C157.932 7.07874 158.277 7.52616 158.226 8.02357C158.183 8.47099 157.838 8.80593 157.427 8.83592C157.407 8.84592 157.388 8.85342 157.366 8.86342C157.31 8.88591 157.247 8.90841 157.181 8.93091C157.113 8.9534 157.038 8.9709 156.958 8.9909C156.917 8.99589 156.875 9.00339 156.832 9.00839C156.81 9.01339 156.788 9.01839 156.766 9.01839C156.744 9.02339 156.72 9.02339 156.698 9.02339C156.511 9.04089 156.299 9.02339 156.073 8.9684C155.848 8.90841 155.609 8.81093 155.383 8.65096C155.157 8.49348 154.936 8.28102 154.759 8.00857C154.715 7.94108 154.669 7.87359 154.633 7.80111C154.613 7.76611 154.591 7.72862 154.574 7.68863C154.557 7.65363 154.54 7.61114 154.521 7.57115C154.514 7.55365 154.504 7.53365 154.494 7.51116L154.472 7.45117C154.458 7.41118 154.443 7.36618 154.428 7.32369C154.416 7.2837 154.404 7.23871 154.392 7.19622L154.375 7.12873C154.37 7.10623 154.365 7.08374 154.36 7.06124C154.351 7.01625 154.343 6.97126 154.334 6.92626C154.326 6.88127 154.322 6.83628 154.317 6.79129L154.309 6.7188C154.307 6.6963 154.307 6.67381 154.305 6.64631C154.302 6.60132 154.3 6.55133 154.297 6.50634C154.297 6.45635 154.3 6.40636 154.3 6.35637L154.302 6.28388L154.309 6.21139C154.314 6.1614 154.319 6.11141 154.326 6.06142C154.336 6.01143 154.343 5.96144 154.353 5.91644C154.358 5.88895 154.363 5.86145 154.368 5.83896L154.387 5.76647C154.399 5.71648 154.414 5.66649 154.428 5.6165C154.446 5.57151 154.463 5.52151 154.48 5.47152C154.489 5.44903 154.497 5.42153 154.506 5.39904L154.538 5.32655C154.56 5.28156 154.582 5.23657 154.601 5.18657C154.625 5.14158 154.65 5.09659 154.676 5.0516L154.715 4.97911L154.757 4.91662C154.786 4.87163 154.812 4.82664 154.842 4.78665C154.965 4.61418 155.097 4.44671 155.25 4.29923C155.323 4.22175 155.405 4.15426 155.485 4.08177C155.527 4.04428 155.57 4.01428 155.612 3.98179C155.653 3.9468 155.697 3.9143 155.741 3.88181C155.784 3.85431 155.83 3.82432 155.874 3.79182C155.92 3.76433 155.967 3.73683 156.013 3.70684L156.083 3.66685L156.156 3.62685C156.205 3.60436 156.253 3.57686 156.302 3.54937C156.35 3.52687 156.401 3.50437 156.45 3.48188L156.525 3.44439L156.601 3.41189C156.652 3.39439 156.703 3.3719 156.754 3.3544C156.807 3.3369 156.858 3.31441 156.912 3.29441C156.965 3.27691 157.019 3.26192 157.072 3.24442C157.126 3.23192 157.179 3.21193 157.232 3.19943C157.342 3.17193 157.451 3.14444 157.563 3.12194C157.784 3.07695 158.012 3.04946 158.243 3.03196C158.705 2.99946 159.179 3.02196 159.655 3.11694C159.893 3.16693 160.131 3.23442 160.364 3.31941C160.6 3.40939 160.831 3.52187 161.052 3.65935L161.135 3.71434L161.215 3.76933C161.268 3.80932 161.324 3.84681 161.375 3.89181L161.453 3.95429C161.48 3.97679 161.504 3.99429 161.528 4.01678C161.577 4.06178 161.623 4.10677 161.672 4.15176C161.856 4.33673 162.039 4.53669 162.192 4.76665C162.347 4.98911 162.495 5.24906 162.614 5.54401C162.734 5.84146 162.823 6.1764 162.865 6.53383C162.95 7.24871 162.84 8.05106 162.505 8.81093C162.425 9.00089 162.325 9.18586 162.221 9.37083C162.109 9.5508 161.992 9.73326 161.859 9.89823C161.728 10.0707 161.579 10.2332 161.424 10.3906C161.344 10.4631 161.266 10.5431 161.181 10.6156C161.14 10.6531 161.096 10.6881 161.055 10.7231C161.011 10.7581 160.967 10.7906 160.923 10.8281C160.88 10.8631 160.833 10.8956 160.787 10.9281C160.741 10.9605 160.695 10.9955 160.649 11.028C160.556 11.0855 160.464 11.1455 160.369 11.2055C160.323 11.233 160.277 11.263 160.228 11.2905C160.18 11.318 160.131 11.348 160.083 11.3755C160.034 11.403 159.985 11.4305 159.937 11.458C159.888 11.4854 159.84 11.5179 159.789 11.5404C159.687 11.5954 159.585 11.6454 159.482 11.6929C159.38 11.7429 159.274 11.7879 159.167 11.8329C159.062 11.8829 158.95 11.9229 158.841 11.9629C158.785 11.9804 158.732 12.0029 158.676 12.0229C158.62 12.0454 158.564 12.0578 158.508 12.0778C158.452 12.0903 158.396 12.1103 158.338 12.1278C158.282 12.1453 158.224 12.1628 158.168 12.1728C158.054 12.2003 157.937 12.2278 157.82 12.2553C157.704 12.2778 157.585 12.2953 157.468 12.3178C157.41 12.3303 157.349 12.3353 157.291 12.3403C157.232 12.3503 157.172 12.3528 157.113 12.3628C156.637 12.4128 156.154 12.4253 155.673 12.4078C155.551 12.4078 155.432 12.3978 155.311 12.3953L154.946 12.3703C154.825 12.3603 154.706 12.3528 154.584 12.3428C154.463 12.3303 154.343 12.3153 154.222 12.3028C154.1 12.2928 153.979 12.2753 153.86 12.2628C153.738 12.2503 153.617 12.2303 153.495 12.2178L153.367 12.1978C153.588 12.2978 153.787 12.3928 153.967 12.4803C154.329 12.6102 154.776 12.7602 155.281 12.9677C155.787 13.1801 156.358 13.4201 156.98 13.6851C157.59 13.9775 158.251 14.3074 158.945 14.6574C159.626 15.0373 160.35 15.4297 161.079 15.8697C161.611 16.1971 162.131 16.5196 162.629 16.8345C163.137 17.1594 163.594 17.5144 164.021 17.8568C164.444 18.1992 164.845 18.5267 165.219 18.8316C165.593 19.1341 165.948 19.4065 166.276 19.644C166.937 20.1164 167.513 20.4314 167.928 20.6088C168.033 20.6513 168.125 20.6913 168.205 20.7238C168.288 20.7513 168.358 20.7738 168.414 20.7913C168.529 20.8288 168.587 20.8488 168.587 20.8488C168.587 20.8488 168.526 20.8388 168.407 20.8163C168.349 20.8063 168.276 20.7913 168.188 20.7763C168.103 20.7563 168.006 20.7288 167.897 20.6988C167.457 20.5738 166.835 20.3239 166.121 19.9039C165.766 19.6915 165.384 19.449 164.986 19.1716C164.587 18.8941 164.17 18.5917 163.732 18.2742C163.292 17.9593 162.836 17.6344 162.342 17.3369C161.837 17.037 161.317 16.7245 160.787 16.3996C160.061 15.9696 159.359 15.5522 158.693 15.1573C158.017 14.7824 157.381 14.4199 156.793 14.09C156.195 13.7825 155.648 13.4976 155.167 13.2401C154.686 12.9827 154.258 12.7827 153.913 12.6152C153.189 12.3628 152.132 12.0104 150.847 11.6529C149.562 11.3055 148.043 10.943 146.405 10.8131C146.255 10.8006 146.104 10.7856 145.956 10.7806C145.808 10.7706 145.659 10.7681 145.514 10.7631C145.222 10.7581 144.938 10.7681 144.656 10.7856C144.092 10.8256 143.545 10.9081 143.03 11.003C142.513 11.098 142.027 11.2205 141.572 11.3455C141.347 11.413 141.128 11.473 140.921 11.5404C140.817 11.5754 140.715 11.6079 140.615 11.6404C140.516 11.6754 140.421 11.7129 140.326 11.7479C139.893 11.9004 139.514 12.0653 139.194 12.2078C139.347 12.1903 139.5 12.1753 139.658 12.1628C140.392 11.8929 141.269 11.6204 142.27 11.4979C142.408 11.4755 142.552 11.4705 142.693 11.458C142.836 11.448 142.979 11.4355 143.128 11.4255C143.422 11.4255 143.72 11.403 144.024 11.4205C144.634 11.4305 145.261 11.4979 145.9 11.5929C147.635 11.8679 149.19 12.4053 150.492 12.8977C151.143 13.1502 151.731 13.3951 152.249 13.6151C152.507 13.7226 152.749 13.8225 152.968 13.9225C153.189 14.0275 153.389 14.1225 153.571 14.2025C153.758 14.27 153.967 14.3374 154.198 14.4199C154.424 14.5049 154.667 14.6049 154.929 14.7099C155.456 14.9098 156.035 15.1798 156.671 15.4697C157.935 16.0696 159.378 16.842 160.899 17.6968C162.017 18.3292 163.079 18.9291 164.055 19.424C165.049 19.8864 165.963 20.2664 166.755 20.5113C167.151 20.6313 167.506 20.7638 167.826 20.8338C168.147 20.9113 168.431 20.9863 168.648 21.0987C168.718 21.1337 168.779 21.1712 168.835 21.2112C168.925 21.2187 169.015 21.2262 169.104 21.2337C169.311 21.2487 169.518 21.2612 169.724 21.2737L170.033 21.2937L170.339 21.3062C170.543 21.3112 170.747 21.3237 170.951 21.3262C171.763 21.3412 172.562 21.3037 173.34 21.2112C173.437 21.1987 173.534 21.1837 173.629 21.1712C173.726 21.1587 173.823 21.1487 173.918 21.1262C174.107 21.0912 174.297 21.0537 174.486 21.0187C174.674 20.9713 174.858 20.9263 175.043 20.8788C175.135 20.8588 175.228 20.8288 175.317 20.7988C175.407 20.7688 175.497 20.7413 175.587 20.7138C175.677 20.6838 175.769 20.6613 175.857 20.6263C175.944 20.5913 176.032 20.5588 176.119 20.5238C176.294 20.4563 176.469 20.3939 176.639 20.3114C176.809 20.2339 176.979 20.1614 177.147 20.0789C177.312 19.9914 177.478 19.9064 177.64 19.8215C177.723 19.7815 177.803 19.734 177.881 19.6865C177.961 19.639 178.039 19.594 178.119 19.5465C178.199 19.499 178.277 19.454 178.355 19.4065C178.432 19.359 178.508 19.3066 178.585 19.2591C178.739 19.1591 178.889 19.0591 179.042 18.9616C179.115 18.9116 179.183 18.8591 179.254 18.8091C179.324 18.7592 179.395 18.7092 179.46 18.6542C179.528 18.5992 179.594 18.5467 179.662 18.4917C179.728 18.4367 179.791 18.3767 179.856 18.3217C179.987 18.2117 180.104 18.0893 180.226 17.9718C180.461 17.7293 180.682 17.4794 180.882 17.2119C181.086 16.952 181.258 16.6745 181.426 16.4021C181.581 16.1221 181.732 15.8422 181.849 15.5547C181.975 15.2698 182.067 14.9798 182.155 14.6949C182.189 14.5499 182.23 14.4049 182.259 14.265C182.286 14.12 182.32 13.98 182.335 13.835C182.415 13.2701 182.42 12.7227 182.357 12.2178C182.296 11.7079 182.167 11.238 181.994 10.8181C181.824 10.3981 181.611 10.0282 181.387 9.70077C181.166 9.37083 180.901 9.08088 180.627 8.80093C180.556 8.73344 180.483 8.66595 180.413 8.60096C180.376 8.56347 180.342 8.53348 180.306 8.50598L180.199 8.416C180.128 8.35351 180.051 8.30352 179.975 8.24853L179.861 8.16604L179.742 8.08856C179.426 7.88859 179.088 7.72362 178.739 7.59114C178.389 7.45617 178.032 7.34619 177.669 7.2737C176.943 7.12123 176.207 7.07124 175.488 7.11123C175.128 7.12873 174.773 7.17122 174.428 7.23371C174.253 7.2612 174.083 7.3062 173.913 7.34119C173.828 7.35869 173.745 7.38618 173.663 7.40868C173.58 7.43117 173.495 7.45367 173.415 7.48116C172.1 7.88359 170.971 8.63846 170.244 9.61329C170.2 9.67327 170.157 9.73576 170.115 9.79825L170.052 9.89323L169.996 9.98822C169.957 10.0507 169.921 10.1157 169.884 10.1782C169.853 10.2457 169.819 10.3082 169.787 10.3781L169.739 10.4781C169.724 10.5106 169.712 10.5456 169.697 10.5781C169.671 10.6456 169.644 10.7131 169.617 10.7781C169.595 10.8506 169.576 10.9181 169.554 10.9855L169.522 11.0855C169.513 11.123 169.505 11.158 169.498 11.1905C169.483 11.258 169.466 11.3255 169.452 11.398C169.442 11.4655 169.432 11.5329 169.42 11.6004L169.406 11.7054L169.398 11.8104C169.394 11.8779 169.389 11.9454 169.384 12.0129C169.384 12.0803 169.384 12.1478 169.386 12.2153C169.386 12.2478 169.386 12.2828 169.386 12.3153L169.394 12.4153C169.398 12.4828 169.406 12.5503 169.411 12.6152C169.42 12.6827 169.43 12.7452 169.44 12.8102C169.445 12.8427 169.449 12.8727 169.454 12.9052L169.476 13.0002C169.491 13.0627 169.505 13.1277 169.52 13.1901C169.539 13.2476 169.556 13.3126 169.576 13.3701L169.603 13.4601C169.612 13.4926 169.624 13.5201 169.637 13.5451C169.658 13.6051 169.68 13.6626 169.702 13.7176C169.726 13.7775 169.753 13.83 169.78 13.885C169.829 13.9975 169.889 14.0975 169.948 14.2025C170.183 14.6049 170.487 14.9348 170.803 15.1923C171.121 15.4497 171.459 15.6272 171.787 15.7422C172.115 15.8572 172.433 15.9172 172.722 15.9247C172.759 15.9272 172.795 15.9322 172.829 15.9322C172.866 15.9322 172.9 15.9297 172.934 15.9297C173.002 15.9272 173.07 15.9272 173.135 15.9272C173.174 15.9222 173.211 15.9197 173.247 15.9147C172.693 15.6322 172.341 15.0073 172.409 14.3249C172.496 13.4526 173.235 12.8252 174.059 12.9152C174.882 13.0052 175.48 13.7875 175.395 14.6549C175.317 15.4372 174.717 16.0196 174 16.0696C173.966 16.0871 173.932 16.1021 173.896 16.1196C173.796 16.1571 173.689 16.1971 173.573 16.2396C173.454 16.2771 173.323 16.3071 173.184 16.3421C173.114 16.3521 173.038 16.3646 172.963 16.3771C172.924 16.3821 172.885 16.3896 172.846 16.3946C172.807 16.3996 172.766 16.3996 172.725 16.4021C172.399 16.4321 172.03 16.3996 171.636 16.3046C171.243 16.2071 170.83 16.0271 170.431 15.7522C170.035 15.4772 169.651 15.1073 169.34 14.6374C169.265 14.5199 169.185 14.4024 169.119 14.2725C169.085 14.21 169.049 14.145 169.017 14.0775C168.988 14.01 168.956 13.9425 168.925 13.875C168.91 13.84 168.893 13.8075 168.878 13.77L168.84 13.6626C168.813 13.5901 168.789 13.5176 168.762 13.4451C168.74 13.3726 168.721 13.2951 168.699 13.2201L168.667 13.1077C168.657 13.0727 168.65 13.0302 168.643 12.9902C168.626 12.9127 168.611 12.8377 168.597 12.7552C168.584 12.6727 168.575 12.5928 168.565 12.5103L168.55 12.3878C168.548 12.3478 168.546 12.3053 168.543 12.2653C168.538 12.1803 168.536 12.0978 168.531 12.0129C168.533 11.9304 168.536 11.8454 168.538 11.7604L168.543 11.6329L168.555 11.5029C168.565 11.4205 168.575 11.3305 168.584 11.2455C168.601 11.163 168.616 11.073 168.633 10.988C168.643 10.948 168.65 10.9031 168.66 10.8606L168.694 10.7331C168.718 10.6481 168.74 10.5606 168.764 10.4756C168.793 10.3906 168.823 10.3032 168.854 10.2232C168.869 10.1782 168.883 10.1382 168.9 10.0957L168.956 9.96822C168.993 9.88574 169.029 9.80575 169.068 9.72077C169.112 9.64328 169.155 9.56329 169.197 9.48081L169.262 9.36333L169.335 9.24585C169.384 9.16836 169.435 9.09338 169.483 9.01589C169.697 8.72344 169.928 8.4285 170.198 8.17104C170.327 8.03107 170.47 7.91859 170.611 7.79111C170.684 7.72862 170.759 7.67363 170.832 7.61364C170.905 7.55615 170.98 7.49616 171.058 7.44617C171.136 7.39118 171.214 7.33869 171.291 7.2837C171.371 7.23371 171.454 7.18372 171.534 7.13373L171.656 7.06124L171.782 6.99375C171.867 6.94876 171.95 6.90377 172.035 6.85878C172.12 6.81878 172.207 6.77629 172.295 6.7363L172.426 6.67631L172.56 6.62132C172.65 6.58382 172.737 6.54883 172.829 6.51384C172.919 6.48134 173.012 6.45135 173.104 6.41885C173.196 6.38386 173.289 6.35637 173.383 6.32887C173.478 6.30137 173.57 6.27388 173.665 6.24639C173.855 6.20139 174.047 6.1514 174.241 6.11641C174.627 6.03892 175.026 5.98893 175.427 5.95894C176.231 5.90395 177.06 5.94644 177.891 6.11141C178.306 6.19389 178.719 6.31387 179.13 6.46385C179.54 6.61632 179.944 6.81128 180.33 7.05624L180.476 7.14622L180.617 7.24621C180.712 7.31369 180.806 7.37618 180.896 7.45367L181.032 7.56615C181.078 7.60114 181.122 7.63864 181.164 7.67863C181.246 7.75611 181.331 7.8361 181.414 7.91359C181.739 8.23853 182.053 8.58597 182.32 8.9809C182.59 9.37333 182.85 9.82575 183.059 10.3457C183.268 10.8606 183.423 11.443 183.496 12.0678C183.642 13.3101 183.455 14.7199 182.869 16.0421C182.728 16.3746 182.556 16.697 182.371 17.017C182.177 17.3319 181.973 17.6469 181.737 17.9418C181.509 18.2417 181.251 18.5242 180.979 18.7991C180.84 18.9316 180.702 19.0691 180.554 19.1941C180.481 19.2566 180.408 19.3216 180.333 19.384C180.255 19.444 180.179 19.504 180.102 19.5665C180.026 19.629 179.944 19.684 179.864 19.7415C179.783 19.7965 179.701 19.8565 179.621 19.9089C179.46 20.0114 179.297 20.1139 179.135 20.2189C179.052 20.2689 178.972 20.3239 178.889 20.3739C178.804 20.4214 178.719 20.4713 178.637 20.5188C178.551 20.5688 178.466 20.6163 178.381 20.6638C178.296 20.7138 178.211 20.7638 178.121 20.8063C177.944 20.8963 177.767 20.9863 177.589 21.0762C177.409 21.1637 177.222 21.2387 177.038 21.3212C176.853 21.4062 176.661 21.4737 176.472 21.5437C176.377 21.5786 176.28 21.6136 176.185 21.6486C176.09 21.6836 175.99 21.7086 175.891 21.7411C175.794 21.7711 175.694 21.8011 175.594 21.8286C175.497 21.8586 175.398 21.8886 175.296 21.9111C175.094 21.9586 174.892 22.0061 174.691 22.0536C174.486 22.0886 174.282 22.126 174.076 22.161C173.974 22.181 173.869 22.191 173.767 22.2035C173.663 22.216 173.561 22.2285 173.456 22.241C172.625 22.3285 171.782 22.351 170.939 22.321C170.728 22.3185 170.519 22.301 170.307 22.291L169.991 22.2735L169.675 22.2485C169.464 22.231 169.253 22.2135 169.041 22.196C168.83 22.1735 168.618 22.151 168.407 22.1311C168.196 22.1111 167.984 22.0861 167.775 22.0586C167.564 22.0311 167.353 22.0061 167.141 21.9811C166.927 21.9486 166.714 21.9161 166.5 21.8836L166.179 21.8336C166.072 21.8161 165.968 21.7936 165.861 21.7736C165.649 21.7311 165.435 21.6886 165.222 21.6461C165.01 21.6011 164.799 21.5462 164.587 21.4962C164.165 21.4012 163.747 21.2762 163.329 21.1587C163.12 21.1012 162.913 21.0312 162.707 20.9663C162.5 20.8988 162.291 20.8388 162.087 20.7663C161.677 20.6238 161.266 20.4838 160.863 20.3289C160.049 20.0289 159.254 19.694 158.462 19.359C157.675 19.0141 156.897 18.6642 156.129 18.3067C155.362 17.9493 154.603 17.5894 153.855 17.2369C153.104 16.882 152.366 16.5395 151.629 16.1971C150.162 15.5097 148.753 14.8274 147.377 14.2425C146.69 13.95 146.009 13.6901 145.341 13.4526C144.673 13.2226 144.012 13.0327 143.366 12.8702C142.107 12.5753 140.899 12.4353 139.789 12.4778C139.689 12.5053 139.592 12.5328 139.497 12.5603C139.096 12.6777 138.734 12.7852 138.416 12.8802C138.098 12.9702 137.821 13.0477 137.595 13.1102C137.315 13.1776 137.111 13.2276 136.997 13.2551C136.995 13.2501 136.995 13.2451 136.992 13.2426C137.102 13.2026 137.296 13.1252 137.568 13.0202C137.704 12.9602 137.86 12.8977 138.032 12.8252C138.054 12.8127 138.081 12.7902 138.117 12.7577C138.146 12.7402 138.178 12.7127 138.214 12.6802C138.176 12.6902 138.134 12.6977 138.098 12.7077C137.68 12.8202 137.298 12.9777 136.973 13.1951C136.968 13.1826 136.963 13.1726 136.961 13.1627C136.939 13.0952 136.912 13.0402 136.881 12.9852C137.218 12.7552 137.609 12.5728 138.032 12.4528C138.27 12.3803 138.521 12.3253 138.776 12.2803C139.14 12.0354 139.626 11.7529 140.231 11.468C140.324 11.423 140.421 11.378 140.518 11.333C140.618 11.293 140.717 11.248 140.822 11.2055C141.028 11.1105 141.247 11.033 141.473 10.948C141.927 10.7856 142.418 10.6281 142.948 10.5006C143.475 10.3706 144.036 10.2657 144.629 10.2082C144.923 10.1757 145.232 10.1632 145.538 10.1632C145.691 10.1682 145.844 10.1732 146 10.1757C146.155 10.1807 146.311 10.1932 146.466 10.2032C147.654 10.3032 148.765 10.5481 149.761 10.8381C149.96 10.8731 150.159 10.9081 150.359 10.9355L150.332 10.943ZM141.155 12.1678C141.519 12.1053 141.9 12.0553 142.299 12.0279C142.433 12.0154 142.571 12.0154 142.707 12.0104C142.846 12.0054 142.984 11.9979 143.125 11.9979C143.407 12.0079 143.696 11.9979 143.99 12.0254C144.576 12.0478 145.181 12.1253 145.8 12.2153C147.479 12.4828 149.025 12.9377 150.344 13.3451C151.002 13.5476 151.605 13.7425 152.14 13.915C152.404 14 152.657 14.0725 152.883 14.15C153.109 14.2275 153.318 14.2999 153.505 14.3624C153.685 14.4474 153.884 14.5374 154.103 14.6424C154.317 14.7499 154.55 14.8723 154.8 14.9998C155.303 15.2473 155.857 15.5622 156.47 15.8897C157.684 16.567 159.089 17.3969 160.612 18.2542C161.73 18.8866 162.819 19.4565 163.846 19.9164C164.886 20.3364 165.844 20.6513 166.667 20.8263C167.078 20.9113 167.447 21.0062 167.78 21.0437C168.108 21.0862 168.385 21.1262 168.599 21.2062C168.604 21.2087 168.609 21.2112 168.616 21.2137C168.567 21.2087 168.519 21.2062 168.47 21.2012C168.261 21.1837 168.055 21.1637 167.846 21.1412C167.637 21.1187 167.428 21.0962 167.219 21.0737C167.012 21.0462 166.806 21.0187 166.599 20.9888L166.291 20.9463C166.186 20.9313 166.084 20.9113 165.982 20.8913C165.776 20.8538 165.569 20.8163 165.363 20.7788C165.156 20.7388 164.952 20.6888 164.745 20.6438C164.332 20.5588 163.927 20.4438 163.516 20.3389C163.312 20.2864 163.11 20.2214 162.906 20.1639C162.702 20.1014 162.498 20.0489 162.296 19.9789C161.893 19.8465 161.487 19.719 161.089 19.5715C160.287 19.2916 159.495 18.9766 158.705 18.6592C157.92 18.3342 157.14 18.0018 156.372 17.6593C155.602 17.3194 154.839 16.9745 154.081 16.637C153.325 16.2971 152.572 15.9672 151.833 15.6447C150.359 14.9923 148.927 14.3374 147.525 13.7825C146.826 13.4976 146.131 13.2501 145.446 13.0277C144.76 12.8052 144.082 12.6302 143.422 12.4803C142.642 12.3178 141.883 12.2128 141.152 12.1728L141.155 12.1678ZM138.543 12.6152C138.472 12.6427 138.402 12.6752 138.334 12.7002C138.244 12.7352 138.159 12.7727 138.078 12.8052C138.088 12.8002 138.095 12.7952 138.108 12.7877C138.166 12.7552 138.241 12.7102 138.331 12.6577C138.402 12.6452 138.472 12.6302 138.543 12.6177V12.6152ZM128.879 23.2733C128.889 23.2708 128.901 23.2683 128.911 23.2658C128.896 23.2808 128.882 23.2958 128.865 23.3108C128.87 23.2983 128.874 23.2858 128.879 23.2733ZM117.18 10.943C117.051 10.988 116.92 11.028 116.789 11.0705C116.674 11.1105 116.555 11.143 116.439 11.178C116.322 11.2105 116.205 11.2505 116.089 11.278C115.856 11.338 115.62 11.4055 115.384 11.4555C115.268 11.478 115.148 11.5104 115.032 11.5329C114.913 11.5554 114.796 11.5729 114.677 11.5954C114.619 11.6054 114.56 11.6179 114.5 11.6279L114.322 11.6504C114.203 11.6679 114.087 11.6829 113.968 11.7004C113.849 11.7129 113.727 11.7229 113.608 11.7354C113.489 11.7479 113.37 11.7629 113.251 11.7704C113.222 11.7754 113.195 11.7754 113.166 11.7804C113.168 11.7754 113.171 11.7754 113.175 11.7754C113.278 11.7354 113.409 11.7129 113.559 11.6929C113.426 11.7054 113.292 11.7204 113.156 11.7254C113.115 11.7429 113.081 11.7654 113.049 11.7879C112.998 11.7929 112.947 11.7979 112.894 11.8004C112.775 11.8104 112.658 11.8129 112.539 11.8229L112.362 11.8354L112.187 11.8404C112.07 11.8454 111.951 11.8504 111.837 11.8529C111.37 11.8579 110.913 11.8404 110.469 11.7854C110.413 11.7754 110.357 11.7729 110.303 11.7629C110.248 11.7529 110.192 11.7504 110.138 11.7404C110.029 11.7179 109.92 11.6954 109.813 11.6779C109.706 11.6504 109.599 11.6229 109.494 11.5954C109.441 11.5829 109.39 11.5679 109.336 11.5504C109.285 11.5379 109.232 11.5179 109.181 11.5004C109.13 11.483 109.079 11.468 109.028 11.4505C108.977 11.433 108.926 11.4105 108.877 11.3905C108.778 11.3555 108.676 11.313 108.578 11.268C108.481 11.223 108.384 11.183 108.289 11.133C108.194 11.083 108.1 11.038 108.007 10.988C107.959 10.9655 107.915 10.938 107.869 10.9106C107.823 10.8831 107.779 10.8556 107.733 10.8281C107.687 10.8006 107.643 10.7731 107.597 10.7456C107.553 10.7181 107.509 10.6906 107.463 10.6606C107.376 10.6056 107.288 10.5481 107.201 10.4931C107.159 10.4606 107.12 10.4306 107.079 10.4031C107.038 10.3756 106.999 10.3482 106.96 10.3132C106.921 10.2807 106.882 10.2557 106.846 10.2232C106.807 10.1907 106.773 10.1557 106.734 10.1232C106.659 10.0607 106.591 9.99322 106.523 9.92323C106.389 9.78325 106.26 9.63828 106.149 9.48831C106.032 9.33833 105.932 9.18086 105.838 9.02339C105.748 8.86092 105.663 8.70345 105.595 8.53598C105.524 8.3735 105.468 8.20603 105.42 8.04356C105.4 7.96108 105.376 7.88109 105.359 7.79861C105.344 7.71362 105.325 7.63614 105.315 7.55365C105.269 7.22871 105.267 6.91627 105.303 6.62382C105.339 6.33137 105.412 6.06392 105.512 5.81896C105.609 5.579 105.733 5.36654 105.859 5.18157C105.986 4.99161 106.139 4.82414 106.297 4.66667C106.338 4.63167 106.379 4.58918 106.418 4.55419C106.438 4.53169 106.46 4.51419 106.481 4.4992L106.542 4.44421C106.581 4.41171 106.627 4.38172 106.671 4.34922L106.737 4.30423L106.805 4.25924C106.984 4.14676 107.179 4.05178 107.378 3.97429C107.577 3.8968 107.784 3.83432 107.99 3.79432C108.406 3.70434 108.829 3.67684 109.239 3.69934C109.446 3.71184 109.647 3.73433 109.847 3.77183C109.946 3.78432 110.043 3.81182 110.141 3.83182C110.189 3.84431 110.238 3.85931 110.284 3.87181C110.333 3.88431 110.379 3.8993 110.427 3.9118C111.181 4.14176 111.829 4.57668 112.245 5.13658C112.269 5.16908 112.293 5.20407 112.318 5.24156L112.354 5.29656L112.386 5.35154C112.408 5.38904 112.43 5.42403 112.451 5.45903C112.471 5.49902 112.488 5.53651 112.507 5.5765L112.534 5.63149C112.541 5.64899 112.549 5.67149 112.556 5.68898C112.57 5.72398 112.587 5.76647 112.602 5.80146C112.614 5.84146 112.626 5.88395 112.638 5.91894L112.658 5.97893C112.663 5.99643 112.668 6.01893 112.673 6.03892C112.682 6.07892 112.69 6.12141 112.699 6.1564C112.704 6.19639 112.711 6.23889 112.716 6.27388L112.726 6.33637L112.731 6.39386C112.733 6.43135 112.736 6.47134 112.738 6.50634C112.738 6.54633 112.738 6.58882 112.738 6.62382C112.738 6.64131 112.738 6.66381 112.738 6.68131L112.733 6.7413C112.731 6.77629 112.726 6.81378 112.724 6.85378C112.719 6.88877 112.711 6.92626 112.707 6.96626C112.704 6.98375 112.702 7.00125 112.697 7.02125L112.685 7.07624C112.677 7.11373 112.668 7.14872 112.66 7.18372C112.648 7.21621 112.638 7.25121 112.629 7.2837L112.612 7.33869C112.607 7.35619 112.6 7.37118 112.592 7.38868C112.58 7.42118 112.566 7.45617 112.553 7.48866C112.539 7.52116 112.524 7.55115 112.51 7.58365C112.483 7.64614 112.447 7.70612 112.415 7.76361C112.279 7.99357 112.106 8.18354 111.924 8.32851C111.742 8.47849 111.55 8.57597 111.36 8.64596C111.173 8.70845 110.991 8.74594 110.823 8.75094C110.802 8.75594 110.782 8.75594 110.763 8.75594C110.743 8.75594 110.724 8.75594 110.702 8.75594C110.663 8.75594 110.624 8.75594 110.588 8.75094C110.566 8.75094 110.544 8.74594 110.525 8.74594C110.843 8.58347 111.045 8.22603 111.006 7.8336C110.955 7.33619 110.532 6.97625 110.06 7.02875C109.587 7.07874 109.244 7.52616 109.295 8.02357C109.339 8.47099 109.684 8.80593 110.095 8.83592C110.114 8.84592 110.133 8.85342 110.153 8.86342C110.211 8.88591 110.272 8.90841 110.337 8.93091C110.406 8.9534 110.481 8.9709 110.561 8.9909C110.602 8.99589 110.644 9.00339 110.687 9.00839C110.709 9.01339 110.731 9.01839 110.753 9.01839C110.775 9.02339 110.799 9.02339 110.823 9.02339C111.011 9.04089 111.222 9.02339 111.448 8.9684C111.674 8.90841 111.912 8.81093 112.138 8.65096C112.364 8.49348 112.585 8.28102 112.762 8.00857C112.806 7.94108 112.852 7.87359 112.889 7.80111C112.908 7.76611 112.93 7.72862 112.947 7.68863C112.964 7.65363 112.981 7.61114 113.001 7.57115C113.01 7.55365 113.018 7.53365 113.027 7.51116L113.049 7.45117C113.064 7.41118 113.078 7.36618 113.093 7.32369C113.105 7.2837 113.117 7.23871 113.129 7.19622L113.149 7.12873C113.154 7.10623 113.158 7.08374 113.163 7.06124C113.173 7.01625 113.18 6.97126 113.19 6.92626C113.197 6.88127 113.202 6.83628 113.207 6.79129L113.214 6.7188C113.217 6.6963 113.217 6.67381 113.219 6.64631C113.222 6.60132 113.224 6.55133 113.227 6.50634C113.224 6.45635 113.224 6.40636 113.222 6.35637L113.219 6.28388L113.212 6.21139C113.207 6.1614 113.2 6.11141 113.195 6.06142C113.185 6.01143 113.175 5.96144 113.168 5.91644C113.163 5.88895 113.158 5.86145 113.154 5.83896L113.134 5.76647C113.122 5.71648 113.107 5.66649 113.095 5.6165C113.078 5.57151 113.061 5.52151 113.044 5.47152C113.035 5.44903 113.027 5.42153 113.018 5.39904L112.986 5.32655C112.964 5.28156 112.942 5.23657 112.923 5.18657C112.898 5.14158 112.874 5.09659 112.847 5.0516L112.809 4.97911L112.767 4.91662C112.738 4.87163 112.711 4.82664 112.682 4.78665C112.558 4.61418 112.427 4.44671 112.272 4.29923C112.199 4.22175 112.116 4.15426 112.036 4.08177C111.995 4.04428 111.951 4.01428 111.91 3.98179C111.868 3.9468 111.825 3.9143 111.778 3.88181C111.735 3.85431 111.688 3.82432 111.645 3.79182C111.599 3.76433 111.552 3.73683 111.506 3.70684L111.436 3.66685L111.363 3.62685C111.314 3.60436 111.266 3.57686 111.217 3.54937C111.168 3.52687 111.117 3.50437 111.069 3.48188L110.994 3.44439L110.916 3.41189C110.865 3.39439 110.814 3.3719 110.763 3.3544C110.709 3.3369 110.658 3.31441 110.605 3.29441C110.551 3.27691 110.498 3.26192 110.444 3.24442C110.391 3.23192 110.337 3.21193 110.282 3.19943C110.172 3.17193 110.063 3.14444 109.951 3.12194C109.73 3.07695 109.502 3.04946 109.271 3.03196C108.809 2.99946 108.335 3.02196 107.859 3.11694C107.621 3.16693 107.383 3.23442 107.15 3.31941C106.914 3.40939 106.683 3.52187 106.462 3.65935L106.379 3.71434L106.299 3.76933C106.246 3.80932 106.19 3.84681 106.139 3.89181L106.061 3.95429C106.034 3.97679 106.01 3.99429 105.986 4.01678C105.937 4.06178 105.891 4.10677 105.842 4.15176C105.655 4.33673 105.475 4.53669 105.322 4.76665C105.167 4.98911 105.019 5.24906 104.9 5.54401C104.781 5.84146 104.691 6.1764 104.649 6.53383C104.564 7.24871 104.674 8.05106 105.009 8.81093C105.089 9.00089 105.189 9.18586 105.293 9.37083C105.405 9.5508 105.522 9.73326 105.658 9.89823C105.789 10.0707 105.937 10.2332 106.093 10.3906C106.173 10.4631 106.251 10.5431 106.336 10.6156C106.377 10.6531 106.421 10.6881 106.462 10.7231C106.506 10.7581 106.549 10.7906 106.596 10.8281C106.639 10.8631 106.686 10.8956 106.732 10.9281C106.778 10.9605 106.824 10.9955 106.87 11.028C106.962 11.0855 107.055 11.1455 107.15 11.2055C107.198 11.233 107.242 11.263 107.291 11.2905C107.339 11.318 107.388 11.348 107.436 11.3755C107.485 11.403 107.534 11.4305 107.582 11.458C107.631 11.4854 107.679 11.5179 107.73 11.5404C107.832 11.5954 107.934 11.6454 108.036 11.6929C108.139 11.7429 108.248 11.7879 108.352 11.8329C108.457 11.8829 108.569 11.9229 108.678 11.9629C108.731 11.9804 108.787 12.0029 108.843 12.0229C108.899 12.0454 108.955 12.0578 109.011 12.0778C109.067 12.0903 109.123 12.1103 109.181 12.1278C109.237 12.1453 109.295 12.1628 109.351 12.1728C109.468 12.2003 109.582 12.2278 109.698 12.2553C109.815 12.2778 109.934 12.2953 110.051 12.3178C110.109 12.3303 110.17 12.3353 110.228 12.3403C110.286 12.3503 110.347 12.3528 110.406 12.3628C110.882 12.4128 111.365 12.4253 111.846 12.4078C111.968 12.4078 112.087 12.3978 112.208 12.3953L112.573 12.3703C112.694 12.3603 112.816 12.3528 112.935 12.3428C113.056 12.3303 113.175 12.3153 113.297 12.3028C113.418 12.2928 113.54 12.2753 113.659 12.2628C113.78 12.2503 113.902 12.2303 114.021 12.2178L114.152 12.1978C113.931 12.2978 113.732 12.3928 113.552 12.4803C113.19 12.6102 112.743 12.7602 112.238 12.9677C111.735 13.1801 111.164 13.4201 110.539 13.6851C109.929 13.9775 109.268 14.3074 108.573 14.6574C107.893 15.0373 107.169 15.4297 106.44 15.8697C105.906 16.1971 105.388 16.5196 104.887 16.8345C104.38 17.1594 103.923 17.5144 103.495 17.8568C103.072 18.1992 102.671 18.5267 102.297 18.8316C101.923 19.1341 101.568 19.4065 101.24 19.644C100.579 20.1164 100.004 20.4314 99.5881 20.6088C99.4836 20.6513 99.3913 20.6913 99.3111 20.7238C99.2285 20.7513 99.158 20.7738 99.1021 20.7913C98.9879 20.8288 98.9296 20.8488 98.9296 20.8488C98.9296 20.8488 98.9928 20.8388 99.1094 20.8163C99.1677 20.8063 99.2406 20.7913 99.3281 20.7763C99.4131 20.7563 99.5103 20.7288 99.6197 20.6988C100.059 20.5738 100.681 20.3239 101.393 19.9039C101.748 19.6915 102.13 19.449 102.528 19.1716C102.927 18.8941 103.345 18.5917 103.782 18.2742C104.222 17.9593 104.678 17.6344 105.172 17.3369C105.677 17.037 106.197 16.7245 106.727 16.3996C107.453 15.9696 108.156 15.5522 108.821 15.1573C109.497 14.7824 110.133 14.4199 110.721 14.09C111.319 13.7825 111.866 13.4976 112.347 13.2401C112.828 12.9827 113.256 12.7827 113.601 12.6152C114.325 12.3628 115.382 12.0104 116.667 11.6529C117.952 11.3055 119.471 10.943 121.109 10.8131C121.259 10.8006 121.408 10.7856 121.558 10.7806C121.706 10.7706 121.855 10.7681 122 10.7631C122.292 10.7581 122.576 10.7681 122.858 10.7856C123.422 10.8256 123.969 10.9081 124.484 11.003C125.001 11.098 125.487 11.2205 125.942 11.3455C126.168 11.413 126.386 11.473 126.593 11.5404C126.697 11.5754 126.799 11.6079 126.899 11.6404C126.999 11.6754 127.096 11.7129 127.188 11.7479C127.623 11.9004 128 12.0653 128.32 12.2078C128.167 12.1903 128.014 12.1753 127.856 12.1628C127.122 11.8929 126.245 11.6204 125.244 11.4979C125.106 11.4755 124.962 11.4705 124.821 11.458C124.678 11.448 124.535 11.4355 124.387 11.4255C124.093 11.4255 123.794 11.403 123.49 11.4205C122.88 11.4305 122.253 11.4979 121.614 11.5929C119.879 11.8679 118.322 12.4053 117.022 12.8977C116.371 13.1502 115.783 13.3951 115.265 13.6151C115.008 13.7226 114.765 13.8225 114.543 13.9225C114.325 14.0275 114.123 14.1225 113.941 14.2025C113.754 14.27 113.545 14.3374 113.314 14.4199C113.088 14.5049 112.845 14.6049 112.583 14.7099C112.055 14.9098 111.477 15.1798 110.84 15.4697C109.577 16.0696 108.134 16.842 106.613 17.6968C105.495 18.3292 104.433 18.9291 103.456 19.424C102.463 19.8864 101.549 20.2664 100.757 20.5113C100.361 20.6313 100.006 20.7638 99.6853 20.8338C99.3621 20.9113 99.0778 20.9863 98.864 21.0987C98.7935 21.1337 98.7328 21.1712 98.6769 21.2112C98.587 21.2187 98.4971 21.2262 98.4072 21.2337C98.2007 21.2487 97.9941 21.2612 97.7876 21.2737L97.479 21.2937L97.1729 21.3062C96.9688 21.3112 96.7647 21.3237 96.5606 21.3262C95.749 21.3412 94.9496 21.3037 94.1721 21.2112C94.0749 21.1987 93.9777 21.1837 93.8829 21.1712C93.7857 21.1587 93.6885 21.1487 93.5938 21.1262C93.4043 21.0912 93.2147 21.0537 93.0252 21.0187C92.8381 20.9713 92.6535 20.9263 92.4688 20.8788C92.3765 20.8588 92.2841 20.8288 92.1942 20.7988C92.1043 20.7688 92.0144 20.7413 91.9221 20.7138C91.8322 20.6838 91.7399 20.6613 91.6524 20.6263C91.5649 20.5913 91.475 20.5588 91.39 20.5238C91.215 20.4563 91.0376 20.3939 90.87 20.3114C90.6999 20.2339 90.5298 20.1614 90.3622 20.0789C90.1969 19.9914 90.0317 19.9064 89.8689 19.8215C89.7863 19.7815 89.7061 19.734 89.6284 19.6865C89.5482 19.639 89.4704 19.594 89.3902 19.5465C89.3101 19.499 89.2323 19.454 89.1546 19.4065C89.0768 19.359 89.0015 19.3066 88.9237 19.2591C88.7706 19.1591 88.62 19.0591 88.4669 18.9616C88.394 18.9116 88.326 18.8591 88.2555 18.8091C88.1851 18.7592 88.1146 18.7092 88.049 18.6542C87.981 18.5992 87.9154 18.5467 87.8473 18.4917C87.7817 18.4367 87.7185 18.3767 87.6529 18.3217C87.5217 18.2117 87.4051 18.0893 87.2836 17.9718C87.0479 17.7293 86.8244 17.4794 86.6276 17.2119C86.4235 16.952 86.2485 16.6745 86.0833 16.4021C85.9278 16.1221 85.7796 15.8422 85.6605 15.5547C85.5342 15.2698 85.4418 14.9798 85.3544 14.6949C85.3203 14.5499 85.279 14.4049 85.2499 14.265C85.2232 14.12 85.1891 13.98 85.1746 13.835C85.0919 13.2701 85.0895 12.7227 85.1527 12.2178C85.2159 11.7079 85.3446 11.238 85.5147 10.8181C85.6848 10.3981 85.8986 10.0282 86.1222 9.70077C86.3433 9.37083 86.6081 9.08088 86.8827 8.80093C86.9532 8.73344 87.0261 8.66595 87.0965 8.60096C87.1305 8.56347 87.167 8.53348 87.2034 8.50598L87.3103 8.416C87.3808 8.35351 87.4586 8.30352 87.5339 8.24853L87.6481 8.16604L87.7671 8.08856C88.083 7.88859 88.4208 7.72362 88.7706 7.59114C89.1205 7.45617 89.4777 7.34619 89.8398 7.2737C90.5663 7.12123 91.3025 7.07124 92.0217 7.11123C92.3813 7.12873 92.7361 7.17122 93.0811 7.23371C93.256 7.2612 93.4237 7.3062 93.5938 7.34119C93.6788 7.35869 93.7614 7.38618 93.8441 7.40868C93.9267 7.43117 94.0117 7.45367 94.0919 7.48116C95.4064 7.88359 96.5363 8.63846 97.2652 9.61329C97.3089 9.67327 97.3502 9.73576 97.394 9.79825L97.4572 9.89323L97.513 9.98822C97.5519 10.0507 97.5884 10.1157 97.6272 10.1782C97.6588 10.2457 97.6904 10.3082 97.7244 10.3781L97.773 10.4781C97.7876 10.5106 97.7998 10.5456 97.8143 10.5781C97.8411 10.6456 97.8678 10.7131 97.8945 10.7781C97.9164 10.8506 97.9358 10.9181 97.9577 10.9855L97.9893 11.0855C97.999 11.123 98.0063 11.158 98.0136 11.1905C98.0306 11.258 98.0452 11.3255 98.0597 11.398C98.0695 11.4655 98.0792 11.5329 98.0889 11.6004L98.1035 11.7054L98.1108 11.8104C98.1156 11.8779 98.1205 11.9454 98.1253 12.0129C98.1253 12.0803 98.1253 12.1478 98.1229 12.2153C98.1229 12.2478 98.1229 12.2828 98.1229 12.3153L98.1156 12.4153C98.1108 12.4828 98.1059 12.5503 98.0986 12.6152C98.0889 12.6827 98.0792 12.7452 98.0695 12.8102C98.0646 12.8427 98.0597 12.8727 98.0549 12.9052L98.033 13.0002C98.0184 13.0627 98.0039 13.1277 97.9893 13.1901C97.9698 13.2476 97.9528 13.3126 97.9334 13.3701L97.9067 13.4601C97.8969 13.4926 97.8848 13.5201 97.8727 13.5451C97.8508 13.6051 97.8289 13.6626 97.807 13.7176C97.7827 13.7775 97.756 13.83 97.7317 13.885C97.6831 13.9975 97.6199 14.0975 97.5641 14.2025C97.3284 14.6049 97.0247 14.9348 96.7088 15.1923C96.3905 15.4497 96.0527 15.6272 95.7247 15.7422C95.3967 15.8572 95.0784 15.9172 94.7892 15.9247C94.7528 15.9272 94.7164 15.9322 94.6823 15.9322C94.6483 15.9322 94.6119 15.9297 94.5779 15.9297C94.5098 15.9272 94.4418 15.9272 94.3762 15.9272C94.3373 15.9222 94.3009 15.9197 94.2644 15.9147C94.8184 15.6322 95.1707 15.0073 95.1027 14.3249C95.0152 13.4526 94.2765 12.8252 93.4529 12.9152C92.6292 13.0052 92.029 13.7875 92.1165 14.6549C92.1942 15.4372 92.7944 16.0196 93.5112 16.0696C93.5452 16.0871 93.5792 16.1021 93.6157 16.1196C93.7153 16.1571 93.8222 16.1971 93.9388 16.2396C94.0579 16.2771 94.1891 16.3071 94.3276 16.3421C94.398 16.3521 94.4734 16.3646 94.5487 16.3771C94.5876 16.3821 94.6264 16.3896 94.6653 16.3946C94.7042 16.3996 94.7455 16.3996 94.7868 16.4021C95.1124 16.4321 95.4817 16.3996 95.8754 16.3046C96.269 16.2071 96.6845 16.0271 97.0805 15.7522C97.4766 15.4772 97.8605 15.1073 98.1715 14.6374C98.2468 14.5199 98.327 14.4024 98.3926 14.2725C98.4266 14.21 98.4631 14.145 98.4947 14.0775C98.5238 14.01 98.5554 13.9425 98.587 13.875C98.6016 13.84 98.6186 13.8075 98.6332 13.77L98.6721 13.6626C98.6988 13.5901 98.7231 13.5176 98.7498 13.4451C98.7717 13.3726 98.7935 13.2951 98.813 13.2201L98.8446 13.1077C98.8543 13.0727 98.8616 13.0302 98.8689 12.9902C98.8859 12.9127 98.9005 12.8377 98.9175 12.7552C98.9296 12.6727 98.9369 12.5928 98.9491 12.5103L98.9636 12.3878C98.9661 12.3478 98.9685 12.3053 98.9709 12.2653C98.9758 12.1803 98.9782 12.0978 98.9831 12.0129C98.9806 11.9304 98.9782 11.8454 98.9758 11.7604L98.9709 11.6329L98.9588 11.5029C98.9491 11.4205 98.9393 11.3305 98.9296 11.2455C98.915 11.163 98.898 11.073 98.881 10.988C98.8737 10.948 98.8664 10.9031 98.8567 10.8606L98.8227 10.7331C98.7984 10.6481 98.7765 10.5606 98.7522 10.4756C98.7231 10.3906 98.6939 10.3032 98.6623 10.2232C98.6478 10.1782 98.6332 10.1382 98.6162 10.0957L98.5627 9.96822C98.5263 9.88574 98.4874 9.80575 98.4509 9.72077C98.4072 9.64328 98.3659 9.56329 98.3222 9.48081L98.2566 9.36333L98.1837 9.24585C98.1351 9.16836 98.084 9.09338 98.0354 9.01589C97.8216 8.72344 97.5908 8.4285 97.3211 8.17104C97.1923 8.03107 97.0489 7.91859 96.908 7.79111C96.8351 7.72862 96.7598 7.67363 96.6869 7.61364C96.6116 7.55615 96.5387 7.49616 96.4585 7.44617C96.3808 7.39118 96.303 7.33869 96.2252 7.2837C96.1451 7.23371 96.0625 7.18372 95.9823 7.13373L95.8608 7.06124L95.7344 6.99375C95.6494 6.94876 95.5668 6.90377 95.4817 6.85878C95.3943 6.81878 95.3092 6.77629 95.2217 6.7363L95.0905 6.67631L94.9569 6.62132C94.867 6.58382 94.7795 6.54883 94.6872 6.51384C94.5949 6.48134 94.505 6.45135 94.4126 6.41885C94.3203 6.38386 94.228 6.35637 94.1356 6.32887C94.0409 6.30137 93.9485 6.27388 93.8538 6.24639C93.6642 6.20139 93.4723 6.1514 93.2779 6.11641C92.8916 6.03892 92.4931 5.98893 92.0922 5.95894C91.2879 5.90395 90.4594 5.94644 89.6284 6.11141C89.2129 6.19389 88.7998 6.31387 88.3892 6.46385C87.9785 6.61632 87.5752 6.81128 87.1888 7.05624L87.0431 7.14622L86.9021 7.24621C86.8074 7.31369 86.7126 7.37618 86.6227 7.45367L86.4866 7.56615C86.4405 7.60114 86.3967 7.63864 86.3554 7.67863C86.2728 7.75611 86.1878 7.8361 86.1052 7.91359C85.7796 8.23853 85.4637 8.58597 85.1989 8.9809C84.9292 9.37333 84.6692 9.82575 84.4602 10.3457C84.2512 10.8606 84.0957 11.443 84.0228 12.0678C83.877 13.3101 84.0641 14.7199 84.6497 16.0421C84.7906 16.3746 84.9632 16.697 85.1478 17.017C85.3422 17.3319 85.5463 17.6469 85.782 17.9418C86.0104 18.2417 86.268 18.5242 86.5401 18.7991C86.6786 18.9316 86.8171 19.0691 86.9653 19.1941C87.0382 19.2566 87.1111 19.3216 87.1888 19.384C87.2666 19.444 87.3419 19.504 87.4197 19.5665C87.495 19.629 87.5776 19.684 87.6578 19.7415C87.738 19.7965 87.8182 19.8565 87.9008 19.9089C88.0611 20.0114 88.2239 20.1139 88.3867 20.2189C88.4694 20.2689 88.5495 20.3239 88.6321 20.3739C88.7172 20.4214 88.8022 20.4713 88.8873 20.5188C88.9723 20.5688 89.0574 20.6163 89.1424 20.6638C89.2274 20.7138 89.3125 20.7638 89.4024 20.8063C89.5798 20.8963 89.7571 20.9863 89.9345 21.0762C90.1143 21.1637 90.3014 21.2387 90.4861 21.3212C90.6707 21.4062 90.8603 21.4737 91.0522 21.5437C91.147 21.5786 91.2442 21.6136 91.3389 21.6486C91.4361 21.6836 91.5357 21.7086 91.6329 21.7411C91.7301 21.7711 91.8298 21.8011 91.9294 21.8286C92.029 21.8586 92.1262 21.8886 92.2282 21.9111C92.4299 21.9586 92.6316 22.0061 92.8333 22.0536C93.0374 22.0886 93.2415 22.126 93.448 22.161C93.55 22.181 93.6545 22.191 93.7566 22.2035C93.8611 22.216 93.9655 22.2285 94.0676 22.241C94.8986 22.3285 95.7417 22.351 96.5824 22.321C96.7938 22.3185 97.0028 22.301 97.2142 22.291L97.5325 22.2735L97.8484 22.2485C98.0597 22.231 98.2711 22.2135 98.4825 22.196C98.6939 22.1735 98.9029 22.151 99.1143 22.1311C99.3257 22.1111 99.5371 22.0861 99.7485 22.0586C99.9598 22.0311 100.171 22.0061 100.383 21.9811C100.596 21.9486 100.81 21.9161 101.024 21.8836L101.345 21.8336C101.452 21.8161 101.559 21.7936 101.663 21.7736C101.877 21.7311 102.088 21.6886 102.302 21.6461C102.514 21.6011 102.725 21.5462 102.936 21.4962C103.359 21.4012 103.777 21.2762 104.195 21.1587C104.404 21.1012 104.61 21.0312 104.817 20.9663C105.024 20.8988 105.232 20.8388 105.437 20.7663C105.847 20.6238 106.258 20.4838 106.661 20.3289C107.475 20.0289 108.27 19.694 109.062 19.359C109.849 19.0141 110.629 18.6642 111.394 18.3067C112.162 17.9493 112.92 17.5894 113.669 17.2369C114.42 16.882 115.158 16.5395 115.894 16.1971C117.362 15.5097 118.771 14.8274 120.147 14.2425C120.834 13.95 121.515 13.6901 122.183 13.4526C122.851 13.2226 123.512 13.0327 124.156 12.8702C125.414 12.5753 126.622 12.4353 127.732 12.4778C127.832 12.5053 127.929 12.5328 128.024 12.5603C128.425 12.6777 128.787 12.7852 129.103 12.8802C129.424 12.9702 129.698 13.0477 129.924 13.1102C130.203 13.1776 130.408 13.2276 130.522 13.2551C130.524 13.2501 130.524 13.2451 130.527 13.2426C130.417 13.2026 130.22 13.1252 129.951 13.0202C129.815 12.9602 129.659 12.8977 129.487 12.8252C129.465 12.8127 129.438 12.7902 129.402 12.7577C129.375 12.7402 129.341 12.7127 129.304 12.6802C129.343 12.6902 129.385 12.6977 129.424 12.7077C129.839 12.8202 130.22 12.9777 130.549 13.1951C130.551 13.1826 130.556 13.1726 130.561 13.1627C130.583 13.0952 130.612 13.0402 130.641 12.9852C130.303 12.7552 129.912 12.5728 129.489 12.4528C129.251 12.3803 129.001 12.3253 128.746 12.2803C128.381 12.0354 127.895 11.7529 127.29 11.468C127.198 11.423 127.101 11.378 127.003 11.333C126.904 11.293 126.804 11.248 126.7 11.2055C126.493 11.1105 126.274 11.033 126.049 10.948C125.594 10.7856 125.103 10.6281 124.574 10.5006C124.046 10.3706 123.485 10.2657 122.892 10.2082C122.596 10.1757 122.29 10.1632 121.983 10.1632C121.83 10.1682 121.677 10.1732 121.522 10.1757C121.366 10.1807 121.211 10.1932 121.055 10.2032C119.867 10.3032 118.757 10.5481 117.76 10.8381C117.561 10.8756 117.362 10.9081 117.163 10.9355L117.18 10.943ZM124.09 12.4753C123.429 12.6252 122.751 12.8002 122.066 13.0227C121.383 13.2451 120.686 13.4926 119.986 13.7775C118.584 14.3324 117.151 14.9873 115.678 15.6397C114.942 15.9622 114.186 16.2946 113.433 16.632C112.677 16.9695 111.914 17.3144 111.142 17.6543C110.371 17.9968 109.592 18.3292 108.807 18.6542C108.019 18.9716 107.227 19.2866 106.423 19.5665C106.025 19.714 105.619 19.8415 105.215 19.9739C105.014 20.0439 104.81 20.0964 104.606 20.1589C104.401 20.2164 104.2 20.2839 103.996 20.3339C103.588 20.4389 103.179 20.5538 102.766 20.6388C102.562 20.6838 102.356 20.7338 102.152 20.7738C101.945 20.8113 101.738 20.8488 101.532 20.8863C101.43 20.9038 101.325 20.9263 101.223 20.9413L100.912 20.9838C100.706 21.0112 100.499 21.0387 100.293 21.0687C100.084 21.0912 99.8748 21.1137 99.6658 21.1362C99.4569 21.1587 99.2479 21.1812 99.0414 21.1962C98.9928 21.2012 98.9442 21.2037 98.8956 21.2087C98.9005 21.2062 98.9053 21.2037 98.9102 21.2012C99.124 21.1212 99.401 21.0812 99.729 21.0387C100.062 21.0037 100.431 20.9063 100.842 20.8213C101.666 20.6488 102.623 20.3339 103.663 19.9114C104.691 19.454 105.779 18.8841 106.897 18.2492C108.42 17.3919 109.822 16.562 111.037 15.8847C111.65 15.5572 112.204 15.2423 112.707 14.9948C112.957 14.8673 113.188 14.7474 113.404 14.6374C113.623 14.5324 113.822 14.4424 114.002 14.3574C114.189 14.2949 114.398 14.2225 114.624 14.145C114.85 14.0675 115.102 13.995 115.367 13.91C115.899 13.7375 116.502 13.5451 117.163 13.3401C118.482 12.9327 120.027 12.4778 121.706 12.2103C122.324 12.1203 122.929 12.0429 123.517 12.0204C123.811 11.9929 124.097 12.0029 124.382 11.9929C124.523 11.9929 124.664 12.0029 124.8 12.0054C124.938 12.0104 125.077 12.0104 125.208 12.0229C125.606 12.0504 125.988 12.1003 126.352 12.1628C125.621 12.2028 124.863 12.3078 124.083 12.4703L124.09 12.4753ZM129.183 12.6552C129.273 12.7102 129.348 12.7552 129.406 12.7852C129.419 12.7952 129.426 12.7977 129.436 12.8027C129.353 12.7702 129.268 12.7352 129.181 12.6977C129.113 12.6702 129.042 12.6377 128.972 12.6127C129.042 12.6252 129.112 12.6402 129.185 12.6527L129.183 12.6552ZM133.829 14.1425L132.383 15.5547C132.643 15.9147 133.829 17.9818 133.829 17.9818C133.829 17.9818 134.956 15.9122 135.216 15.5547L133.829 14.1425ZM124.243 8.85092C124.054 8.76843 123.915 8.60347 123.845 8.34101C123.779 8.08356 123.801 7.72612 123.976 7.32369C124.151 6.92126 124.51 6.49134 125.028 6.1839C125.541 5.87145 126.202 5.71898 126.845 5.76897C127.171 5.78147 127.579 5.88145 128.012 6.05892C128.444 6.23639 128.891 6.51134 129.292 6.86877C129.696 7.22621 130.053 7.66363 130.337 8.13355C130.621 8.60347 130.833 9.11337 130.976 9.60579C131.112 10.1032 131.183 10.5856 131.209 11.0255C131.219 11.243 131.219 11.4505 131.214 11.6454C131.2 11.8404 131.19 12.0204 131.168 12.1828C131.144 12.3453 131.117 12.4903 131.09 12.6177C131.064 12.7477 131.027 12.8577 130.998 12.9477C130.937 13.1252 130.881 13.2176 130.833 13.2176C130.791 13.2176 130.733 13.1227 130.665 12.9552C130.595 12.7652 130.505 12.5353 130.405 12.2728C130.352 12.1328 130.284 11.9829 130.22 11.8254C130.15 11.6729 130.072 11.5129 129.992 11.3455C129.82 11.0255 129.618 10.6956 129.387 10.3881C129.151 10.0907 128.889 9.81325 128.617 9.59329C128.345 9.37083 128.063 9.20586 127.8 9.08588C127.538 8.9684 127.297 8.91091 127.103 8.87842C127.054 8.86592 127.008 8.86842 126.965 8.86092C126.921 8.85592 126.88 8.84842 126.843 8.85092C126.804 8.84592 126.77 8.84592 126.736 8.84092C126.705 8.84092 126.675 8.84092 126.649 8.83592C126.432 8.82343 126.26 8.80843 126.085 8.80093C125.912 8.79093 125.72 8.78843 125.514 8.81343C125.096 8.85842 124.627 9.02089 124.246 8.84842L124.243 8.85092ZM136.788 5.29156C135.629 7.99857 135.318 11.7929 135.282 12.2903C135.279 12.3278 135.262 12.3503 135.24 12.3503L134.111 13.6651C133.96 13.8425 133.698 13.8425 133.547 13.6651L132.417 12.3503C132.395 12.3503 132.378 12.3278 132.376 12.2903C132.339 11.7929 132.077 8.28602 130.869 5.29156C130.859 5.26906 133.199 0.967327 133.727 0.067488C133.78 -0.022496 133.882 -0.022496 133.936 0.067488C134.463 0.967327 136.803 5.26906 136.791 5.29156H136.788ZM143.264 8.85092C143.453 8.76843 143.592 8.60347 143.662 8.34101C143.728 8.08356 143.706 7.72612 143.531 7.32369C143.356 6.92126 142.996 6.49134 142.479 6.1839C141.964 5.87145 141.305 5.71898 140.659 5.76897C140.333 5.78147 139.925 5.88145 139.493 6.05892C139.06 6.23639 138.613 6.51134 138.212 6.86877C137.809 7.22621 137.452 7.66363 137.167 8.13355C136.883 8.60347 136.672 9.11337 136.528 9.60579C136.392 10.1032 136.319 10.5856 136.295 11.0255C136.285 11.243 136.285 11.4505 136.29 11.6454C136.305 11.8404 136.314 12.0204 136.336 12.1828C136.361 12.3453 136.387 12.4903 136.414 12.6177C136.441 12.7477 136.477 12.8577 136.506 12.9477C136.567 13.1252 136.625 13.2176 136.672 13.2176C136.713 13.2176 136.771 13.1227 136.839 12.9552C136.91 12.7652 137 12.5353 137.099 12.2728C137.153 12.1328 137.221 11.9829 137.284 11.8254C137.354 11.6729 137.432 11.5129 137.512 11.3455C137.682 11.0255 137.886 10.6956 138.115 10.3881C138.351 10.0907 138.613 9.81325 138.888 9.59329C139.16 9.37083 139.442 9.20586 139.704 9.08588C139.966 8.9684 140.207 8.91091 140.401 8.87842C140.45 8.86592 140.496 8.86842 140.54 8.86092C140.584 8.85592 140.625 8.84842 140.661 8.85092C140.698 8.84592 140.734 8.84592 140.766 8.84092C140.797 8.84092 140.827 8.84092 140.853 8.83592C141.07 8.82343 141.244 8.80843 141.417 8.80093C141.589 8.79093 141.779 8.78843 141.988 8.81343C142.406 8.85842 142.875 9.02089 143.256 8.84842L143.264 8.85092ZM133.8 28.215L132.553 30.932L132.56 30.942C133.068 31.6444 133.824 35.2187 133.824 35.2187C133.824 35.2412 133.855 35.2462 133.86 35.2237C134.006 34.4738 134.594 31.5519 135.036 30.942L135.044 30.932L133.797 28.215H133.8ZM218.104 26.1078C218.099 25.9479 218.072 25.7929 218.06 25.6354C218.04 25.4805 218.031 25.323 218.004 25.1705C217.805 23.9357 217.348 22.7709 216.692 21.8061C216.024 20.8463 215.183 20.0889 214.299 19.524C213.412 18.9591 212.481 18.5842 211.577 18.3217C210.673 18.0618 209.791 17.9243 208.955 17.8593C208.12 17.8018 207.332 17.8218 206.601 17.8818C206.419 17.8993 206.239 17.9193 206.064 17.9368C205.889 17.9643 205.717 17.9893 205.549 18.0143C205.379 18.0368 205.216 18.0693 205.056 18.1018C204.895 18.1343 204.737 18.1618 204.584 18.1993C204.431 18.2367 204.283 18.2742 204.137 18.3117C204.064 18.3292 203.994 18.3492 203.921 18.3667C203.85 18.3892 203.782 18.4092 203.714 18.4292C203.578 18.4692 203.445 18.5117 203.313 18.5517C203.185 18.5917 203.061 18.6392 202.939 18.6817C201.97 19.0316 201.258 19.399 200.791 19.6715C200.672 19.734 200.573 19.8015 200.485 19.8565C200.398 19.9114 200.325 19.9589 200.267 19.9964C200.15 20.0714 200.089 20.1089 200.089 20.1089C200.089 20.1089 200.152 20.0764 200.274 20.0114C200.335 19.9789 200.41 19.9389 200.502 19.8914C200.592 19.844 200.697 19.7865 200.818 19.7315C201.302 19.499 202.033 19.1891 203.007 18.9166C203.129 18.8841 203.253 18.8441 203.384 18.8141C203.515 18.7841 203.646 18.7542 203.785 18.7217C203.853 18.7067 203.923 18.6892 203.991 18.6742C204.062 18.6617 204.132 18.6492 204.205 18.6342C204.349 18.6092 204.497 18.5817 204.647 18.5542C204.798 18.5292 204.954 18.5117 205.112 18.4917C205.269 18.4717 205.43 18.4492 205.595 18.4367C205.76 18.4242 205.928 18.4092 206.1 18.3942C206.273 18.3867 206.445 18.3817 206.625 18.3742C207.337 18.3592 208.098 18.3867 208.895 18.4892C209.689 18.5967 210.52 18.7766 211.356 19.0641C212.19 19.354 213.033 19.7465 213.81 20.2964C214.585 20.8463 215.292 21.5487 215.837 22.401C216.369 23.2608 216.719 24.2657 216.857 25.343C216.877 25.478 216.879 25.6154 216.891 25.7529C216.898 25.8904 216.918 26.0279 216.915 26.1628C216.911 26.4328 216.92 26.7077 216.881 26.9777C216.867 27.2526 216.801 27.5176 216.753 27.79C216.719 27.9225 216.677 28.055 216.641 28.1875C216.609 28.3224 216.556 28.4499 216.505 28.5799C216.415 28.8424 216.281 29.0923 216.16 29.3448C216.089 29.4672 216.016 29.5897 215.944 29.7122L215.89 29.8047L215.829 29.8922L215.705 30.0696C215.375 30.537 214.991 30.982 214.551 31.3794C213.681 32.1893 212.637 32.8591 211.507 33.4065C210.374 33.9539 209.155 34.3789 207.886 34.6813C207.252 34.8288 206.608 34.9563 205.955 35.0387C205.301 35.1212 204.643 35.1737 203.982 35.1812C203.816 35.1787 203.651 35.1837 203.488 35.1787C203.326 35.1712 203.16 35.1662 203 35.1587C202.837 35.1462 202.677 35.1312 202.517 35.1187C202.349 35.0962 202.184 35.0762 202.016 35.0537C201.35 34.9638 200.684 34.8938 200.031 34.7663C199.703 34.7088 199.377 34.6538 199.052 34.5988C198.728 34.5363 198.405 34.4639 198.085 34.3964C197.764 34.3264 197.443 34.2639 197.127 34.1889C196.811 34.1114 196.495 34.0314 196.182 33.9539C193.672 33.3216 191.286 32.5367 189.024 31.7368C186.762 30.932 184.621 30.1121 182.607 29.3698C180.593 28.6249 178.702 27.955 176.96 27.3901C176.085 27.1202 175.254 26.8527 174.462 26.6302C173.668 26.4028 172.912 26.2103 172.195 26.0603C170.764 25.7629 169.496 25.6504 168.465 25.7304C167.95 25.7679 167.498 25.8504 167.114 25.9604C166.966 26.0029 166.833 26.0503 166.706 26.0978C166.665 26.1078 166.626 26.1178 166.585 26.1303C166.529 26.1428 166.475 26.1578 166.422 26.1753C166.368 26.1928 166.315 26.2078 166.262 26.2253C166.208 26.2428 166.157 26.2628 166.106 26.2828C166.002 26.3178 165.902 26.3653 165.8 26.4078C165.601 26.5003 165.409 26.5978 165.229 26.7127C165.047 26.8227 164.877 26.9502 164.711 27.0777C164.551 27.2126 164.398 27.3476 164.259 27.4976C163.696 28.0825 163.334 28.7974 163.183 29.4872C163.108 29.8347 163.086 30.1746 163.105 30.4896C163.122 30.807 163.181 31.0994 163.256 31.3619C163.329 31.6269 163.438 31.8743 163.555 32.1118C163.586 32.1693 163.618 32.2292 163.647 32.2867C163.662 32.3167 163.679 32.3442 163.698 32.3742L163.752 32.4617C163.786 32.5217 163.827 32.5742 163.866 32.6292L163.924 32.7117L163.987 32.7892C164.155 32.9966 164.337 33.1816 164.534 33.3441C164.731 33.5065 164.932 33.654 165.146 33.7815C165.569 34.0364 166.014 34.2264 166.463 34.3564C166.687 34.4214 166.913 34.4738 167.139 34.5088C167.251 34.5288 167.365 34.5413 167.476 34.5538C167.532 34.5613 167.588 34.5613 167.644 34.5663C167.7 34.5688 167.756 34.5738 167.812 34.5738C167.868 34.5763 167.924 34.5763 167.979 34.5763C168.035 34.5763 168.091 34.5738 168.147 34.5738L168.23 34.5713L168.312 34.5663C168.368 34.5613 168.422 34.5588 168.478 34.5538C168.531 34.5463 168.587 34.5388 168.64 34.5313L168.721 34.5213L168.801 34.5063C168.854 34.4963 168.908 34.4863 168.961 34.4763C169.015 34.4639 169.066 34.4514 169.119 34.4364C169.17 34.4239 169.224 34.4089 169.275 34.3914C169.326 34.3739 169.377 34.3589 169.428 34.3414C169.527 34.3014 169.629 34.2689 169.724 34.2214C169.918 34.1389 170.098 34.0264 170.271 33.9139C170.312 33.884 170.353 33.8515 170.395 33.8215L170.455 33.774L170.514 33.724C170.553 33.689 170.591 33.6565 170.628 33.6215C170.664 33.584 170.698 33.549 170.735 33.5115L170.788 33.4565C170.805 33.4365 170.82 33.4165 170.837 33.399C170.868 33.359 170.9 33.3216 170.932 33.2816C170.961 33.2416 170.99 33.1991 171.017 33.1591L171.058 33.0966C171.07 33.0766 171.082 33.0541 171.097 33.0316C171.121 32.9891 171.145 32.9466 171.17 32.9041C171.192 32.8591 171.211 32.8166 171.233 32.7717L171.265 32.7067L171.291 32.6392C171.308 32.5942 171.325 32.5492 171.342 32.5067C171.357 32.4617 171.369 32.4167 171.381 32.3717C171.388 32.3492 171.396 32.3267 171.401 32.3042L171.415 32.2367C171.425 32.1918 171.435 32.1468 171.442 32.1018C171.449 32.0568 171.454 32.0118 171.459 31.9668C171.461 31.9443 171.466 31.9218 171.466 31.8993L171.471 31.8318C171.473 31.7868 171.476 31.7418 171.478 31.6993C171.478 31.6544 171.476 31.6119 171.476 31.5694L171.473 31.5044C171.471 31.4819 171.469 31.4619 171.466 31.4394C171.461 31.3969 171.459 31.3544 171.454 31.3119C171.449 31.2694 171.439 31.2294 171.435 31.1869C171.422 31.1044 171.401 31.0245 171.381 30.947C171.299 30.6345 171.155 30.3621 170.99 30.1346C170.825 29.9072 170.63 29.7297 170.434 29.5997C170.237 29.4697 170.04 29.3798 169.858 29.3298C169.836 29.3223 169.814 29.3148 169.792 29.3098C169.77 29.3048 169.748 29.2998 169.726 29.2948C169.683 29.2848 169.641 29.2773 169.6 29.2673C169.518 29.2573 169.44 29.2473 169.369 29.2423C169.299 29.2423 169.233 29.2423 169.172 29.2423C169.148 29.2448 169.129 29.2473 169.107 29.2498C168.706 29.1323 168.271 29.3248 168.086 29.7222C167.877 30.1671 168.062 30.702 168.495 30.917C168.927 31.1319 169.447 30.942 169.656 30.4971C169.819 30.1471 169.741 29.7447 169.491 29.4822C169.513 29.4872 169.532 29.4922 169.554 29.4997C169.59 29.5122 169.627 29.5247 169.663 29.5372C169.683 29.5447 169.702 29.5497 169.722 29.5572C169.741 29.5647 169.76 29.5747 169.78 29.5822C169.938 29.6447 170.098 29.7397 170.256 29.8672C170.414 29.9946 170.565 30.1571 170.691 30.3571C170.817 30.557 170.922 30.792 170.975 31.0545C170.988 31.1194 171.002 31.1869 171.009 31.2544C171.012 31.2894 171.019 31.3219 171.022 31.3569C171.024 31.3919 171.024 31.4269 171.026 31.4619C171.026 31.4794 171.029 31.4969 171.029 31.5144L171.026 31.5669C171.026 31.6019 171.024 31.6394 171.024 31.6743C171.019 31.7093 171.017 31.7468 171.012 31.7818L171.007 31.8368C171.005 31.8543 171 31.8743 170.997 31.8918C170.99 31.9268 170.985 31.9643 170.978 32.0018C170.968 32.0368 170.958 32.0743 170.951 32.1093L170.937 32.1643C170.932 32.1818 170.924 32.1993 170.917 32.2193C170.905 32.2542 170.893 32.2917 170.881 32.3267C170.866 32.3617 170.849 32.3967 170.834 32.4317L170.813 32.4842L170.786 32.5367C170.769 32.5717 170.749 32.6067 170.73 32.6417C170.708 32.6742 170.689 32.7092 170.667 32.7417C170.657 32.7592 170.645 32.7766 170.635 32.7916L170.599 32.8391C170.574 32.8716 170.55 32.9041 170.526 32.9341C170.499 32.9641 170.472 32.9941 170.446 33.0266C170.431 33.0416 170.419 33.0566 170.404 33.0716L170.361 33.1141C170.331 33.1416 170.302 33.1716 170.271 33.2016C170.239 33.2266 170.205 33.2541 170.174 33.2816L170.125 33.3216L170.072 33.359C170.037 33.384 170.001 33.409 169.967 33.4315C169.389 33.8065 168.633 33.9789 167.841 33.9314C167.792 33.9314 167.741 33.9264 167.693 33.9214C167.644 33.9164 167.593 33.914 167.542 33.9065C167.442 33.8915 167.343 33.8815 167.243 33.8615C167.042 33.8265 166.842 33.7765 166.641 33.714C166.242 33.5915 165.849 33.419 165.479 33.1916C165.295 33.0791 165.12 32.9491 164.954 32.8091C164.787 32.6692 164.636 32.5117 164.5 32.3417L164.449 32.2792L164.403 32.2142C164.371 32.1693 164.34 32.1268 164.313 32.0793L164.269 32.0093C164.255 31.9868 164.24 31.9643 164.228 31.9368C164.201 31.8868 164.174 31.8368 164.148 31.7868C164.048 31.5844 163.958 31.3744 163.897 31.1569C163.837 30.9395 163.788 30.6995 163.771 30.4421C163.754 30.1846 163.771 29.9072 163.832 29.6247C163.893 29.3398 163.995 29.0498 164.143 28.7674C164.177 28.6949 164.223 28.6274 164.262 28.5549C164.303 28.4849 164.352 28.4174 164.398 28.3474C164.498 28.2125 164.602 28.0775 164.724 27.95C164.84 27.82 164.974 27.7026 165.11 27.5826C165.251 27.4701 165.397 27.3576 165.557 27.2601C165.712 27.1577 165.883 27.0702 166.055 26.9877C166.143 26.9502 166.23 26.9077 166.322 26.8752C166.368 26.8577 166.412 26.8377 166.458 26.8227C166.505 26.8077 166.551 26.7927 166.597 26.7777C166.643 26.7602 166.692 26.7477 166.738 26.7352C166.786 26.7227 166.833 26.7077 166.881 26.6977C166.981 26.6752 167.083 26.6527 167.185 26.6302C167.236 26.6202 167.287 26.6052 167.338 26.5977C167.389 26.5878 167.44 26.5803 167.493 26.5703C167.545 26.5603 167.598 26.5528 167.649 26.5428C167.7 26.5328 167.753 26.5228 167.805 26.5178C167.909 26.5053 168.016 26.4928 168.12 26.4803C168.227 26.4678 168.334 26.4653 168.441 26.4578C168.548 26.4478 168.655 26.4503 168.764 26.4478C168.818 26.4478 168.874 26.4478 168.927 26.4478C168.981 26.4453 169.036 26.4528 169.09 26.4553C169.143 26.4578 169.199 26.4603 169.253 26.4653C169.306 26.4678 169.362 26.4703 169.415 26.4778C169.525 26.4903 169.634 26.5028 169.746 26.5153C170.008 26.5453 170.273 26.5528 170.536 26.5903C170.769 26.6227 171 26.6627 171.235 26.6802C171.646 26.7077 172.059 26.7502 172.467 26.8077C172.637 26.8302 173.403 26.9352 173.403 26.9352C173.4 26.9327 173.395 26.9327 173.395 26.9302C173.682 27.0227 173.971 27.1202 174.27 27.2251C175.043 27.4926 175.854 27.8025 176.705 28.115C178.403 28.7674 180.247 29.5222 182.225 30.3496C184.206 31.1769 186.32 32.0768 188.579 32.9566C190.839 33.834 193.249 34.6913 195.815 35.3837C196.136 35.4687 196.459 35.5537 196.782 35.6386C197.108 35.7211 197.438 35.7886 197.766 35.8661C198.097 35.9386 198.427 36.0186 198.76 36.0861C199.095 36.146 199.433 36.2085 199.771 36.271C200.446 36.406 201.134 36.486 201.826 36.581C201.999 36.6035 202.174 36.626 202.346 36.6485C202.529 36.6635 202.711 36.6785 202.893 36.696C203.075 36.7035 203.258 36.7109 203.44 36.7184C203.622 36.7234 203.804 36.7209 203.987 36.7209C205.442 36.701 206.859 36.4985 208.222 36.161C209.585 35.8236 210.894 35.3487 212.121 34.7313C213.346 34.1139 214.495 33.349 215.472 32.3992C215.965 31.9318 216.403 31.4019 216.779 30.8395L216.92 30.627L216.991 30.5221L217.054 30.4096C217.137 30.2621 217.217 30.1121 217.299 29.9646C217.44 29.6547 217.589 29.3523 217.691 29.0273C217.746 28.8673 217.805 28.7099 217.841 28.5474C217.883 28.3849 217.926 28.2225 217.963 28.06C218.014 27.73 218.079 27.4051 218.089 27.0752C218.123 26.7477 218.104 26.4228 218.099 26.1028L218.104 26.1078ZM210.583 29.2873C210.542 29.4172 210.467 29.5322 210.374 29.6297C210.282 29.7297 210.18 29.8022 210.066 29.8822C209.842 30.0196 209.597 30.1246 209.313 30.1621C209.169 30.1796 208.926 30.1821 208.623 30.2171C208.321 30.2496 207.962 30.3221 207.617 30.4296C207.532 30.4596 207.444 30.4846 207.364 30.5146C207.284 30.5445 207.201 30.577 207.123 30.607C206.973 30.6745 206.825 30.7345 206.705 30.797C206.579 30.852 206.48 30.907 206.399 30.937C206.319 30.9695 206.261 30.9795 206.237 30.9595C206.215 30.942 206.212 30.887 206.229 30.7995C206.246 30.712 206.28 30.587 206.341 30.4496C206.399 30.3046 206.487 30.1496 206.589 29.9771C206.645 29.8947 206.703 29.8097 206.766 29.7197C206.829 29.6322 206.902 29.5497 206.975 29.4622C207.274 29.1198 207.658 28.8049 208.042 28.5824C208.423 28.3574 208.805 28.2275 209.05 28.1975C209.539 28.13 210.012 28.26 210.289 28.4999C210.43 28.6074 210.525 28.7549 210.571 28.8873C210.62 29.0223 210.62 29.1573 210.579 29.2873H210.583ZM204.788 22.7834C204.852 22.6635 204.983 22.591 205.17 22.5685C205.265 22.5585 205.374 22.5535 205.493 22.5735C205.612 22.5935 205.746 22.6285 205.889 22.676C206.03 22.7334 206.181 22.8059 206.339 22.8984C206.492 23.0034 206.657 23.1109 206.812 23.2683C207.126 23.5658 207.432 23.9982 207.592 24.5431C207.673 24.8131 207.728 25.188 207.702 25.6129C207.67 26.0354 207.541 26.4928 207.335 26.9077C206.922 27.75 206.224 28.4224 205.517 28.8948C205.163 29.1323 204.803 29.3223 204.465 29.4697C204.127 29.6172 203.807 29.7147 203.535 29.7847C202.985 29.9147 202.628 29.9022 202.614 29.8472C202.599 29.7897 202.905 29.6247 203.333 29.3198C203.547 29.1648 203.792 28.9798 204.04 28.7574C204.288 28.5349 204.543 28.2825 204.779 28.005C205.014 27.7301 205.228 27.4301 205.401 27.1277C205.573 26.8252 205.697 26.5228 205.765 26.2503C205.833 25.9779 205.848 25.7429 205.833 25.5579C205.814 25.373 205.775 25.2305 205.743 25.1205C205.68 24.9006 205.58 24.6806 205.457 24.4556C205.403 24.3407 205.325 24.2357 205.267 24.1232C205.199 24.0157 205.131 23.9107 205.073 23.8033C205.007 23.7033 204.951 23.6033 204.905 23.5058C204.859 23.4083 204.813 23.3208 204.786 23.2359C204.73 23.0634 204.725 22.9084 204.788 22.7884V22.7834ZM199.885 29.7572C199.885 29.7572 199.766 29.7972 199.545 29.8697C199.433 29.9072 199.29 29.9372 199.122 29.9821C199.039 30.0071 198.947 30.0196 198.85 30.0396C198.753 30.0571 198.648 30.0821 198.537 30.0971C197.65 30.2396 196.338 30.2946 194.736 30.1396C193.135 29.9896 191.247 29.6422 189.196 29.0998C188.171 28.8274 187.102 28.5074 186.009 28.1375C185.462 27.9525 184.908 27.755 184.347 27.5401C183.785 27.3276 183.226 27.0952 182.663 26.8602C181.538 26.3878 180.456 25.9054 179.409 25.473C178.362 25.038 177.344 24.6631 176.36 24.3457C174.387 23.7258 172.552 23.3508 171 23.2658C170.611 23.2458 170.242 23.2434 169.892 23.2558C169.542 23.2733 169.214 23.3033 168.91 23.3508C168.3 23.4458 167.788 23.6033 167.387 23.7783C166.983 23.9532 166.694 24.1432 166.502 24.2807C166.407 24.3507 166.339 24.4081 166.291 24.4456C166.242 24.4831 166.22 24.5031 166.22 24.5031C166.22 24.5031 166.242 24.4806 166.283 24.4356C166.327 24.3906 166.386 24.3232 166.471 24.2382C166.643 24.0757 166.91 23.8407 167.302 23.6058C167.693 23.3708 168.205 23.1384 168.832 22.9659C169.146 22.8809 169.484 22.8109 169.848 22.7534C170.21 22.7009 170.596 22.666 171.002 22.646C172.628 22.576 174.559 22.8109 176.632 23.3383C177.667 23.6083 178.741 23.9557 179.825 24.3657C180.908 24.7756 182.007 25.243 183.122 25.7129C183.681 25.9454 184.23 26.1803 184.772 26.3953C185.316 26.6128 185.855 26.8202 186.388 27.0177C187.452 27.4151 188.487 27.7725 189.478 28.0975C191.463 28.7399 193.276 29.2298 194.821 29.5272C196.364 29.8322 197.637 29.9297 198.52 29.9047C198.631 29.9047 198.733 29.8947 198.831 29.8897C198.928 29.8822 199.02 29.8822 199.105 29.8697C199.273 29.8497 199.419 29.8397 199.533 29.8197C199.764 29.7797 199.885 29.7597 199.885 29.7597V29.7572ZM130.041 39.5629H1.09887C0.736835 39.5629 0.44283 39.2605 0.44283 38.8906V38.8756C0.44283 38.5031 0.734405 38.2007 1.09887 38.2032C10.456 38.2257 117.121 38.4306 129.905 35.5862C130.313 35.4962 130.694 35.8161 130.694 36.246V38.8906C130.694 39.263 130.4 39.5629 130.038 39.5629H130.041ZM135.481 38.1432C135.481 38.9281 134.864 39.5629 134.101 39.5629C133.338 39.5629 132.721 38.9281 132.721 38.1432C132.721 37.3608 133.338 36.7234 134.101 36.7234C134.861 36.7234 135.481 37.3583 135.481 38.1432ZM137.959 39.5629H266.901C267.263 39.5629 267.557 39.2605 267.557 38.8906V38.8756C267.557 38.5031 267.266 38.2007 266.901 38.2032C257.544 38.2257 150.879 38.4306 138.095 35.5862C137.687 35.4962 137.306 35.8161 137.306 36.246V38.8906C137.306 39.263 137.6 39.5629 137.962 39.5629H137.959ZM0.413672 42C4.74113 42 9.06859 42 13.3961 42C24.6897 42 35.9834 42 47.2771 42C63.0051 42 78.7307 42 94.4588 42C112.085 42 129.713 42 147.338 42C164.332 42 181.326 42 198.318 42C212.146 42 225.971 42 239.799 42C247.927 42 256.055 42 264.182 42C265.317 42 266.452 42 267.586 42C268.138 42 268.138 41.1202 267.586 41.1202C263.259 41.1202 258.931 41.1202 254.604 41.1202C243.31 41.1202 232.017 41.1202 220.723 41.1202C204.995 41.1202 189.269 41.1202 173.541 41.1202C155.916 41.1202 138.287 41.1202 120.662 41.1202C103.668 41.1202 86.6737 41.1202 69.6822 41.1202C55.8542 41.1202 42.0287 41.1202 28.2008 41.1202C20.0731 41.1202 11.9455 41.1202 3.81781 41.1202C2.6831 41.1202 1.54839 41.1202 0.413672 41.1202C-0.137891 41.1202 -0.137891 42 0.413672 42Z" fill="url(#paint0_linear_1305:3814)"/>
<defs>
<linearGradient id="paint0_linear_1305:3814" x1="49.8405" y1="202.014" x2="250.293" y2="110.413" gradientUnits="userSpaceOnUse">
<stop stop-color="#EEDEBC"/>
<stop offset="0.14902" stop-color="#EEDEBC"/>
<stop offset="0.416667" stop-color="#DCC3A1"/>
<stop offset="0.611765" stop-color="#C9A885"/>
<stop offset="0.721569" stop-color="#9A7A5F"/>
<stop offset="0.839216" stop-color="#C9A885"/>
<stop offset="1" stop-color="#EEDEBC"/>
</linearGradient>
</defs>
</svg>
