<svg width="268" height="28" viewBox="0 0 268 28" fill="none" xmlns="http://www.w3.org/2000/svg">
<path d="M184.235 24.7655C184.203 24.7844 184.172 24.8055 184.14 24.822V24.8032C183.489 25.0338 182.573 25.2738 181.458 25.3091C180.84 25.3256 180.165 25.2808 179.451 25.1538C178.736 25.0314 177.983 24.829 177.201 24.5749C176.418 24.3184 175.604 24.0102 174.756 23.6808C174.439 23.5578 174.116 23.4334 173.789 23.3078L173.456 23.1796C173.019 23.0055 172.574 22.829 172.127 22.6501C171.517 22.4101 170.915 22.1772 170.324 21.9537C169.736 21.7231 169.151 21.5184 168.594 21.2878C167.474 20.8383 166.41 20.4242 165.426 20.0501C164.439 19.6736 163.54 19.3301 162.743 19.0265C161.946 18.7253 161.251 18.4712 160.685 18.2665C159.619 17.7159 158.056 16.9323 156.151 16.0241C155.182 15.5746 154.098 15.144 152.903 14.8005C151.71 14.4593 150.402 14.2122 149.027 14.1605C148.019 14.1252 147.02 14.184 146.08 14.3769L145.905 14.4075C145.846 14.4193 145.788 14.4358 145.73 14.4499C145.616 14.4805 145.501 14.5087 145.387 14.537C145.273 14.5675 145.159 14.5958 145.047 14.624C144.935 14.6569 144.826 14.697 144.717 14.7323C144.498 14.8076 144.279 14.8711 144.073 14.9558C143.869 15.0429 143.665 15.1299 143.463 15.217L143.315 15.2829L143.171 15.3582L142.887 15.5064C142.7 15.6099 142.52 15.6923 142.328 15.8193C141.961 16.0617 141.66 16.3276 141.383 16.5888C141.169 16.7958 140.967 17.0005 140.778 17.1982C140.722 17.2335 140.664 17.2688 140.605 17.3041C140.044 17.6476 139.349 18.0171 138.574 18.4406C137.799 18.8689 136.941 19.3442 136.088 19.9748C135.627 20.3207 135.187 20.6948 134.822 21.1325L134.781 21.1489L134.815 21.1419C134.728 21.2478 134.643 21.356 134.565 21.4689C134.361 21.7584 134.198 22.0807 134.106 22.4243C134.016 22.7654 134.001 23.1231 134.067 23.4431C134.132 23.7631 134.259 24.0431 134.407 24.2785C134.555 24.5138 134.723 24.7091 134.888 24.8785C134.973 24.9608 135.051 25.0408 135.143 25.1138C135.187 25.1514 135.231 25.1867 135.274 25.2197C135.318 25.2479 135.364 25.2785 135.408 25.3067C135.583 25.4197 135.758 25.495 135.913 25.5538C136.19 25.7373 136.57 25.9232 137.038 26.0361C137.507 26.1514 138.061 26.2056 138.669 26.1397C139.271 26.0715 139.94 25.895 140.559 25.4667C140.865 25.2549 141.157 24.9702 141.366 24.6079C141.577 24.2502 141.692 23.8149 141.679 23.389C141.679 23.3114 141.67 23.2361 141.662 23.1584L141.65 23.0431L141.628 22.9325C141.611 22.8596 141.597 22.789 141.58 22.716C141.558 22.6478 141.534 22.5796 141.512 22.5113C141.466 22.3725 141.415 22.2501 141.351 22.1231C141.291 21.9984 141.22 21.8737 141.14 21.7536C141.057 21.6313 140.967 21.5136 140.858 21.4054C140.754 21.2948 140.627 21.1936 140.486 21.1089C140.345 21.0242 140.187 20.9583 140.022 20.9207C139.857 20.8854 139.689 20.876 139.531 20.8925C139.216 20.9254 138.948 21.0407 138.732 21.1795C138.513 21.3183 138.338 21.4807 138.19 21.6525C137.899 21.996 137.712 22.3702 137.646 22.7584C137.617 22.9537 137.619 23.1584 137.697 23.3466C137.772 23.5396 137.93 23.6831 138.088 23.7467C138.246 23.8126 138.392 23.8243 138.518 23.8243C138.645 23.8243 138.754 23.8055 138.851 23.7867C139.043 23.7467 139.184 23.6949 139.279 23.6596C139.371 23.622 139.42 23.6031 139.42 23.6031C139.42 23.6031 139.366 23.6078 139.267 23.6149C139.167 23.622 139.019 23.6314 138.837 23.6196C138.744 23.6125 138.645 23.6031 138.543 23.5772C138.44 23.5537 138.338 23.5137 138.261 23.4525C138.183 23.3961 138.137 23.3137 138.127 23.2219C138.115 23.1278 138.134 23.0102 138.183 22.8878C138.28 22.6407 138.479 22.3796 138.734 22.1654C138.985 21.9537 139.318 21.789 139.582 21.8031C139.714 21.8078 139.818 21.8478 139.925 21.9278C140.032 22.0078 140.136 22.1372 140.229 22.2972C140.275 22.3772 140.319 22.4643 140.358 22.5584C140.396 22.6502 140.438 22.7513 140.462 22.8454L140.506 22.989L140.533 23.1325L140.547 23.2055L140.552 23.2761C140.557 23.3231 140.564 23.3702 140.564 23.4172C140.569 23.6714 140.513 23.9043 140.401 24.1184C140.29 24.3326 140.122 24.5255 139.923 24.6926C139.723 24.8596 139.493 25.0008 139.252 25.1138C139.009 25.2267 138.759 25.3114 138.513 25.3773C138.018 25.5091 137.537 25.5491 137.111 25.5326C136.684 25.5185 136.319 25.4361 136.03 25.335C135.906 25.2502 135.775 25.1467 135.651 25.0197L135.559 24.9232C135.53 24.8902 135.503 24.8526 135.474 24.8149C135.415 24.7467 135.359 24.6549 135.301 24.5702C135.08 24.2196 134.876 23.7961 134.864 23.3584C134.847 22.9231 135.031 22.4854 135.386 22.0619C135.736 21.6383 136.222 21.236 136.754 20.8407L136.864 20.7607C137.08 20.6807 137.308 20.5771 137.544 20.4501C137.923 20.3489 138.334 20.2407 138.776 20.1371C140.005 19.8548 141.478 19.5795 143.098 19.7301C144.755 19.8524 146.556 20.1442 148.415 20.5983C149.678 20.9113 150.888 21.2736 152.03 21.6454C153.172 22.0172 154.244 22.4078 155.235 22.7631C157.213 23.4902 158.863 24.102 160.005 24.4949C160.539 24.7655 161.208 25.0973 162 25.4314C162.792 25.7679 163.708 26.1114 164.726 26.4362C166.762 27.0832 169.221 27.6527 171.908 27.8903C172.897 27.975 173.867 28.0127 174.805 27.9962C175.74 27.9774 176.647 27.9068 177.502 27.7962C178.36 27.6762 179.164 27.5115 179.905 27.3138C180.09 27.2621 180.269 27.2032 180.447 27.1515C180.534 27.1256 180.622 27.0974 180.709 27.0715C180.797 27.0409 180.882 27.0103 180.964 26.9797C181.132 26.9185 181.295 26.8597 181.455 26.8009C181.613 26.7373 181.766 26.6691 181.914 26.6056C182.825 26.2126 183.547 25.7726 184.082 25.3867C184.179 25.3467 184.269 25.3091 184.351 25.2738C184.376 25.2691 184.398 25.2644 184.422 25.2597C184.473 25.2503 184.529 25.2432 184.582 25.2267C184.636 25.2079 184.692 25.1914 184.747 25.1726C184.864 25.1397 184.976 25.0832 185.092 25.022C185.153 24.9938 185.209 24.9561 185.265 24.9161C185.321 24.8761 185.382 24.8385 185.435 24.7914L185.447 24.7811C185.548 24.6899 185.657 24.5916 185.741 24.4737C185.835 24.3629 185.905 24.2374 185.978 24.1071L185.992 24.0831C186.021 24.0126 186.052 23.9396 186.084 23.8667C186.118 23.7914 186.132 23.7161 186.157 23.6384C186.237 23.3302 186.271 23.0008 186.234 22.676C186.152 21.7843 185.695 21.0595 185.202 20.5889C184.956 20.3466 184.687 20.1771 184.446 20.0477C184.198 19.9253 183.975 19.8477 183.79 19.8054C183.642 19.6924 183.443 19.5607 183.188 19.4548C183.122 19.4289 183.056 19.4006 182.986 19.3748C182.915 19.3536 182.84 19.3324 182.765 19.3112L182.765 19.3112C182.726 19.3018 182.687 19.2924 182.648 19.2806C182.609 19.2736 182.568 19.2665 182.527 19.2595C182.444 19.2477 182.359 19.2336 182.271 19.2218C182.186 19.2171 182.101 19.21 182.014 19.2053C181.926 19.1983 181.839 19.1936 181.744 19.1983C181.652 19.203 181.557 19.2077 181.46 19.21C181.363 19.2218 181.263 19.2336 181.161 19.2477C180.957 19.2853 180.746 19.3371 180.529 19.4265C180.422 19.4665 180.313 19.5324 180.206 19.5889C180.153 19.6242 180.102 19.6618 180.048 19.6995L179.97 19.7583L179.898 19.8265C179.825 19.8948 179.754 19.963 179.698 20.0477L179.611 20.1701L179.54 20.3042C179.448 20.483 179.404 20.676 179.382 20.8595C179.351 21.2336 179.448 21.5631 179.587 21.8337C179.871 22.3749 180.328 22.7137 180.78 22.8384C181.006 22.9019 181.234 22.8949 181.411 22.836C181.433 22.829 181.455 22.8243 181.477 22.8172L181.535 22.789C181.572 22.7702 181.608 22.7513 181.64 22.7325C181.698 22.6854 181.752 22.6478 181.79 22.6031C181.829 22.5584 181.858 22.5184 181.885 22.4855C181.907 22.4502 181.924 22.4172 181.936 22.3913C181.963 22.3396 181.975 22.3137 181.975 22.3137C181.975 22.3137 181.951 22.3301 181.902 22.3607C181.88 22.3749 181.851 22.3937 181.817 22.4148C181.781 22.429 181.739 22.4478 181.693 22.4666C181.647 22.4878 181.594 22.4925 181.54 22.5066C181.513 22.5066 181.484 22.5066 181.455 22.509C181.44 22.5113 181.426 22.5113 181.411 22.5113C181.395 22.509 181.38 22.5067 181.366 22.5044L181.365 22.5043C181.246 22.4902 181.125 22.4407 181.006 22.3513C180.77 22.1772 180.549 21.8572 180.459 21.5019C180.415 21.3254 180.403 21.1442 180.439 20.9936C180.478 20.843 180.549 20.723 180.673 20.6054L180.702 20.5748L180.741 20.5466C180.765 20.5301 180.789 20.5089 180.814 20.4901C180.874 20.4595 180.925 20.4195 180.991 20.3889C181.117 20.3254 181.258 20.2689 181.402 20.2218C181.691 20.123 182.004 20.0736 182.293 20.0171C182.84 19.9277 183.333 19.9724 183.676 20.0501C183.812 20.156 183.963 20.2995 184.121 20.4713C184.271 20.6477 184.434 20.8478 184.57 21.0878C184.847 21.5584 185.075 22.1537 185.134 22.7796C185.161 23.0102 185.148 23.229 185.122 23.4337C185.109 23.4831 185.109 23.5372 185.095 23.5843C185.083 23.6314 185.073 23.6784 185.061 23.7278C185.027 23.8173 185.003 23.9137 184.956 23.9937C184.803 24.3373 184.524 24.5891 184.235 24.7655Z" fill="url(#paint0_linear_1305:3815)"/>
<path d="M1.09887 2.29419H130.038C130.4 2.29419 130.694 2.57891 130.694 2.92951V5.419C130.694 5.82372 130.313 6.12491 129.905 6.0402C117.121 3.36247 10.456 3.55542 1.09887 3.5766C0.734405 3.5766 0.44283 3.29187 0.44283 2.94127V2.92951C0.44283 2.57891 0.736835 2.29419 1.09887 2.29419Z" fill="url(#paint1_linear_1305:3815)"/>
<path d="M134.101 2.29419C134.864 2.29419 135.481 2.89186 135.481 3.6307C135.481 4.36955 134.861 4.96723 134.101 4.96723C133.338 4.96723 132.721 4.36955 132.721 3.6307C132.721 2.89186 133.338 2.29419 134.101 2.29419Z" fill="url(#paint2_linear_1305:3815)"/>
<path d="M266.901 2.29419H137.962C137.6 2.29419 137.306 2.57891 137.306 2.92951V5.419C137.306 5.82372 137.687 6.12491 138.095 6.0402C150.879 3.36247 257.544 3.55542 266.901 3.5766C267.266 3.5766 267.557 3.29187 267.557 2.94127V2.92951C267.557 2.57891 267.263 2.29419 266.901 2.29419Z" fill="url(#paint3_linear_1305:3815)"/>
<path d="M13.3961 0.828261H0.413672C-0.137891 0.828261 -0.137891 0 0.413672 0H3.81781H28.2008H69.6822H120.662H173.541H220.723H254.604H267.586C268.138 0 268.138 0.828261 267.586 0.828261H264.182H239.799H198.318H147.338H94.4588H47.2771H13.3961Z" fill="url(#paint4_linear_1305:3815)"/>
<path d="M127.698 23.669C127.604 23.6314 127.555 23.6125 127.555 23.6125L127.548 23.5914C127.548 23.5914 127.601 23.5961 127.701 23.6031C127.8 23.6102 127.946 23.6196 128.131 23.6078C128.223 23.6008 128.323 23.5914 128.425 23.5655C128.524 23.542 128.629 23.502 128.707 23.4408C128.784 23.3843 128.831 23.3019 128.84 23.2102C128.852 23.1161 128.833 22.9984 128.784 22.876C128.687 22.629 128.488 22.3678 128.233 22.1537C127.983 21.9419 127.65 21.7772 127.385 21.7913C127.254 21.796 127.149 21.836 127.042 21.916C126.935 21.996 126.831 22.1254 126.739 22.2854C126.692 22.3654 126.649 22.4525 126.61 22.5466C126.571 22.6384 126.532 22.7396 126.505 22.8337L126.462 22.9772L126.435 23.1208L126.42 23.1937L126.415 23.2643C126.411 23.3114 126.403 23.3584 126.403 23.4055C126.398 23.6596 126.454 23.8925 126.566 24.1067C126.678 24.3208 126.845 24.5138 127.045 24.6808C127.246 24.8479 127.477 24.9891 127.715 25.102C127.958 25.215 128.206 25.2997 128.454 25.3656C128.95 25.4973 129.431 25.5373 129.856 25.5208C130.281 25.5067 130.648 25.4244 130.937 25.3232C131.061 25.2385 131.192 25.1349 131.316 25.0079L131.409 24.9114C131.438 24.8785 131.465 24.8408 131.494 24.8032C131.552 24.7349 131.608 24.6432 131.666 24.5585C131.887 24.2079 132.091 23.7843 132.104 23.3466C132.121 22.9113 131.936 22.4737 131.581 22.0501C131.231 21.6266 130.745 21.2242 130.213 20.8289L130.104 20.7489C129.89 20.6689 129.662 20.5654 129.426 20.4383C129.047 20.3371 128.636 20.2289 128.194 20.1254C126.962 19.843 125.49 19.5677 123.869 19.7183C122.212 19.8407 120.411 20.1324 118.553 20.5866C117.289 20.8995 116.079 21.2619 114.937 21.6336C113.795 22.0054 112.724 22.396 111.732 22.7513C109.757 23.4784 108.107 24.0902 106.965 24.4832C106.43 24.7538 105.762 25.0855 104.97 25.4197C104.178 25.7561 103.262 26.0997 102.244 26.4244C100.208 27.0715 97.7487 27.6409 95.0614 27.8786C94.0725 27.9633 93.103 28.0009 92.1651 27.9845C91.2296 27.9656 90.3233 27.895 89.468 27.7844C88.6127 27.6644 87.806 27.4997 87.0649 27.3021C86.8803 27.2503 86.7005 27.1915 86.5231 27.1397C86.4356 27.1138 86.3481 27.0856 86.2607 27.0597C86.1732 27.0291 86.0906 26.9985 86.0055 26.968C85.8379 26.9068 85.6751 26.8479 85.5147 26.7891C85.3568 26.7256 85.2061 26.6573 85.0555 26.5938C84.1467 26.2032 83.4251 25.7632 82.8905 25.3773C82.7934 25.3373 82.7034 25.2997 82.6208 25.2644C82.5965 25.2597 82.5747 25.255 82.5504 25.2502C82.4994 25.2408 82.4435 25.2338 82.39 25.2173C82.3365 25.1985 82.2807 25.182 82.2248 25.1632C82.1093 25.1306 82.001 25.0749 81.8833 25.0144L81.8798 25.0126C81.8229 24.9862 81.7724 24.9515 81.7184 24.9144L81.7072 24.9067C81.6514 24.8667 81.5906 24.8291 81.5371 24.782L81.5258 24.7718C81.4245 24.6805 81.3153 24.5823 81.231 24.4643C81.1372 24.3535 81.067 24.2281 80.9942 24.0979L80.9807 24.0737C80.9516 24.0032 80.92 23.9302 80.8884 23.8573C80.8544 23.782 80.8398 23.7067 80.8155 23.629C80.7353 23.3208 80.7013 22.9913 80.7377 22.6666C80.8228 21.7748 81.2796 21.0501 81.7728 20.5795C82.0183 20.3371 82.288 20.1677 82.5285 20.0383C82.7763 19.916 82.9999 19.8383 83.1846 19.7959C83.3328 19.683 83.532 19.5512 83.7871 19.4453C83.8503 19.4195 83.9159 19.3912 83.9864 19.3653C84.0568 19.3442 84.1322 19.323 84.2075 19.3018C84.2439 19.2924 84.2853 19.283 84.3241 19.2712C84.363 19.2642 84.4043 19.2571 84.4456 19.25C84.5282 19.2383 84.6133 19.2242 84.7007 19.2124C84.7858 19.2077 84.8708 19.2006 84.9583 19.1959C85.0482 19.1889 85.1357 19.1842 85.2304 19.1889C85.3228 19.1936 85.4175 19.1983 85.5147 19.2006C85.6119 19.2124 85.7115 19.2242 85.8136 19.2383C86.0177 19.2759 86.2291 19.3277 86.4453 19.4171C86.5522 19.4571 86.6616 19.523 86.7685 19.5795C86.8219 19.6148 86.873 19.6524 86.9264 19.6901L87.0042 19.7489L87.0771 19.8171C87.15 19.8854 87.2204 19.9536 87.2763 20.0383L87.3638 20.1607L87.4343 20.2948C87.5266 20.4736 87.5703 20.6666 87.5922 20.8501C87.6238 21.2242 87.5266 21.5537 87.3881 21.8243C87.1038 22.3654 86.647 22.7043 86.1951 22.829C85.9691 22.8925 85.7407 22.8854 85.5633 22.8266C85.5415 22.8196 85.5196 22.8149 85.4977 22.8078L85.4394 22.7796C85.403 22.7608 85.3665 22.7419 85.3349 22.7231C85.2766 22.676 85.2231 22.6384 85.1843 22.5937C85.1454 22.549 85.1162 22.509 85.0895 22.476C85.0676 22.4407 85.0506 22.4078 85.0385 22.3819C85.0118 22.3302 84.9996 22.3043 84.9996 22.3043C84.9996 22.3043 85.0239 22.3207 85.0725 22.3513L85.0733 22.3518C85.0951 22.3659 85.1239 22.3845 85.1575 22.4054C85.194 22.4196 85.2353 22.4384 85.2815 22.4572C85.3276 22.4784 85.3835 22.4831 85.4345 22.4972C85.4613 22.4972 85.4904 22.4972 85.5196 22.4996C85.5342 22.5019 85.5487 22.5019 85.5633 22.5019C85.5755 22.4996 85.5925 22.4972 85.6071 22.4949C85.7261 22.4807 85.8476 22.4313 85.9667 22.3419C86.2024 22.1678 86.4235 21.8478 86.5134 21.4925C86.5571 21.316 86.5693 21.1348 86.5328 20.9842C86.4939 20.8336 86.4235 20.7136 86.2995 20.596L86.2704 20.5654L86.2315 20.5372C86.2072 20.5207 86.1829 20.4995 86.1586 20.4807C86.0979 20.4501 86.0468 20.4101 85.9812 20.3795C85.8549 20.316 85.714 20.2595 85.5706 20.2124C85.2815 20.1136 84.968 20.0642 84.6789 20.0077C84.1322 19.9183 83.6365 19.963 83.2963 20.0407C83.1602 20.1465 83.0072 20.2901 82.8517 20.4618C82.701 20.6383 82.5382 20.8383 82.4022 21.0783C82.1252 21.5489 81.8968 22.1442 81.8384 22.7701C81.8117 23.0007 81.8239 23.2196 81.8506 23.4243C81.8603 23.4737 81.8627 23.5278 81.8773 23.5749C81.8895 23.6219 81.8992 23.669 81.9113 23.7184C81.9454 23.8079 81.9697 23.9043 82.0158 23.9843C82.1689 24.3279 82.4483 24.5796 82.7375 24.7561C82.7691 24.7773 82.8006 24.7961 82.8322 24.8126C83.4834 25.0432 84.3995 25.2832 85.5147 25.3185C86.1319 25.3349 86.8074 25.2902 87.5217 25.1632C88.2361 25.0408 88.9893 24.8385 89.7717 24.5843C90.5541 24.3279 91.3681 24.0196 92.2161 23.6902C92.6413 23.5255 93.0762 23.3584 93.516 23.189C93.9534 23.0149 94.398 22.8384 94.8451 22.6596C95.455 22.4196 96.0576 22.1866 96.648 21.9631C97.236 21.7325 97.8216 21.5278 98.378 21.2972C99.4982 20.8477 100.562 20.4336 101.546 20.0595C102.533 19.683 103.434 19.3395 104.229 19.0359C105.028 18.7347 105.721 18.4806 106.287 18.2759C107.354 17.7253 108.916 16.9417 110.821 16.0335C111.791 15.584 112.874 15.1534 114.07 14.8099C115.263 14.4687 116.57 14.2216 117.945 14.1699C118.956 14.1346 119.952 14.1934 120.893 14.3864L121.07 14.4169C121.128 14.4287 121.184 14.4452 121.242 14.4593C121.359 14.4899 121.473 14.5181 121.587 14.5463L121.587 14.5463C121.702 14.5769 121.816 14.6052 121.928 14.6334C122.039 14.6664 122.149 14.7064 122.258 14.7417C122.477 14.817 122.695 14.8805 122.902 14.9652C123.108 15.0523 123.31 15.1393 123.512 15.2264L123.662 15.2923L123.806 15.3676C123.903 15.417 123.998 15.4664 124.09 15.5158C124.277 15.6193 124.457 15.7017 124.649 15.8287C125.016 16.0711 125.317 16.337 125.594 16.5982C125.808 16.8053 126.01 17.01 126.199 17.2076C126.255 17.2429 126.313 17.2782 126.372 17.3135C126.933 17.657 127.628 18.0265 128.403 18.45C129.178 18.8783 130.036 19.3536 130.889 19.9842C131.35 20.3301 131.79 20.7042 132.155 21.1419L132.196 21.1583L132.162 21.1513C132.249 21.2572 132.334 21.3654 132.412 21.4784C132.614 21.7678 132.779 22.0901 132.871 22.4337C132.961 22.7749 132.976 23.1325 132.91 23.4525C132.845 23.7725 132.718 24.0526 132.57 24.2879C132.422 24.5232 132.254 24.7185 132.089 24.8879C132.004 24.9702 131.926 25.0502 131.834 25.1232C131.79 25.1608 131.746 25.1961 131.703 25.2291C131.656 25.2573 131.61 25.2879 131.567 25.3161C131.392 25.4291 131.219 25.5044 131.061 25.5632C130.787 25.7467 130.408 25.9326 129.939 26.0456C129.47 26.1609 128.916 26.215 128.308 26.1491C127.706 26.0809 127.037 25.9044 126.418 25.4761C126.112 25.2644 125.82 24.9797 125.611 24.6173C125.4 24.2596 125.286 23.8243 125.298 23.3984C125.298 23.3208 125.307 23.2455 125.315 23.1678L125.327 23.0525L125.349 22.9419C125.366 22.869 125.38 22.7984 125.397 22.7255C125.419 22.6572 125.441 22.589 125.465 22.5207C125.512 22.3819 125.565 22.2596 125.626 22.1325C125.686 22.0078 125.757 21.8831 125.837 21.7631C125.92 21.6407 126.01 21.5231 126.119 21.4148C126.226 21.3042 126.352 21.2031 126.493 21.1183C126.634 21.0336 126.792 20.9677 126.957 20.9301C127.122 20.8948 127.29 20.8854 127.448 20.9019C127.764 20.9348 128.031 21.0501 128.247 21.1889C128.464 21.3278 128.641 21.4901 128.787 21.6619C129.078 22.0054 129.266 22.3796 129.331 22.7678C129.36 22.9631 129.358 23.1678 129.28 23.3561C129.205 23.549 129.047 23.6925 128.889 23.7561C128.731 23.822 128.585 23.8337 128.459 23.8337C128.333 23.8337 128.223 23.8149 128.126 23.7961C127.933 23.7563 127.795 23.7048 127.7 23.6696L127.698 23.669Z" fill="url(#paint5_linear_1305:3815)"/>
<defs>
<linearGradient id="paint0_linear_1305:3815" x1="49.8405" y1="63.2843" x2="245.942" y2="-31.9089" gradientUnits="userSpaceOnUse">
<stop stop-color="#EEDEBC"/>
<stop offset="0.14902" stop-color="#EEDEBC"/>
<stop offset="0.416667" stop-color="#DCC3A1"/>
<stop offset="0.611765" stop-color="#C9A885"/>
<stop offset="0.721569" stop-color="#9A7A5F"/>
<stop offset="0.839216" stop-color="#C9A885"/>
<stop offset="1" stop-color="#EEDEBC"/>
</linearGradient>
<linearGradient id="paint1_linear_1305:3815" x1="49.8405" y1="63.2843" x2="245.942" y2="-31.9089" gradientUnits="userSpaceOnUse">
<stop stop-color="#EEDEBC"/>
<stop offset="0.14902" stop-color="#EEDEBC"/>
<stop offset="0.416667" stop-color="#DCC3A1"/>
<stop offset="0.611765" stop-color="#C9A885"/>
<stop offset="0.721569" stop-color="#9A7A5F"/>
<stop offset="0.839216" stop-color="#C9A885"/>
<stop offset="1" stop-color="#EEDEBC"/>
</linearGradient>
<linearGradient id="paint2_linear_1305:3815" x1="49.8405" y1="63.2843" x2="245.942" y2="-31.9089" gradientUnits="userSpaceOnUse">
<stop stop-color="#EEDEBC"/>
<stop offset="0.14902" stop-color="#EEDEBC"/>
<stop offset="0.416667" stop-color="#DCC3A1"/>
<stop offset="0.611765" stop-color="#C9A885"/>
<stop offset="0.721569" stop-color="#9A7A5F"/>
<stop offset="0.839216" stop-color="#C9A885"/>
<stop offset="1" stop-color="#EEDEBC"/>
</linearGradient>
<linearGradient id="paint3_linear_1305:3815" x1="49.8405" y1="63.2843" x2="245.942" y2="-31.9089" gradientUnits="userSpaceOnUse">
<stop stop-color="#EEDEBC"/>
<stop offset="0.14902" stop-color="#EEDEBC"/>
<stop offset="0.416667" stop-color="#DCC3A1"/>
<stop offset="0.611765" stop-color="#C9A885"/>
<stop offset="0.721569" stop-color="#9A7A5F"/>
<stop offset="0.839216" stop-color="#C9A885"/>
<stop offset="1" stop-color="#EEDEBC"/>
</linearGradient>
<linearGradient id="paint4_linear_1305:3815" x1="49.8405" y1="63.2843" x2="245.942" y2="-31.9089" gradientUnits="userSpaceOnUse">
<stop stop-color="#EEDEBC"/>
<stop offset="0.14902" stop-color="#EEDEBC"/>
<stop offset="0.416667" stop-color="#DCC3A1"/>
<stop offset="0.611765" stop-color="#C9A885"/>
<stop offset="0.721569" stop-color="#9A7A5F"/>
<stop offset="0.839216" stop-color="#C9A885"/>
<stop offset="1" stop-color="#EEDEBC"/>
</linearGradient>
<linearGradient id="paint5_linear_1305:3815" x1="49.8405" y1="63.2843" x2="245.942" y2="-31.9089" gradientUnits="userSpaceOnUse">
<stop stop-color="#EEDEBC"/>
<stop offset="0.14902" stop-color="#EEDEBC"/>
<stop offset="0.416667" stop-color="#DCC3A1"/>
<stop offset="0.611765" stop-color="#C9A885"/>
<stop offset="0.721569" stop-color="#9A7A5F"/>
<stop offset="0.839216" stop-color="#C9A885"/>
<stop offset="1" stop-color="#EEDEBC"/>
</linearGradient>
</defs>
</svg>
